<svg width="114" height="32" viewBox="0 0 114 32" fill="none" xmlns="http://www.w3.org/2000/svg">
<rect width="113.103" height="32" rx="15" fill="black"/>
<path d="M25.2639 22.76C25.0639 22.9333 24.7839 23.1067 24.4239 23.28C24.0639 23.44 23.6639 23.5867 23.2239 23.72C22.7972 23.8533 22.3506 23.96 21.8839 24.04C21.4306 24.12 21.0039 24.16 20.6039 24.16C19.4439 24.16 18.3972 23.98 17.4639 23.62C16.5439 23.26 15.7506 22.76 15.0839 22.12C14.4306 21.48 13.9239 20.7267 13.5639 19.86C13.2172 18.9933 13.0439 18.0533 13.0439 17.04C13.0439 15.84 13.2372 14.7667 13.6239 13.82C14.0239 12.86 14.5639 12.0533 15.2439 11.4C15.9372 10.7333 16.7306 10.2333 17.6239 9.9C18.5172 9.55333 19.4639 9.38 20.4639 9.38C21.3039 9.38 22.0839 9.48 22.8039 9.68C23.5239 9.88 24.1572 10.1333 24.7039 10.44L24.0439 12.22C23.7772 12.06 23.4439 11.9133 23.0439 11.78C22.6572 11.6467 22.2572 11.54 21.8439 11.46C21.4306 11.3667 21.0439 11.32 20.6839 11.32C19.8306 11.32 19.0572 11.4533 18.3639 11.72C17.6706 11.9733 17.0772 12.3467 16.5839 12.84C16.0906 13.32 15.7106 13.9067 15.4439 14.6C15.1772 15.28 15.0439 16.0467 15.0439 16.9C15.0439 17.6867 15.1772 18.4067 15.4439 19.06C15.7106 19.7133 16.0906 20.28 16.5839 20.76C17.0772 21.2267 17.6639 21.5933 18.3439 21.86C19.0372 22.1133 19.7972 22.24 20.6239 22.24C21.1172 22.24 21.6039 22.1933 22.0839 22.1C22.5639 21.9933 22.9772 21.8467 23.3239 21.66V18.78H20.4439V16.92H25.2639V22.76ZM28.0634 16.78C28.0634 15.78 28.2501 14.84 28.6234 13.96C29.0101 13.0667 29.5434 12.28 30.2234 11.6C30.9034 10.9067 31.6834 10.3667 32.5634 9.98C33.4567 9.58 34.4167 9.38 35.4434 9.38C36.4567 9.38 37.4034 9.58 38.2834 9.98C39.1767 10.3667 39.9634 10.9067 40.6434 11.6C41.3367 12.28 41.8767 13.0667 42.2634 13.96C42.6501 14.84 42.8434 15.78 42.8434 16.78C42.8434 17.8067 42.6501 18.7667 42.2634 19.66C41.8767 20.5533 41.3367 21.34 40.6434 22.02C39.9634 22.6867 39.1767 23.2133 38.2834 23.6C37.4034 23.9733 36.4567 24.16 35.4434 24.16C34.4167 24.16 33.4567 23.9733 32.5634 23.6C31.6834 23.2267 30.9034 22.7067 30.2234 22.04C29.5434 21.3733 29.0101 20.5933 28.6234 19.7C28.2501 18.8067 28.0634 17.8333 28.0634 16.78ZM30.0634 16.8C30.0634 17.56 30.2034 18.2733 30.4834 18.94C30.7634 19.5933 31.1501 20.1733 31.6434 20.68C32.1367 21.1867 32.7101 21.5867 33.3634 21.88C34.0167 22.16 34.7234 22.3 35.4834 22.3C36.2301 22.3 36.9301 22.16 37.5834 21.88C38.2367 21.5867 38.8034 21.1867 39.2834 20.68C39.7634 20.1733 40.1434 19.5933 40.4234 18.94C40.7034 18.2733 40.8434 17.5533 40.8434 16.78C40.8434 16.02 40.7034 15.3067 40.4234 14.64C40.1434 13.96 39.7567 13.3667 39.2634 12.86C38.7701 12.3533 38.1967 11.96 37.5434 11.68C36.8901 11.3867 36.1901 11.24 35.4434 11.24C34.6834 11.24 33.9767 11.3867 33.3234 11.68C32.6701 11.9733 32.0967 12.3733 31.6034 12.88C31.1101 13.3867 30.7301 13.98 30.4634 14.66C30.1967 15.3267 30.0634 16.04 30.0634 16.8ZM49.9519 9.54C50.6852 9.54 51.3585 9.64 51.9719 9.84C52.5985 10.0267 53.1385 10.3133 53.5919 10.7C54.0585 11.0733 54.4185 11.54 54.6719 12.1C54.9385 12.6467 55.0719 13.2867 55.0719 14.02C55.0719 14.5933 54.9852 15.1533 54.8119 15.7C54.6519 16.2467 54.3785 16.7467 53.9919 17.2C53.6052 17.64 53.0985 18 52.4719 18.28C51.8585 18.5467 51.0985 18.68 50.1919 18.68H48.0519V24H46.1119V9.54H49.9519ZM50.1519 16.82C50.7252 16.82 51.1985 16.7333 51.5719 16.56C51.9585 16.3867 52.2585 16.1667 52.4719 15.9C52.6852 15.62 52.8385 15.32 52.9319 15C53.0252 14.68 53.0719 14.38 53.0719 14.1C53.0719 13.8067 53.0185 13.5067 52.9119 13.2C52.8185 12.88 52.6585 12.5867 52.4319 12.32C52.2185 12.0533 51.9319 11.8333 51.5719 11.66C51.2252 11.4867 50.7985 11.4 50.2919 11.4H48.0519V16.82H50.1519ZM52.5319 17.92L56.3119 24H54.0719L50.2319 17.98L52.5319 17.92ZM59.2954 9.54H61.2354V24H59.2954V9.54ZM65.3892 9.54H67.3292V22.14H74.6692V24H65.3892V9.54ZM77.8306 9.54H79.7706V22.14H87.1106V24H77.8306V9.54ZM90.272 9.54H99.672V11.4H92.212V15.8H98.872V17.66H92.212V22.14H99.952V24H90.272V9.54Z" fill="white"/>
</svg>
