<svg width="962" height="440" viewBox="0 0 962 440" fill="none" xmlns="http://www.w3.org/2000/svg">
<g clip-path="url(#clip0_2720_1745)">
<g filter="url(#filter0_d_2720_1745)">
<path d="M126.564 137.5C126.564 137.5 317.1 27.2811 329.064 20.4997C341.027 13.7184 359.064 14.4998 369.564 20.4998C380.064 26.4997 478.564 84.4998 490.564 90.9998C502.564 97.4998 520.064 96.9998 531.064 90.9998C542.064 84.9998 612.063 43.9998 612.063 43.9998C626.761 35.4972 636.699 36.7585 652.063 43.9998C652.063 43.9998 764.064 108.72 773.564 114.11C783.064 119.5 815.064 125.5 834.064 125.5C853.064 125.5 874.563 137.5 874.563 149C874.563 160.5 874.563 160.5 874.563 172.5C874.563 184.5 884.064 201.5 894.564 207.5C905.064 213.5 924.564 224.5 935.064 230.5C945.564 236.5 946.064 247.5 935.064 254C924.064 260.5 885.564 282.5 874.563 289C863.563 295.5 845.564 295.5 834.064 289C822.564 282.5 796.136 266.954 793.564 265.5C782.064 259 764.064 259.5 753.064 265.5C742.064 271.5 665.833 316.067 531.064 394C520.064 400.361 501.564 400.5 490.564 394L409.564 347.5C399.064 341 381.064 340.5 369.564 347.5L248.064 417.5C233.366 426.002 222.928 424.726 207.564 417.5C207.564 417.5 37.0636 319 26.0636 312.5C15.0635 306 15.5636 295 26.0636 289C36.5636 283 76.0637 260 86.5637 254C97.0637 248 106.564 231.5 106.564 219C106.564 206.5 106.564 181.248 106.564 172.5C106.564 159.5 118.064 142.5 126.564 137.5Z" fill="#0C9BF9"/>
</g>
<path d="M106.064 289C95.0636 295 95.5636 306.5 106.064 312.5C109.234 314.33 117.764 319.2 126.564 324C137.564 330 176.564 330 187.064 335.5C197.564 341 194.064 340 207.064 347C220.064 354 236.564 354 248.064 347C259.564 340 377.064 273 389.564 266C402.064 259 401.564 249.5 389.564 242.5C377.564 235.5 280.064 179.5 268.064 172.5C256.064 165.5 238.064 166.5 227.564 172.5C217.064 178.5 178.064 201 166.564 207.5C155.064 214 146.564 230.5 146.564 242.5C146.564 254.5 136.064 272 126.564 277.5C117.064 283 117.064 283 106.064 289Z" fill="#18183D"/>
<path d="M248.064 189L157.064 241.5V260.5L173.534 251L248.064 208V189Z" fill="#20BAFF"/>
<path d="M339.064 241.5L248.064 189V208L322.594 251L339.064 260.5V241.5Z" fill="#037EDB"/>
<path d="M157.064 260.5L248.064 313V294L173.534 251L157.064 260.5Z" fill="url(#paint0_linear_2720_1745)"/>
<path fill-rule="evenodd" clip-rule="evenodd" d="M248.064 294L173.534 251L248.064 208L322.594 251L248.064 294Z" fill="#0C9BF9"/>
<path d="M248.064 313L339.064 260.5L322.604 251L248.074 294V313H248.064Z" fill="url(#paint1_linear_2720_1745)"/>
<path d="M318.064 225.38L248.064 265.76L178.064 225.38L248.064 185L318.064 225.38Z" fill="url(#paint2_linear_2720_1745)"/>
<path d="M248.064 265.77L178.064 225.39V240L248.064 280.39V265.77Z" fill="url(#paint3_linear_2720_1745)"/>
<path d="M318.064 225.38L248.064 265.76V280.38L318.064 239.99V225.38Z" fill="url(#paint4_linear_2720_1745)"/>
<path d="M248.064 145L157.064 197.5V216.5L173.534 207L248.064 164V145Z" fill="#20BAFF"/>
<path d="M339.064 197.5L248.064 145V164L322.594 207L339.064 216.5V197.5Z" fill="#037EDB"/>
<path d="M157.064 216.5L248.064 269V250L173.534 207L157.064 216.5Z" fill="url(#paint5_linear_2720_1745)"/>
<path fill-rule="evenodd" clip-rule="evenodd" d="M248.064 250L173.534 207L248.064 164L322.594 207L248.064 250Z" fill="#0C9BF9"/>
<path d="M248.064 269L339.064 216.5L322.604 207L248.074 250V269H248.064Z" fill="url(#paint6_linear_2720_1745)"/>
<path d="M318.064 181.38L248.064 221.76L178.064 181.38L248.064 141L318.064 181.38Z" fill="url(#paint7_linear_2720_1745)"/>
<path d="M248.064 221.77L178.064 181.39V196L248.064 236.38V221.77Z" fill="url(#paint8_linear_2720_1745)"/>
<path d="M318.064 181.38L248.064 221.76V236.38L318.064 196V181.38Z" fill="url(#paint9_linear_2720_1745)"/>
<path d="M248.064 101L157.064 153.5V172.5L173.534 163L248.064 120V101Z" fill="#20BAFF"/>
<path d="M339.064 153.5L248.064 101V120L322.594 163L339.064 172.5V153.5Z" fill="#037EDB"/>
<path d="M157.064 172.5L248.064 225V206L173.534 163L157.064 172.5Z" fill="url(#paint10_linear_2720_1745)"/>
<path fill-rule="evenodd" clip-rule="evenodd" d="M248.064 206L173.534 163L248.064 120L322.594 163L248.064 206Z" fill="#0C9BF9"/>
<path d="M248.064 225L339.064 172.5L322.604 163L248.074 206V225H248.064Z" fill="url(#paint11_linear_2720_1745)"/>
<path d="M318.064 137.38L248.064 177.76L178.064 137.38L248.064 97L318.064 137.38Z" fill="url(#paint12_linear_2720_1745)"/>
<path d="M248.064 177.77L178.064 137.39V152L248.064 192.38V177.77Z" fill="url(#paint13_linear_2720_1745)"/>
<path d="M318.064 137.38L248.064 177.76V192.38L318.064 152V137.38Z" fill="url(#paint14_linear_2720_1745)"/>
<path d="M248.064 57L157.064 109.5V128.5L173.534 119L248.064 76V57Z" fill="#20BAFF"/>
<path d="M339.064 109.5L248.064 57V76L322.594 119L339.064 128.5V109.5Z" fill="#037EDB"/>
<path d="M157.064 128.5L248.064 181V162L173.534 119L157.064 128.5Z" fill="url(#paint15_linear_2720_1745)"/>
<path fill-rule="evenodd" clip-rule="evenodd" d="M248.064 162L173.534 119L248.064 76L322.594 119L248.064 162Z" fill="#0C9BF9"/>
<path d="M248.064 181L339.064 128.5L322.604 119L248.074 162V181H248.064Z" fill="url(#paint16_linear_2720_1745)"/>
<path d="M318.064 93.38L248.064 133.76L178.064 93.38L248.064 53L318.064 93.38Z" fill="url(#paint17_linear_2720_1745)"/>
<path d="M248.064 133.77L178.064 93.39V108L248.064 148.38V133.77Z" fill="url(#paint18_linear_2720_1745)"/>
<path d="M318.064 93.38L248.064 133.76V148.38L318.064 108V93.38Z" fill="url(#paint19_linear_2720_1745)"/>
<path d="M157.064 81.5L248.064 134V115L157.064 62.5V81.5Z" fill="#37384F"/>
<path d="M248.064 134L339.064 81.5V62.5L248.064 115V134Z" fill="#90909D"/>
<path d="M339.064 62.5L248.064 10L157.064 62.5L248.064 115L339.064 62.5Z" fill="url(#paint20_linear_2720_1745)"/>
<path d="M257.564 258L330.064 216M257.064 302.5L329.564 260.5M257.564 170L330.064 128M257.564 123L330.064 81M257.064 214.5L329.564 172.5M257.064 251L274.064 241.15M256.564 295.5L274.064 285.36M257.064 163L274.064 153.15M257.064 116L274.064 106.15M256.564 207.5L274.064 197.36" stroke="white" stroke-width="2" stroke-linecap="round"/>
<path d="M242.064 123C232.064 128.5 232.064 139.5 232.064 152V327.5C232.064 315 232.064 304.5 242.064 299M232.064 196.5C232.064 184 232.064 173.5 242.064 168M232.064 242C232.064 229.5 232.064 219 242.064 213.5M232.064 285.5C232.064 273 232.064 262.5 242.064 257" stroke="#F5E48C" stroke-width="2" stroke-linecap="round" stroke-linejoin="round"/>
<path d="M185.834 132.55C182.634 134.55 181.734 137.79 182.074 138.95L178.924 142.94L191.064 113L193.064 114L185.834 132.55Z" fill="white"/>
<path d="M152.864 216.72C152.624 216.73 150.904 221.11 150.064 223.31L165.654 232.29C165.524 233.19 165.394 234.11 165.274 235.03L148.564 225.31V221.07L150.564 216.8C151.284 216.77 152.054 216.75 152.864 216.72Z" fill="white"/>
<path d="M121.064 297.67L119.064 296.67L131.964 264.73C131.474 267.69 131.024 270.67 130.604 273.53L128.554 278.21L129.874 278.71C129.764 279.57 129.654 280.4 129.544 281.21L128.044 280.39L121.064 297.67Z" fill="white"/>
<path d="M163.634 253.54C163.604 254.14 163.584 254.71 163.574 255.25C163.384 255.44 163.284 255.71 163.294 255.99L147.284 246.27L148.074 244.44L163.634 253.54Z" fill="white"/>
<path d="M156.064 159.92C153.564 161.42 150.064 159.92 148.564 157.92L150.064 155.43C155.064 156.43 156.064 155.43 156.064 147.94C156.064 147.04 157.084 145.46 158.064 144.45C160.024 152.48 160.754 155.69 158.564 156.59C157.964 156.84 157.144 156.93 156.064 156.93V159.92Z" fill="#F4ACC8"/>
<path d="M183.564 139.95L182.064 138.95C181.734 137.79 182.624 134.54 185.824 132.55C188.064 131.47 190.444 132.89 191.064 133.96C190.914 133.81 190.094 133.77 188.064 134.72C187.494 135.01 186.484 135.59 186.054 135.96C184.224 137.51 183.564 139.55 183.564 139.95Z" fill="#F4ACC8"/>
<path d="M154.564 199.35C147.564 203.34 138.564 204.84 131.064 201.35C129.814 189.37 134.564 165.91 142.064 157.93H148.564C150.064 159.93 153.564 161.42 156.064 159.93C157.064 159.93 159.024 161.18 161.064 162.74C163.104 164.3 165.234 166.17 166.564 167.42C164.734 169.55 162.034 172.85 159.564 176.2C156.624 180.18 153.994 184.22 153.564 186.39C152.764 190.36 153.904 196.68 154.564 199.35Z" fill="#80EBEB"/>
<path d="M174.064 190.36L188.064 183.37L189.564 184.87C186.594 187.5 181.254 191.92 177.284 194.44C176.264 195.09 175.334 195.61 174.564 195.94C173.964 196.2 173.454 196.34 173.064 196.34C172.134 196.34 170.694 194.85 169.064 192.61C167.274 190.15 165.264 186.79 163.434 183.52C161.934 180.83 160.564 178.19 159.564 176.17C162.034 172.83 164.734 169.52 166.564 167.39L167.814 170.88L169.064 174.37L174.064 190.36Z" fill="#9CF5F5"/>
<path d="M161.064 162.72C159.024 161.16 157.064 159.91 156.064 159.91V156.91C157.144 156.91 157.964 156.82 158.564 156.57L169.064 155.41L178.914 142.93L182.064 138.94L183.564 139.94C182.274 142.59 180.204 146.65 178.094 150.42C176.374 153.48 174.634 156.35 173.254 158.1C172.814 158.66 172.414 159.1 172.064 159.4C169.264 161.81 163.564 162.62 161.064 162.72Z" fill="#78DEDE"/>
<path d="M165.564 254.75H174.564C173.364 255.95 171.484 256.91 169.564 257.43C168.164 257.81 166.734 257.95 165.564 257.76C164.994 257.67 164.484 257.5 164.064 257.25C163.554 256.94 163.294 256.45 163.284 255.99C163.284 255.71 163.374 255.44 163.564 255.25L165.564 254.75Z" fill="#80EBEB"/>
<path d="M129.064 285.19L131.564 282.69L138.564 283.92L140.064 284.19C139.924 284.27 139.764 284.36 139.564 284.46C138.964 284.77 138.114 285.16 137.064 285.57C135.554 286.16 133.654 286.77 131.564 287.19C127.564 287.99 128.234 286.19 129.064 285.19Z" fill="#80EBEB"/>
<path d="M165.564 254.75L163.564 255.25C163.584 254.72 163.604 254.15 163.624 253.54C163.844 248.64 164.384 241.7 165.264 235.02C165.384 234.1 165.514 233.19 165.644 232.28C166.794 224.55 168.424 217.63 170.554 215.31C166.424 215.91 158.664 216.49 152.854 216.71C152.044 216.74 151.274 216.76 150.554 216.78C149.834 216.8 149.154 216.81 148.554 216.81C143.054 216.81 134.554 214.32 132.554 210.82C130.554 207.82 130.724 202.86 131.054 201.34C138.554 204.83 147.554 203.34 154.554 199.34C155.174 199.4 155.844 199.48 156.554 199.56C157.424 199.66 158.344 199.78 159.314 199.91C167.974 201.1 179.894 203.5 181.554 206.82C182.224 208.15 181.354 212.31 179.674 217.8L179.554 218.19C179.384 218.74 179.284 219.09 179.054 219.8C177.434 224.79 175.124 231.1 172.914 236.77C172.624 237.51 172.344 238.24 172.054 238.97C169.744 244.87 167.404 250.49 165.564 254.75Z" fill="#4C4E6E"/>
<path d="M132.564 210.83C134.564 214.32 143.064 216.82 148.564 216.82V221.06V225.3V243.27L148.064 244.43L147.274 246.26L140.384 262.23L139.564 264.14L132.564 280.38L131.564 282.7L129.064 285.2C129.214 283.97 129.374 282.63 129.564 281.21C129.664 280.4 129.774 279.57 129.894 278.71C130.114 277.06 130.354 275.32 130.614 273.53C131.024 270.67 131.484 267.69 131.974 264.73C133.924 252.92 136.364 241.49 138.574 239.77C135.864 230.96 131.114 214.02 132.564 210.83Z" fill="#37384F"/>
<path d="M156.064 147.94C156.064 155.43 155.064 156.43 150.064 155.43C148.234 153.93 145.464 149.84 149.064 145.45C152.664 141.06 157.894 141.96 160.064 142.96C159.874 143.1 159.684 143.22 159.484 143.35C159.054 143.62 158.584 143.92 158.064 144.46C157.084 145.46 156.064 147.04 156.064 147.94Z" fill="#37384F"/>
<path fill-rule="evenodd" clip-rule="evenodd" d="M139.564 264.14L140.384 262.23L170.064 279.2L176.064 263.73L165.564 257.75C166.744 257.94 168.164 257.8 169.564 257.42L177.064 261.73L183.564 244.76L172.064 238.97C172.354 238.24 172.644 237.51 172.924 236.77L184.564 242.26L190.564 225.79L179.064 219.8C179.294 219.09 179.404 218.74 179.564 218.19L179.684 217.8L191.564 223.79L197.064 208.82L174.564 195.94C175.334 195.61 176.264 195.08 177.284 194.44L198.064 206.83L204.564 190.86L192.064 183.84C193.164 183.35 194.294 182.81 195.064 182.33L205.564 188.36L211.564 172.89L177.564 152.93L171.564 168.9L190.514 179.88C189.934 180.45 189.384 181.18 188.934 181.88L170.564 170.9L169.064 174.39L167.814 170.9L173.254 158.12C174.634 156.37 176.374 153.5 178.094 150.44L212.564 170.9L218.564 154.43L186.054 135.96C186.494 135.59 187.494 135.01 188.064 134.72L219.564 152.43L227.064 133.46L229.064 134.46L156.564 318.13L155.064 317.13L162.064 299.66L137.064 285.56C138.114 285.15 138.964 284.76 139.564 284.45L163.064 297.66L169.064 281.69L139.564 264.14Z" fill="white"/>
<path d="M189.564 184.87L188.064 183.37C188.264 182.97 188.564 182.43 188.924 181.87C189.374 181.18 189.924 180.44 190.504 179.87C191.004 179.38 191.534 179 192.054 178.87C194.054 178.37 196.054 180.37 196.054 181.37C196.054 181.61 195.664 181.95 195.054 182.32C194.284 182.8 193.164 183.34 192.054 183.83C191.154 184.24 190.254 184.61 189.564 184.87Z" fill="#F4ACC8"/>
<path d="M169.064 192.62L163.564 189.36L159.324 199.92C158.354 199.79 157.434 199.67 156.564 199.57C156.564 198.99 161.144 188.64 163.434 183.53C165.264 186.8 167.284 190.16 169.064 192.62Z" fill="white"/>
<path d="M411.798 168L422.646 151.2H426.51L430.638 168H426.75L423.486 153.12H425.022L415.95 168H411.798ZM416.286 164.4L417.87 161.448H426.534L426.99 164.4H416.286ZM438.237 168.288C437.325 168.288 436.437 168.2 435.573 168.024C434.725 167.864 433.949 167.64 433.245 167.352C432.557 167.064 431.973 166.752 431.493 166.416L433.077 163.416C433.605 163.784 434.165 164.104 434.757 164.376C435.365 164.632 435.997 164.832 436.653 164.976C437.309 165.104 437.965 165.168 438.621 165.168C439.341 165.168 439.957 165.088 440.469 164.928C440.997 164.768 441.397 164.544 441.669 164.256C441.957 163.968 442.101 163.616 442.101 163.2C442.101 162.816 441.949 162.504 441.645 162.264C441.341 162.024 440.941 161.824 440.445 161.664C439.965 161.488 439.429 161.32 438.837 161.16C438.245 161 437.645 160.816 437.037 160.608C436.445 160.384 435.901 160.112 435.405 159.792C434.925 159.456 434.533 159.032 434.229 158.52C433.925 158.008 433.773 157.368 433.773 156.6C433.773 155.448 434.085 154.448 434.709 153.6C435.349 152.752 436.245 152.096 437.397 151.632C438.549 151.152 439.901 150.912 441.453 150.912C442.589 150.912 443.661 151.04 444.669 151.296C445.677 151.536 446.541 151.888 447.261 152.352L445.797 155.328C445.157 154.896 444.445 154.576 443.661 154.368C442.877 154.144 442.069 154.032 441.237 154.032C440.485 154.032 439.837 154.12 439.293 154.296C438.765 154.472 438.357 154.72 438.069 155.04C437.797 155.344 437.661 155.696 437.661 156.096C437.661 156.496 437.805 156.824 438.093 157.08C438.397 157.32 438.797 157.528 439.293 157.704C439.789 157.864 440.333 158.024 440.925 158.184C441.517 158.344 442.109 158.528 442.701 158.736C443.293 158.944 443.837 159.208 444.333 159.528C444.829 159.848 445.229 160.256 445.533 160.752C445.837 161.232 445.989 161.84 445.989 162.576C445.989 163.728 445.669 164.736 445.029 165.6C444.389 166.448 443.485 167.112 442.317 167.592C441.165 168.056 439.805 168.288 438.237 168.288ZM453.541 168.288C452.629 168.288 451.741 168.2 450.877 168.024C450.029 167.864 449.253 167.64 448.549 167.352C447.861 167.064 447.277 166.752 446.797 166.416L448.381 163.416C448.909 163.784 449.469 164.104 450.061 164.376C450.669 164.632 451.301 164.832 451.957 164.976C452.613 165.104 453.269 165.168 453.925 165.168C454.645 165.168 455.261 165.088 455.773 164.928C456.301 164.768 456.701 164.544 456.973 164.256C457.261 163.968 457.405 163.616 457.405 163.2C457.405 162.816 457.253 162.504 456.949 162.264C456.645 162.024 456.245 161.824 455.749 161.664C455.269 161.488 454.733 161.32 454.141 161.16C453.549 161 452.949 160.816 452.341 160.608C451.749 160.384 451.205 160.112 450.709 159.792C450.229 159.456 449.837 159.032 449.533 158.52C449.229 158.008 449.077 157.368 449.077 156.6C449.077 155.448 449.389 154.448 450.013 153.6C450.653 152.752 451.549 152.096 452.701 151.632C453.853 151.152 455.205 150.912 456.757 150.912C457.893 150.912 458.965 151.04 459.973 151.296C460.981 151.536 461.845 151.888 462.565 152.352L461.101 155.328C460.461 154.896 459.749 154.576 458.965 154.368C458.181 154.144 457.373 154.032 456.541 154.032C455.789 154.032 455.141 154.12 454.597 154.296C454.069 154.472 453.661 154.72 453.373 155.04C453.101 155.344 452.965 155.696 452.965 156.096C452.965 156.496 453.109 156.824 453.397 157.08C453.701 157.32 454.101 157.528 454.597 157.704C455.093 157.864 455.637 158.024 456.229 158.184C456.821 158.344 457.413 158.528 458.005 158.736C458.597 158.944 459.141 159.208 459.637 159.528C460.133 159.848 460.533 160.256 460.837 160.752C461.141 161.232 461.293 161.84 461.293 162.576C461.293 163.728 460.973 164.736 460.333 165.6C459.693 166.448 458.789 167.112 457.621 167.592C456.469 168.056 455.109 168.288 453.541 168.288ZM470.91 168.288C469.278 168.288 467.918 167.968 466.83 167.328C465.742 166.688 464.974 165.8 464.526 164.664C464.094 163.512 464.03 162.16 464.334 160.608L466.206 151.2H470.118L468.246 160.536C468.102 161.288 468.062 161.944 468.126 162.504C468.19 163.064 468.35 163.528 468.606 163.896C468.878 164.264 469.246 164.536 469.71 164.712C470.174 164.888 470.718 164.976 471.342 164.976C472.126 164.976 472.806 164.824 473.382 164.52C473.958 164.216 474.438 163.736 474.822 163.08C475.206 162.424 475.502 161.576 475.71 160.536L477.582 151.2H481.398L479.502 160.776C479.006 163.256 478.038 165.128 476.598 166.392C475.158 167.656 473.262 168.288 470.91 168.288ZM481.904 168L485.264 151.2H492.104C494.2 151.2 495.816 151.656 496.952 152.568C498.104 153.48 498.68 154.76 498.68 156.408C498.68 157.816 498.344 159.04 497.672 160.08C497.016 161.104 496.072 161.896 494.84 162.456C493.624 163.016 492.184 163.296 490.52 163.296H485.048L487.088 161.592L485.816 168H481.904ZM492.704 168L489.272 161.904H493.352L496.808 168H492.704ZM486.992 162.048L485.648 160.2H490.664C491.96 160.2 492.96 159.912 493.664 159.336C494.384 158.744 494.744 157.888 494.744 156.768C494.744 155.952 494.464 155.352 493.904 154.968C493.36 154.568 492.592 154.368 491.6 154.368H486.872L488.912 152.472L486.992 162.048ZM505.145 157.968H513.233L512.633 160.992H504.545L505.145 157.968ZM504.041 164.88H513.209L512.561 168H499.553L502.913 151.2H515.609L514.961 154.32H506.153L504.041 164.88ZM514.55 168L515.054 165.48L527.822 152.952L528.158 154.368H517.526L518.174 151.2H532.286L531.782 153.72L519.038 166.248L518.702 164.832H529.886L529.238 168H514.55ZM677.436 168.288C676.524 168.288 675.636 168.2 674.772 168.024C673.924 167.864 673.148 167.64 672.444 167.352C671.756 167.064 671.172 166.752 670.692 166.416L672.276 163.416C672.804 163.784 673.364 164.104 673.956 164.376C674.564 164.632 675.196 164.832 675.852 164.976C676.508 165.104 677.164 165.168 677.82 165.168C678.54 165.168 679.156 165.088 679.668 164.928C680.196 164.768 680.596 164.544 680.868 164.256C681.156 163.968 681.3 163.616 681.3 163.2C681.3 162.816 681.148 162.504 680.844 162.264C680.54 162.024 680.14 161.824 679.644 161.664C679.164 161.488 678.628 161.32 678.036 161.16C677.444 161 676.844 160.816 676.236 160.608C675.644 160.384 675.1 160.112 674.604 159.792C674.124 159.456 673.732 159.032 673.428 158.52C673.124 158.008 672.972 157.368 672.972 156.6C672.972 155.448 673.284 154.448 673.908 153.6C674.548 152.752 675.444 152.096 676.596 151.632C677.748 151.152 679.1 150.912 680.652 150.912C681.788 150.912 682.86 151.04 683.868 151.296C684.876 151.536 685.74 151.888 686.46 152.352L684.996 155.328C684.356 154.896 683.644 154.576 682.86 154.368C682.076 154.144 681.268 154.032 680.436 154.032C679.684 154.032 679.036 154.12 678.492 154.296C677.964 154.472 677.556 154.72 677.268 155.04C676.996 155.344 676.86 155.696 676.86 156.096C676.86 156.496 677.004 156.824 677.292 157.08C677.596 157.32 677.996 157.528 678.492 157.704C678.988 157.864 679.532 158.024 680.124 158.184C680.716 158.344 681.308 158.528 681.9 158.736C682.492 158.944 683.036 159.208 683.532 159.528C684.028 159.848 684.428 160.256 684.732 160.752C685.036 161.232 685.188 161.84 685.188 162.576C685.188 163.728 684.868 164.736 684.228 165.6C683.588 166.448 682.684 167.112 681.516 167.592C680.364 168.056 679.004 168.288 677.436 168.288ZM690.13 168L692.842 154.368H687.466L688.114 151.2H702.754L702.106 154.368H696.754L694.018 168H690.13ZM709.964 168.288C708.268 168.288 706.804 167.984 705.572 167.376C704.356 166.752 703.42 165.896 702.764 164.808C702.108 163.704 701.78 162.432 701.78 160.992C701.78 159.552 702.028 158.224 702.524 157.008C703.02 155.776 703.724 154.712 704.636 153.816C705.564 152.904 706.66 152.192 707.924 151.68C709.204 151.168 710.62 150.912 712.172 150.912C713.868 150.912 715.324 151.224 716.54 151.848C717.772 152.456 718.716 153.312 719.372 154.416C720.028 155.504 720.356 156.768 720.356 158.208C720.356 159.648 720.108 160.984 719.612 162.216C719.116 163.432 718.404 164.496 717.476 165.408C716.564 166.304 715.468 167.008 714.188 167.52C712.924 168.032 711.516 168.288 709.964 168.288ZM710.3 164.976C711.244 164.976 712.092 164.808 712.844 164.472C713.612 164.12 714.26 163.64 714.788 163.032C715.316 162.424 715.716 161.728 715.988 160.944C716.276 160.144 716.42 159.304 716.42 158.424C716.42 157.592 716.244 156.864 715.892 156.24C715.54 155.6 715.02 155.104 714.332 154.752C713.66 154.4 712.828 154.224 711.836 154.224C710.892 154.224 710.044 154.4 709.292 154.752C708.54 155.088 707.892 155.56 707.348 156.168C706.82 156.776 706.412 157.48 706.124 158.28C705.852 159.064 705.716 159.896 705.716 160.776C705.716 161.608 705.892 162.344 706.244 162.984C706.612 163.608 707.132 164.096 707.804 164.448C708.492 164.8 709.324 164.976 710.3 164.976ZM730.334 168.288C728.622 168.288 727.142 167.984 725.894 167.376C724.662 166.752 723.71 165.896 723.038 164.808C722.366 163.704 722.03 162.432 722.03 160.992C722.03 159.568 722.278 158.24 722.774 157.008C723.286 155.776 723.998 154.712 724.91 153.816C725.838 152.904 726.934 152.192 728.198 151.68C729.478 151.168 730.902 150.912 732.47 150.912C733.974 150.912 735.302 151.168 736.454 151.68C737.606 152.192 738.478 152.928 739.07 153.888L736.262 156.192C735.83 155.552 735.278 155.064 734.606 154.728C733.934 154.392 733.134 154.224 732.206 154.224C731.262 154.224 730.406 154.392 729.638 154.728C728.87 155.048 728.206 155.512 727.646 156.12C727.102 156.712 726.686 157.408 726.398 158.208C726.11 159.008 725.966 159.856 725.966 160.752C725.966 161.6 726.15 162.344 726.518 162.984C726.886 163.608 727.422 164.096 728.126 164.448C728.83 164.8 729.678 164.976 730.67 164.976C731.534 164.976 732.342 164.824 733.094 164.52C733.846 164.2 734.526 163.704 735.134 163.032L737.438 165.384C736.558 166.408 735.51 167.152 734.294 167.616C733.094 168.064 731.774 168.288 730.334 168.288ZM743.423 164.16L743.951 159.648L753.503 151.2H758.207L749.351 159L746.783 161.184L743.423 164.16ZM739.103 168L742.463 151.2H746.327L742.967 168H739.103ZM750.839 168L746.039 160.68L748.799 158.064L755.207 168H750.839ZM762.461 157.968H770.549L769.949 160.992H761.861L762.461 157.968ZM761.357 164.88H770.525L769.877 168H756.869L760.229 151.2H772.925L772.277 154.32H763.469L761.357 164.88ZM771.867 168L772.371 165.48L785.139 152.952L785.475 154.368H774.843L775.491 151.2H789.603L789.099 153.72L776.355 166.248L776.019 164.832H787.203L786.555 168H771.867ZM410.918 202.288C409.222 202.288 407.75 201.984 406.502 201.376C405.27 200.752 404.31 199.896 403.622 198.808C402.95 197.704 402.614 196.432 402.614 194.992C402.614 193.568 402.862 192.24 403.358 191.008C403.87 189.776 404.59 188.712 405.518 187.816C406.446 186.904 407.558 186.192 408.854 185.68C410.15 185.168 411.59 184.912 413.174 184.912C414.774 184.912 416.158 185.168 417.326 185.68C418.51 186.176 419.462 186.896 420.182 187.84L417.398 190.096C416.838 189.424 416.198 188.944 415.478 188.656C414.774 188.368 413.95 188.224 413.006 188.224C412.014 188.224 411.118 188.392 410.318 188.728C409.534 189.048 408.862 189.504 408.302 190.096C407.742 190.688 407.31 191.384 407.006 192.184C406.702 192.968 406.55 193.824 406.55 194.752C406.55 195.6 406.734 196.344 407.102 196.984C407.47 197.608 408.014 198.096 408.734 198.448C409.47 198.8 410.366 198.976 411.422 198.976C412.222 198.976 412.99 198.84 413.726 198.568C414.462 198.296 415.174 197.872 415.862 197.296L417.35 200.248C416.502 200.904 415.518 201.408 414.398 201.76C413.294 202.112 412.134 202.288 410.918 202.288ZM413.942 199.648L415.19 193.336H418.742L417.35 200.248L413.942 199.648ZM418.393 202L429.241 185.2H433.105L437.233 202H433.345L430.081 187.12H431.617L422.545 202H418.393ZM422.881 198.4L424.465 195.448H433.129L433.585 198.4H422.881ZM438.976 202L442.336 185.2H449.176C451.272 185.2 452.888 185.656 454.024 186.568C455.176 187.48 455.752 188.76 455.752 190.408C455.752 191.816 455.416 193.04 454.744 194.08C454.088 195.104 453.144 195.896 451.912 196.456C450.696 197.016 449.256 197.296 447.592 197.296H442.12L444.16 195.592L442.888 202H438.976ZM449.776 202L446.344 195.904H450.424L453.88 202H449.776ZM444.064 196.048L442.72 194.2H447.736C449.032 194.2 450.032 193.912 450.736 193.336C451.456 192.744 451.816 191.888 451.816 190.768C451.816 189.952 451.536 189.352 450.976 188.968C450.432 188.568 449.664 188.368 448.672 188.368H443.944L445.984 186.472L444.064 196.048ZM456.625 202L459.985 185.2H466.825C468.921 185.2 470.537 185.656 471.673 186.568C472.825 187.48 473.401 188.76 473.401 190.408C473.401 191.816 473.065 193.04 472.393 194.08C471.737 195.104 470.793 195.896 469.561 196.456C468.345 197.016 466.905 197.296 465.241 197.296H459.769L461.809 195.592L460.537 202H456.625ZM467.425 202L463.993 195.904H468.073L471.529 202H467.425ZM461.713 196.048L460.369 194.2H465.385C466.681 194.2 467.681 193.912 468.385 193.336C469.105 192.744 469.465 191.888 469.465 190.768C469.465 189.952 469.185 189.352 468.625 188.968C468.081 188.568 467.313 188.368 466.321 188.368H461.593L463.633 186.472L461.713 196.048ZM472.065 202L482.913 185.2H486.777L490.905 202H487.017L483.753 187.12H485.289L476.217 202H472.065ZM476.553 198.4L478.137 195.448H486.801L487.257 198.4H476.553ZM492.648 202L496.008 185.2H499.224L506.448 197.368L505.176 197.296L507.576 185.2H511.416L508.056 202H504.864L497.616 189.832L498.912 189.904L496.488 202H492.648ZM515.511 202L518.223 188.368H512.847L513.495 185.2H528.135L527.487 188.368H522.135L519.399 202H515.511ZM526.867 202L530.227 185.2H534.139L530.779 202H526.867ZM540.598 202.288C539.686 202.288 538.798 202.2 537.934 202.024C537.086 201.864 536.31 201.64 535.606 201.352C534.918 201.064 534.334 200.752 533.854 200.416L535.438 197.416C535.966 197.784 536.526 198.104 537.118 198.376C537.726 198.632 538.358 198.832 539.014 198.976C539.67 199.104 540.326 199.168 540.982 199.168C541.702 199.168 542.318 199.088 542.83 198.928C543.358 198.768 543.758 198.544 544.03 198.256C544.318 197.968 544.462 197.616 544.462 197.2C544.462 196.816 544.31 196.504 544.006 196.264C543.702 196.024 543.302 195.824 542.806 195.664C542.326 195.488 541.79 195.32 541.198 195.16C540.606 195 540.006 194.816 539.398 194.608C538.806 194.384 538.262 194.112 537.766 193.792C537.286 193.456 536.894 193.032 536.59 192.52C536.286 192.008 536.134 191.368 536.134 190.6C536.134 189.448 536.446 188.448 537.07 187.6C537.71 186.752 538.606 186.096 539.758 185.632C540.91 185.152 542.262 184.912 543.814 184.912C544.95 184.912 546.022 185.04 547.03 185.296C548.038 185.536 548.902 185.888 549.622 186.352L548.158 189.328C547.518 188.896 546.806 188.576 546.022 188.368C545.238 188.144 544.43 188.032 543.598 188.032C542.846 188.032 542.198 188.12 541.654 188.296C541.126 188.472 540.718 188.72 540.43 189.04C540.158 189.344 540.022 189.696 540.022 190.096C540.022 190.496 540.166 190.824 540.454 191.08C540.758 191.32 541.158 191.528 541.654 191.704C542.15 191.864 542.694 192.024 543.286 192.184C543.878 192.344 544.47 192.528 545.062 192.736C545.654 192.944 546.198 193.208 546.694 193.528C547.19 193.848 547.59 194.256 547.894 194.752C548.198 195.232 548.35 195.84 548.35 196.576C548.35 197.728 548.03 198.736 547.39 199.6C546.75 200.448 545.846 201.112 544.678 201.592C543.526 202.056 542.166 202.288 540.598 202.288ZM555.903 202.288C554.991 202.288 554.103 202.2 553.239 202.024C552.391 201.864 551.615 201.64 550.911 201.352C550.223 201.064 549.639 200.752 549.159 200.416L550.743 197.416C551.271 197.784 551.831 198.104 552.423 198.376C553.031 198.632 553.663 198.832 554.319 198.976C554.975 199.104 555.631 199.168 556.287 199.168C557.007 199.168 557.623 199.088 558.135 198.928C558.663 198.768 559.063 198.544 559.335 198.256C559.623 197.968 559.767 197.616 559.767 197.2C559.767 196.816 559.615 196.504 559.311 196.264C559.007 196.024 558.607 195.824 558.111 195.664C557.631 195.488 557.095 195.32 556.503 195.16C555.911 195 555.311 194.816 554.703 194.608C554.111 194.384 553.567 194.112 553.071 193.792C552.591 193.456 552.199 193.032 551.895 192.52C551.591 192.008 551.439 191.368 551.439 190.6C551.439 189.448 551.751 188.448 552.375 187.6C553.015 186.752 553.911 186.096 555.063 185.632C556.215 185.152 557.567 184.912 559.119 184.912C560.255 184.912 561.327 185.04 562.335 185.296C563.343 185.536 564.207 185.888 564.927 186.352L563.463 189.328C562.823 188.896 562.111 188.576 561.327 188.368C560.543 188.144 559.735 188.032 558.903 188.032C558.151 188.032 557.503 188.12 556.959 188.296C556.431 188.472 556.023 188.72 555.735 189.04C555.463 189.344 555.327 189.696 555.327 190.096C555.327 190.496 555.471 190.824 555.759 191.08C556.063 191.32 556.463 191.528 556.959 191.704C557.455 191.864 557.999 192.024 558.591 192.184C559.183 192.344 559.775 192.528 560.367 192.736C560.959 192.944 561.503 193.208 561.999 193.528C562.495 193.848 562.895 194.256 563.199 194.752C563.503 195.232 563.655 195.84 563.655 196.576C563.655 197.728 563.335 198.736 562.695 199.6C562.055 200.448 561.151 201.112 559.983 201.592C558.831 202.056 557.471 202.288 555.903 202.288ZM570.943 191.968H579.031L578.431 194.992H570.343L570.943 191.968ZM569.839 198.88H579.007L578.359 202H565.351L568.711 185.2H581.407L580.759 188.32H571.951L569.839 198.88ZM580.349 202L580.853 199.48L593.621 186.952L593.957 188.368H583.325L583.973 185.2H598.085L597.581 187.72L584.837 200.248L584.501 198.832H595.685L595.037 202H580.349Z" fill="#F5E48C"/>
<path d="M539.954 168L537.354 157.5H538.774L541.134 167.24H540.454L546.694 157.5H548.174L541.394 168H539.954ZM552.461 168.1C551.488 168.1 550.641 167.92 549.921 167.56C549.214 167.186 548.661 166.666 548.261 166C547.874 165.333 547.681 164.546 547.681 163.64C547.681 162.44 547.941 161.373 548.461 160.44C548.981 159.493 549.701 158.753 550.621 158.22C551.541 157.673 552.588 157.4 553.761 157.4C554.734 157.4 555.574 157.58 556.281 157.94C557.001 158.3 557.554 158.813 557.941 159.48C558.341 160.146 558.541 160.933 558.541 161.84C558.541 163.04 558.281 164.113 557.761 165.06C557.241 165.993 556.521 166.733 555.601 167.28C554.694 167.826 553.648 168.1 552.461 168.1ZM552.561 166.84C553.441 166.84 554.221 166.633 554.901 166.22C555.594 165.793 556.134 165.206 556.521 164.46C556.921 163.713 557.121 162.866 557.121 161.92C557.121 160.88 556.814 160.073 556.201 159.5C555.601 158.926 554.754 158.64 553.661 158.64C552.794 158.64 552.014 158.853 551.321 159.28C550.628 159.706 550.081 160.293 549.681 161.04C549.294 161.773 549.101 162.62 549.101 163.58C549.101 164.606 549.401 165.406 550.001 165.98C550.614 166.553 551.468 166.84 552.561 166.84ZM563.38 168.1C562.527 168.1 561.72 167.98 560.96 167.74C560.2 167.5 559.613 167.193 559.2 166.82L559.88 165.7C560.28 166.06 560.807 166.346 561.46 166.56C562.113 166.76 562.8 166.86 563.52 166.86C564.52 166.86 565.287 166.693 565.82 166.36C566.367 166.026 566.64 165.566 566.64 164.98C566.64 164.58 566.493 164.28 566.2 164.08C565.92 163.866 565.553 163.706 565.1 163.6C564.647 163.48 564.167 163.366 563.66 163.26C563.153 163.153 562.673 163.02 562.22 162.86C561.767 162.686 561.393 162.426 561.1 162.08C560.82 161.733 560.68 161.266 560.68 160.68C560.68 160.013 560.867 159.433 561.24 158.94C561.627 158.446 562.16 158.066 562.84 157.8C563.52 157.533 564.32 157.4 565.24 157.4C565.907 157.4 566.567 157.486 567.22 157.66C567.873 157.833 568.4 158.073 568.8 158.38L568.2 159.52C567.787 159.2 567.307 158.973 566.76 158.84C566.213 158.693 565.667 158.62 565.12 158.62C564.147 158.62 563.393 158.8 562.86 159.16C562.34 159.506 562.08 159.966 562.08 160.54C562.08 160.94 562.22 161.246 562.5 161.46C562.793 161.673 563.167 161.84 563.62 161.96C564.073 162.08 564.553 162.193 565.06 162.3C565.58 162.393 566.06 162.526 566.5 162.7C566.953 162.873 567.32 163.126 567.6 163.46C567.893 163.78 568.04 164.233 568.04 164.82C568.04 165.513 567.847 166.106 567.46 166.6C567.073 167.08 566.527 167.453 565.82 167.72C565.127 167.973 564.313 168.1 563.38 168.1ZM579.8 168.1C578.907 168.1 578.113 167.92 577.42 167.56C576.727 167.2 576.187 166.686 575.8 166.02C575.413 165.353 575.22 164.56 575.22 163.64C575.22 162.746 575.367 161.92 575.66 161.16C575.953 160.4 576.367 159.74 576.9 159.18C577.433 158.606 578.06 158.166 578.78 157.86C579.513 157.553 580.307 157.4 581.16 157.4C582.08 157.4 582.86 157.566 583.5 157.9C584.14 158.22 584.633 158.693 584.98 159.32C585.327 159.933 585.5 160.68 585.5 161.56C585.5 162.506 585.367 163.38 585.1 164.18C584.847 164.98 584.467 165.673 583.96 166.26C583.453 166.846 582.847 167.3 582.14 167.62C581.447 167.94 580.667 168.1 579.8 168.1ZM580.1 166.84C580.98 166.84 581.76 166.633 582.44 166.22C583.133 165.793 583.673 165.206 584.06 164.46C584.46 163.713 584.66 162.866 584.66 161.92C584.66 160.88 584.353 160.073 583.74 159.5C583.14 158.926 582.293 158.64 581.2 158.64C580.333 158.64 579.553 158.853 578.86 159.28C578.167 159.706 577.62 160.293 577.22 161.04C576.833 161.773 576.64 162.62 576.64 163.58C576.64 164.606 576.94 165.406 577.54 165.98C578.153 166.553 579.007 166.84 580.1 166.84ZM583.56 168L584.16 164.98L584.76 162.86L584.96 160.66L586.46 153.16H587.88L584.92 168H583.56ZM593.555 168.1C592.581 168.1 591.735 167.92 591.015 167.56C590.308 167.186 589.755 166.666 589.355 166C588.968 165.333 588.775 164.546 588.775 163.64C588.775 162.44 589.035 161.373 589.555 160.44C590.075 159.493 590.795 158.753 591.715 158.22C592.635 157.673 593.681 157.4 594.855 157.4C595.828 157.4 596.668 157.58 597.375 157.94C598.095 158.3 598.648 158.813 599.035 159.48C599.435 160.146 599.635 160.933 599.635 161.84C599.635 163.04 599.375 164.113 598.855 165.06C598.335 165.993 597.615 166.733 596.695 167.28C595.788 167.826 594.741 168.1 593.555 168.1ZM593.655 166.84C594.535 166.84 595.315 166.633 595.995 166.22C596.688 165.793 597.228 165.206 597.615 164.46C598.015 163.713 598.215 162.866 598.215 161.92C598.215 160.88 597.908 160.073 597.295 159.5C596.695 158.926 595.848 158.64 594.755 158.64C593.888 158.64 593.108 158.853 592.415 159.28C591.721 159.706 591.175 160.293 590.775 161.04C590.388 161.773 590.195 162.62 590.195 163.58C590.195 164.606 590.495 165.406 591.095 165.98C591.708 166.553 592.561 166.84 593.655 166.84ZM608.634 157.4C609.58 157.4 610.354 157.586 610.954 157.96C611.567 158.32 611.987 158.846 612.214 159.54C612.454 160.233 612.474 161.06 612.274 162.02L611.074 168H609.654L610.854 162C611.067 160.96 610.954 160.146 610.514 159.56C610.087 158.973 609.327 158.68 608.234 158.68C607.114 158.68 606.18 158.986 605.434 159.6C604.7 160.213 604.207 161.133 603.954 162.36L602.834 168H601.414L603.494 157.5H604.854L604.254 160.52L603.954 160C604.46 159.093 605.114 158.433 605.914 158.02C606.727 157.606 607.634 157.4 608.634 157.4ZM622.149 157.4C623.096 157.4 623.869 157.586 624.469 157.96C625.083 158.32 625.503 158.846 625.729 159.54C625.969 160.233 625.989 161.06 625.789 162.02L624.589 168H623.169L624.369 162C624.583 160.96 624.469 160.146 624.029 159.56C623.603 158.973 622.843 158.68 621.749 158.68C620.629 158.68 619.696 158.986 618.949 159.6C618.216 160.213 617.723 161.133 617.469 162.36L616.349 168H614.929L617.009 157.5H618.369L617.769 160.52L617.469 160C617.976 159.093 618.629 158.433 619.429 158.02C620.243 157.606 621.149 157.4 622.149 157.4ZM633.245 168.1C632.245 168.1 631.372 167.92 630.625 167.56C629.892 167.186 629.325 166.666 628.925 166C628.538 165.333 628.345 164.54 628.345 163.62C628.345 162.42 628.598 161.353 629.105 160.42C629.612 159.486 630.305 158.753 631.185 158.22C632.065 157.673 633.058 157.4 634.165 157.4C635.098 157.4 635.905 157.58 636.585 157.94C637.265 158.286 637.792 158.793 638.165 159.46C638.552 160.126 638.745 160.926 638.745 161.86C638.745 162.073 638.732 162.293 638.705 162.52C638.678 162.733 638.645 162.94 638.605 163.14H629.385L629.565 162.08H637.945L637.365 162.48C637.498 161.64 637.438 160.933 637.185 160.36C636.932 159.786 636.538 159.353 636.005 159.06C635.485 158.753 634.858 158.6 634.125 158.6C633.272 158.6 632.512 158.813 631.845 159.24C631.178 159.653 630.658 160.233 630.285 160.98C629.912 161.713 629.725 162.573 629.725 163.56C629.725 164.613 630.025 165.426 630.625 166C631.238 166.56 632.152 166.84 633.365 166.84C634.072 166.84 634.725 166.726 635.325 166.5C635.925 166.26 636.418 165.933 636.805 165.52L637.445 166.54C636.952 167.033 636.332 167.42 635.585 167.7C634.852 167.966 634.072 168.1 633.245 168.1ZM633.445 155.88L636.485 153.4H638.425L634.925 155.88H633.445ZM645.315 168.1C644.315 168.1 643.442 167.92 642.695 167.56C641.962 167.186 641.395 166.666 640.995 166C640.609 165.333 640.415 164.54 640.415 163.62C640.415 162.42 640.669 161.353 641.175 160.42C641.682 159.486 642.375 158.753 643.255 158.22C644.135 157.673 645.129 157.4 646.235 157.4C647.169 157.4 647.975 157.58 648.655 157.94C649.335 158.286 649.862 158.793 650.235 159.46C650.622 160.126 650.815 160.926 650.815 161.86C650.815 162.073 650.802 162.293 650.775 162.52C650.749 162.733 650.715 162.94 650.675 163.14H641.455L641.635 162.08H650.015L649.435 162.48C649.569 161.64 649.509 160.933 649.255 160.36C649.002 159.786 648.609 159.353 648.075 159.06C647.555 158.753 646.929 158.6 646.195 158.6C645.342 158.6 644.582 158.813 643.915 159.24C643.249 159.653 642.729 160.233 642.355 160.98C641.982 161.713 641.795 162.573 641.795 163.56C641.795 164.613 642.095 165.426 642.695 166C643.309 166.56 644.222 166.84 645.435 166.84C646.142 166.84 646.795 166.726 647.395 166.5C647.995 166.26 648.489 165.933 648.875 165.52L649.515 166.54C649.022 167.033 648.402 167.42 647.655 167.7C646.922 167.966 646.142 168.1 645.315 168.1ZM655.646 168.1C654.792 168.1 653.986 167.98 653.226 167.74C652.466 167.5 651.879 167.193 651.466 166.82L652.146 165.7C652.546 166.06 653.072 166.346 653.726 166.56C654.379 166.76 655.066 166.86 655.786 166.86C656.786 166.86 657.552 166.693 658.086 166.36C658.632 166.026 658.906 165.566 658.906 164.98C658.906 164.58 658.759 164.28 658.466 164.08C658.186 163.866 657.819 163.706 657.366 163.6C656.912 163.48 656.432 163.366 655.926 163.26C655.419 163.153 654.939 163.02 654.486 162.86C654.032 162.686 653.659 162.426 653.366 162.08C653.086 161.733 652.946 161.266 652.946 160.68C652.946 160.013 653.132 159.433 653.506 158.94C653.892 158.446 654.426 158.066 655.106 157.8C655.786 157.533 656.586 157.4 657.506 157.4C658.172 157.4 658.832 157.486 659.486 157.66C660.139 157.833 660.666 158.073 661.066 158.38L660.466 159.52C660.052 159.2 659.572 158.973 659.026 158.84C658.479 158.693 657.932 158.62 657.386 158.62C656.412 158.62 655.659 158.8 655.126 159.16C654.606 159.506 654.346 159.966 654.346 160.54C654.346 160.94 654.486 161.246 654.766 161.46C655.059 161.673 655.432 161.84 655.886 161.96C656.339 162.08 656.819 162.193 657.326 162.3C657.846 162.393 658.326 162.526 658.766 162.7C659.219 162.873 659.586 163.126 659.866 163.46C660.159 163.78 660.306 164.233 660.306 164.82C660.306 165.513 660.112 166.106 659.726 166.6C659.339 167.08 658.792 167.453 658.086 167.72C657.392 167.973 656.579 168.1 655.646 168.1ZM660.891 170.92L662.511 167.22L662.651 168.1C662.358 168.1 662.111 168 661.911 167.8C661.711 167.6 661.611 167.353 661.611 167.06C661.611 166.726 661.725 166.453 661.951 166.24C662.178 166.026 662.438 165.92 662.731 165.92C663.025 165.92 663.265 166.02 663.451 166.22C663.651 166.406 663.751 166.653 663.751 166.96C663.751 167.133 663.718 167.3 663.651 167.46C663.598 167.606 663.505 167.793 663.371 168.02L661.851 170.92H660.891ZM794.55 168L797.51 153.16H798.93L795.97 168H794.55ZM804.722 168.1C803.722 168.1 802.848 167.92 802.102 167.56C801.368 167.186 800.802 166.666 800.402 166C800.015 165.333 799.822 164.54 799.822 163.62C799.822 162.42 800.075 161.353 800.582 160.42C801.088 159.486 801.782 158.753 802.662 158.22C803.542 157.673 804.535 157.4 805.642 157.4C806.575 157.4 807.382 157.58 808.062 157.94C808.742 158.286 809.268 158.793 809.642 159.46C810.028 160.126 810.222 160.926 810.222 161.86C810.222 162.073 810.208 162.293 810.182 162.52C810.155 162.733 810.122 162.94 810.082 163.14H800.862L801.042 162.08H809.422L808.842 162.48C808.975 161.64 808.915 160.933 808.662 160.36C808.408 159.786 808.015 159.353 807.482 159.06C806.962 158.753 806.335 158.6 805.602 158.6C804.748 158.6 803.988 158.813 803.322 159.24C802.655 159.653 802.135 160.233 801.762 160.98C801.388 161.713 801.202 162.573 801.202 163.56C801.202 164.613 801.502 165.426 802.102 166C802.715 166.56 803.628 166.84 804.842 166.84C805.548 166.84 806.202 166.726 806.802 166.5C807.402 166.26 807.895 165.933 808.282 165.52L808.922 166.54C808.428 167.033 807.808 167.42 807.062 167.7C806.328 167.966 805.548 168.1 804.722 168.1ZM815.052 168.1C814.199 168.1 813.392 167.98 812.632 167.74C811.872 167.5 811.285 167.193 810.872 166.82L811.552 165.7C811.952 166.06 812.479 166.346 813.132 166.56C813.785 166.76 814.472 166.86 815.192 166.86C816.192 166.86 816.959 166.693 817.492 166.36C818.039 166.026 818.312 165.566 818.312 164.98C818.312 164.58 818.165 164.28 817.872 164.08C817.592 163.866 817.225 163.706 816.772 163.6C816.319 163.48 815.839 163.366 815.332 163.26C814.825 163.153 814.345 163.02 813.892 162.86C813.439 162.686 813.065 162.426 812.772 162.08C812.492 161.733 812.352 161.266 812.352 160.68C812.352 160.013 812.539 159.433 812.912 158.94C813.299 158.446 813.832 158.066 814.512 157.8C815.192 157.533 815.992 157.4 816.912 157.4C817.579 157.4 818.239 157.486 818.892 157.66C819.545 157.833 820.072 158.073 820.472 158.38L819.872 159.52C819.459 159.2 818.979 158.973 818.432 158.84C817.885 158.693 817.339 158.62 816.792 158.62C815.819 158.62 815.065 158.8 814.532 159.16C814.012 159.506 813.752 159.966 813.752 160.54C813.752 160.94 813.892 161.246 814.172 161.46C814.465 161.673 814.839 161.84 815.292 161.96C815.745 162.08 816.225 162.193 816.732 162.3C817.252 162.393 817.732 162.526 818.172 162.7C818.625 162.873 818.992 163.126 819.272 163.46C819.565 163.78 819.712 164.233 819.712 164.82C819.712 165.513 819.519 166.106 819.132 166.6C818.745 167.08 818.199 167.453 817.492 167.72C816.799 167.973 815.985 168.1 815.052 168.1ZM381.7 202.1C380.7 202.1 379.827 201.92 379.08 201.56C378.347 201.186 377.78 200.666 377.38 200C376.993 199.333 376.8 198.54 376.8 197.62C376.8 196.42 377.053 195.353 377.56 194.42C378.067 193.486 378.76 192.753 379.64 192.22C380.52 191.673 381.513 191.4 382.62 191.4C383.553 191.4 384.36 191.58 385.04 191.94C385.72 192.286 386.247 192.793 386.62 193.46C387.007 194.126 387.2 194.926 387.2 195.86C387.2 196.073 387.187 196.293 387.16 196.52C387.133 196.733 387.1 196.94 387.06 197.14H377.84L378.02 196.08H386.4L385.82 196.48C385.953 195.64 385.893 194.933 385.64 194.36C385.387 193.786 384.993 193.353 384.46 193.06C383.94 192.753 383.313 192.6 382.58 192.6C381.727 192.6 380.967 192.813 380.3 193.24C379.633 193.653 379.113 194.233 378.74 194.98C378.367 195.713 378.18 196.573 378.18 197.56C378.18 198.613 378.48 199.426 379.08 200C379.693 200.56 380.607 200.84 381.82 200.84C382.527 200.84 383.18 200.726 383.78 200.5C384.38 200.26 384.873 199.933 385.26 199.52L385.9 200.54C385.407 201.033 384.787 201.42 384.04 201.7C383.307 201.966 382.527 202.1 381.7 202.1ZM392.31 202.1C391.71 202.1 391.197 201.973 390.77 201.72C390.344 201.453 390.044 201.08 389.87 200.6C389.71 200.12 389.697 199.546 389.83 198.88L391.75 189.18H393.17L391.25 198.82C391.117 199.473 391.164 199.98 391.39 200.34C391.63 200.7 392.064 200.88 392.69 200.88C392.984 200.88 393.27 200.84 393.55 200.76C393.83 200.666 394.084 200.526 394.31 200.34L394.65 201.42C394.317 201.673 393.944 201.853 393.53 201.96C393.117 202.053 392.71 202.1 392.31 202.1ZM389.19 192.68L389.41 191.5H395.91L395.67 192.68H389.19ZM603.033 202L605.993 187.16H607.413L604.453 202H603.033ZM613.204 202.1C612.204 202.1 611.331 201.92 610.584 201.56C609.851 201.186 609.284 200.666 608.884 200C608.497 199.333 608.304 198.54 608.304 197.62C608.304 196.42 608.557 195.353 609.064 194.42C609.571 193.486 610.264 192.753 611.144 192.22C612.024 191.673 613.017 191.4 614.124 191.4C615.057 191.4 615.864 191.58 616.544 191.94C617.224 192.286 617.751 192.793 618.124 193.46C618.511 194.126 618.704 194.926 618.704 195.86C618.704 196.073 618.691 196.293 618.664 196.52C618.637 196.733 618.604 196.94 618.564 197.14H609.344L609.524 196.08H617.904L617.324 196.48C617.457 195.64 617.397 194.933 617.144 194.36C616.891 193.786 616.497 193.353 615.964 193.06C615.444 192.753 614.817 192.6 614.084 192.6C613.231 192.6 612.471 192.813 611.804 193.24C611.137 193.653 610.617 194.233 610.244 194.98C609.871 195.713 609.684 196.573 609.684 197.56C609.684 198.613 609.984 199.426 610.584 200C611.197 200.56 612.111 200.84 613.324 200.84C614.031 200.84 614.684 200.726 615.284 200.5C615.884 200.26 616.377 199.933 616.764 199.52L617.404 200.54C616.911 201.033 616.291 201.42 615.544 201.7C614.811 201.966 614.031 202.1 613.204 202.1ZM624.874 202.1C623.954 202.1 623.188 201.913 622.574 201.54C621.974 201.166 621.561 200.633 621.334 199.94C621.108 199.246 621.081 198.426 621.254 197.48L622.454 191.5H623.874L622.674 197.48C622.474 198.52 622.588 199.34 623.014 199.94C623.441 200.526 624.188 200.82 625.254 200.82C626.361 200.82 627.281 200.513 628.014 199.9C628.761 199.286 629.261 198.366 629.514 197.14L630.634 191.5H632.054L629.954 202H628.594L629.194 198.98L629.494 199.48C629.001 200.386 628.348 201.053 627.534 201.48C626.734 201.893 625.848 202.1 624.874 202.1ZM633.912 202L635.992 191.5H637.352L636.752 194.6L636.592 194.06C637.058 193.14 637.672 192.466 638.432 192.04C639.205 191.613 640.165 191.4 641.312 191.4L641.052 192.78C640.985 192.78 640.918 192.78 640.852 192.78C640.798 192.766 640.732 192.76 640.652 192.76C639.532 192.76 638.605 193.086 637.872 193.74C637.152 194.38 636.658 195.353 636.392 196.66L635.332 202H633.912ZM647.174 202L649.254 191.5H650.674L648.594 202H647.174ZM650.574 189.18C650.294 189.18 650.06 189.086 649.874 188.9C649.7 188.713 649.614 188.493 649.614 188.24C649.614 187.946 649.714 187.693 649.914 187.48C650.127 187.266 650.394 187.16 650.714 187.16C650.994 187.16 651.227 187.246 651.414 187.42C651.6 187.593 651.694 187.813 651.694 188.08C651.694 188.4 651.587 188.666 651.374 188.88C651.16 189.08 650.894 189.18 650.574 189.18ZM659.765 191.4C660.711 191.4 661.485 191.586 662.085 191.96C662.698 192.32 663.118 192.846 663.345 193.54C663.585 194.233 663.605 195.06 663.405 196.02L662.205 202H660.785L661.985 196C662.198 194.96 662.085 194.146 661.645 193.56C661.218 192.973 660.458 192.68 659.365 192.68C658.245 192.68 657.311 192.986 656.565 193.6C655.831 194.213 655.338 195.133 655.085 196.36L653.965 202H652.545L654.625 191.5H655.985L655.385 194.52L655.085 194C655.591 193.093 656.245 192.433 657.045 192.02C657.858 191.606 658.765 191.4 659.765 191.4ZM669.4 202.1C668.8 202.1 668.287 201.973 667.86 201.72C667.434 201.453 667.134 201.08 666.96 200.6C666.8 200.12 666.787 199.546 666.92 198.88L668.84 189.18H670.26L668.34 198.82C668.207 199.473 668.254 199.98 668.48 200.34C668.72 200.7 669.154 200.88 669.78 200.88C670.074 200.88 670.36 200.84 670.64 200.76C670.92 200.666 671.174 200.526 671.4 200.34L671.74 201.42C671.407 201.673 671.034 201.853 670.62 201.96C670.207 202.053 669.8 202.1 669.4 202.1ZM666.28 192.68L666.5 191.5H673L672.76 192.68H666.28ZM678.614 202.1C677.614 202.1 676.741 201.92 675.994 201.56C675.261 201.186 674.694 200.666 674.294 200C673.907 199.333 673.714 198.54 673.714 197.62C673.714 196.42 673.967 195.353 674.474 194.42C674.981 193.486 675.674 192.753 676.554 192.22C677.434 191.673 678.427 191.4 679.534 191.4C680.467 191.4 681.274 191.58 681.954 191.94C682.634 192.286 683.161 192.793 683.534 193.46C683.921 194.126 684.114 194.926 684.114 195.86C684.114 196.073 684.101 196.293 684.074 196.52C684.047 196.733 684.014 196.94 683.974 197.14H674.754L674.934 196.08H683.314L682.734 196.48C682.867 195.64 682.807 194.933 682.554 194.36C682.301 193.786 681.907 193.353 681.374 193.06C680.854 192.753 680.227 192.6 679.494 192.6C678.641 192.6 677.881 192.813 677.214 193.24C676.547 193.653 676.027 194.233 675.654 194.98C675.281 195.713 675.094 196.573 675.094 197.56C675.094 198.613 675.394 199.426 675.994 200C676.607 200.56 677.521 200.84 678.734 200.84C679.441 200.84 680.094 200.726 680.694 200.5C681.294 200.26 681.787 199.933 682.174 199.52L682.814 200.54C682.321 201.033 681.701 201.42 680.954 201.7C680.221 201.966 679.441 202.1 678.614 202.1ZM678.814 189.88L681.854 187.4H683.794L680.294 189.88H678.814ZM689.764 205.98C688.791 205.98 687.904 205.84 687.104 205.56C686.304 205.293 685.631 204.906 685.084 204.4L685.924 203.32C686.351 203.746 686.904 204.086 687.584 204.34C688.278 204.593 689.038 204.72 689.864 204.72C691.198 204.72 692.231 204.413 692.964 203.8C693.698 203.186 694.184 202.24 694.424 200.96L694.984 198.2L695.524 196.48L695.744 194.68L696.364 191.5H697.724L695.884 200.72C695.524 202.573 694.844 203.913 693.844 204.74C692.844 205.566 691.484 205.98 689.764 205.98ZM690.464 201.6C689.544 201.6 688.731 201.426 688.024 201.08C687.331 200.733 686.791 200.246 686.404 199.62C686.018 198.98 685.824 198.226 685.824 197.36C685.824 196.506 685.971 195.72 686.264 195C686.558 194.28 686.971 193.653 687.504 193.12C688.038 192.573 688.671 192.153 689.404 191.86C690.138 191.553 690.944 191.4 691.824 191.4C692.664 191.4 693.411 191.546 694.064 191.84C694.718 192.133 695.231 192.573 695.604 193.16C695.991 193.746 696.184 194.493 696.184 195.4C696.198 196.546 695.971 197.593 695.504 198.54C695.038 199.473 694.378 200.22 693.524 200.78C692.671 201.326 691.651 201.6 690.464 201.6ZM690.744 200.34C691.624 200.34 692.404 200.14 693.084 199.74C693.778 199.34 694.324 198.793 694.724 198.1C695.124 197.393 695.324 196.593 695.324 195.7C695.324 194.74 695.018 193.993 694.404 193.46C693.791 192.913 692.938 192.64 691.844 192.64C690.964 192.64 690.178 192.84 689.484 193.24C688.791 193.64 688.244 194.193 687.844 194.9C687.458 195.593 687.264 196.386 687.264 197.28C687.264 198.24 687.571 198.993 688.184 199.54C688.798 200.073 689.651 200.34 690.744 200.34ZM699.576 202L701.656 191.5H703.016L702.416 194.6L702.256 194.06C702.723 193.14 703.336 192.466 704.096 192.04C704.869 191.613 705.829 191.4 706.976 191.4L706.716 192.78C706.649 192.78 706.583 192.78 706.516 192.78C706.463 192.766 706.396 192.76 706.316 192.76C705.196 192.76 704.269 193.086 703.536 193.74C702.816 194.38 702.323 195.353 702.056 196.66L700.996 202H699.576ZM707.447 202L709.527 191.5H710.947L708.867 202H707.447ZM710.847 189.18C710.567 189.18 710.334 189.086 710.147 188.9C709.974 188.713 709.887 188.493 709.887 188.24C709.887 187.946 709.987 187.693 710.187 187.48C710.4 187.266 710.667 187.16 710.987 187.16C711.267 187.16 711.5 187.246 711.687 187.42C711.874 187.593 711.967 187.813 711.967 188.08C711.967 188.4 711.86 188.666 711.647 188.88C711.434 189.08 711.167 189.18 710.847 189.18ZM716.158 202.1C715.558 202.1 715.045 201.973 714.618 201.72C714.191 201.453 713.891 201.08 713.718 200.6C713.558 200.12 713.545 199.546 713.678 198.88L715.598 189.18H717.018L715.098 198.82C714.965 199.473 715.011 199.98 715.238 200.34C715.478 200.7 715.911 200.88 716.538 200.88C716.831 200.88 717.118 200.84 717.398 200.76C717.678 200.666 717.931 200.526 718.158 200.34L718.498 201.42C718.165 201.673 717.791 201.853 717.378 201.96C716.965 202.053 716.558 202.1 716.158 202.1ZM713.038 192.68L713.258 191.5H719.758L719.518 192.68H713.038ZM725.372 202.1C724.372 202.1 723.499 201.92 722.752 201.56C722.019 201.186 721.452 200.666 721.052 200C720.665 199.333 720.472 198.54 720.472 197.62C720.472 196.42 720.725 195.353 721.232 194.42C721.739 193.486 722.432 192.753 723.312 192.22C724.192 191.673 725.185 191.4 726.292 191.4C727.225 191.4 728.032 191.58 728.712 191.94C729.392 192.286 729.919 192.793 730.292 193.46C730.679 194.126 730.872 194.926 730.872 195.86C730.872 196.073 730.859 196.293 730.832 196.52C730.805 196.733 730.772 196.94 730.732 197.14H721.512L721.692 196.08H730.072L729.492 196.48C729.625 195.64 729.565 194.933 729.312 194.36C729.059 193.786 728.665 193.353 728.132 193.06C727.612 192.753 726.985 192.6 726.252 192.6C725.399 192.6 724.639 192.813 723.972 193.24C723.305 193.653 722.785 194.233 722.412 194.98C722.039 195.713 721.852 196.573 721.852 197.56C721.852 198.613 722.152 199.426 722.752 200C723.365 200.56 724.279 200.84 725.492 200.84C726.199 200.84 726.852 200.726 727.452 200.5C728.052 200.26 728.545 199.933 728.932 199.52L729.572 200.54C729.079 201.033 728.459 201.42 727.712 201.7C726.979 201.966 726.199 202.1 725.372 202.1ZM725.572 189.88L728.612 187.4H730.552L727.052 189.88H725.572ZM741.757 205.98C740.783 205.98 739.897 205.84 739.097 205.56C738.297 205.293 737.623 204.906 737.077 204.4L737.917 203.32C738.343 203.746 738.897 204.086 739.577 204.34C740.27 204.593 741.03 204.72 741.857 204.72C743.19 204.72 744.223 204.413 744.957 203.8C745.69 203.186 746.177 202.24 746.417 200.96L746.977 198.2L747.517 196.48L747.737 194.68L748.357 191.5H749.717L747.877 200.72C747.517 202.573 746.837 203.913 745.837 204.74C744.837 205.566 743.477 205.98 741.757 205.98ZM742.457 201.6C741.537 201.6 740.723 201.426 740.017 201.08C739.323 200.733 738.783 200.246 738.397 199.62C738.01 198.98 737.817 198.226 737.817 197.36C737.817 196.506 737.963 195.72 738.257 195C738.55 194.28 738.963 193.653 739.497 193.12C740.03 192.573 740.663 192.153 741.397 191.86C742.13 191.553 742.937 191.4 743.817 191.4C744.657 191.4 745.403 191.546 746.057 191.84C746.71 192.133 747.223 192.573 747.597 193.16C747.983 193.746 748.177 194.493 748.177 195.4C748.19 196.546 747.963 197.593 747.497 198.54C747.03 199.473 746.37 200.22 745.517 200.78C744.663 201.326 743.643 201.6 742.457 201.6ZM742.737 200.34C743.617 200.34 744.397 200.14 745.077 199.74C745.77 199.34 746.317 198.793 746.717 198.1C747.117 197.393 747.317 196.593 747.317 195.7C747.317 194.74 747.01 193.993 746.397 193.46C745.783 192.913 744.93 192.64 743.837 192.64C742.957 192.64 742.17 192.84 741.477 193.24C740.783 193.64 740.237 194.193 739.837 194.9C739.45 195.593 739.257 196.386 739.257 197.28C739.257 198.24 739.563 198.993 740.177 199.54C740.79 200.073 741.643 200.34 742.737 200.34ZM751.568 202L753.648 191.5H755.008L754.408 194.6L754.248 194.06C754.715 193.14 755.328 192.466 756.088 192.04C756.861 191.613 757.821 191.4 758.968 191.4L758.708 192.78C758.641 192.78 758.575 192.78 758.508 192.78C758.455 192.766 758.388 192.76 758.308 192.76C757.188 192.76 756.261 193.086 755.528 193.74C754.808 194.38 754.315 195.353 754.048 196.66L752.988 202H751.568ZM763.821 202.1C762.928 202.1 762.135 201.92 761.441 201.56C760.748 201.2 760.208 200.686 759.821 200.02C759.435 199.353 759.241 198.56 759.241 197.64C759.241 196.746 759.388 195.92 759.681 195.16C759.975 194.4 760.388 193.74 760.921 193.18C761.455 192.606 762.081 192.166 762.801 191.86C763.535 191.553 764.328 191.4 765.181 191.4C766.101 191.4 766.881 191.566 767.521 191.9C768.161 192.22 768.655 192.693 769.001 193.32C769.348 193.933 769.521 194.68 769.521 195.56C769.521 196.826 769.288 197.953 768.821 198.94C768.355 199.926 767.695 200.7 766.841 201.26C765.988 201.82 764.981 202.1 763.821 202.1ZM764.121 200.84C765.001 200.84 765.781 200.633 766.461 200.22C767.155 199.793 767.695 199.206 768.081 198.46C768.481 197.713 768.681 196.866 768.681 195.92C768.681 194.88 768.375 194.073 767.761 193.5C767.161 192.926 766.315 192.64 765.221 192.64C764.355 192.64 763.575 192.853 762.881 193.28C762.188 193.706 761.641 194.293 761.241 195.04C760.855 195.773 760.661 196.62 760.661 197.58C760.661 198.606 760.961 199.406 761.561 199.98C762.175 200.553 763.028 200.84 764.121 200.84ZM767.581 202L768.181 198.98L768.781 196.86L768.981 194.66L769.621 191.5H771.041L768.941 202H767.581ZM763.061 189.86L765.921 187.38H767.361L769.661 189.86H768.381L766.061 187.74H767.181L764.421 189.86H763.061ZM777.656 202.1C776.656 202.1 775.79 201.92 775.056 201.56C774.336 201.186 773.776 200.666 773.376 200C772.99 199.333 772.796 198.546 772.796 197.64C772.796 196.44 773.056 195.373 773.576 194.44C774.096 193.493 774.816 192.753 775.736 192.22C776.67 191.673 777.73 191.4 778.916 191.4C779.89 191.4 780.723 191.58 781.416 191.94C782.123 192.286 782.67 192.806 783.056 193.5L781.856 194.2C781.563 193.666 781.156 193.273 780.636 193.02C780.13 192.766 779.516 192.64 778.796 192.64C777.916 192.64 777.13 192.853 776.436 193.28C775.743 193.706 775.196 194.293 774.796 195.04C774.41 195.773 774.216 196.62 774.216 197.58C774.216 198.606 774.516 199.406 775.116 199.98C775.73 200.553 776.596 200.84 777.716 200.84C778.396 200.84 779.023 200.713 779.596 200.46C780.183 200.193 780.663 199.813 781.036 199.32L782.056 200.1C781.603 200.726 780.983 201.22 780.196 201.58C779.41 201.926 778.563 202.1 777.656 202.1ZM788.79 202.1C787.79 202.1 786.917 201.92 786.17 201.56C785.437 201.186 784.87 200.666 784.47 200C784.083 199.333 783.89 198.54 783.89 197.62C783.89 196.42 784.143 195.353 784.65 194.42C785.157 193.486 785.85 192.753 786.73 192.22C787.61 191.673 788.603 191.4 789.71 191.4C790.643 191.4 791.45 191.58 792.13 191.94C792.81 192.286 793.337 192.793 793.71 193.46C794.097 194.126 794.29 194.926 794.29 195.86C794.29 196.073 794.277 196.293 794.25 196.52C794.223 196.733 794.19 196.94 794.15 197.14H784.93L785.11 196.08H793.49L792.91 196.48C793.043 195.64 792.983 194.933 792.73 194.36C792.477 193.786 792.083 193.353 791.55 193.06C791.03 192.753 790.403 192.6 789.67 192.6C788.817 192.6 788.057 192.813 787.39 193.24C786.723 193.653 786.203 194.233 785.83 194.98C785.457 195.713 785.27 196.573 785.27 197.56C785.27 198.613 785.57 199.426 786.17 200C786.783 200.56 787.697 200.84 788.91 200.84C789.617 200.84 790.27 200.726 790.87 200.5C791.47 200.26 791.963 199.933 792.35 199.52L792.99 200.54C792.497 201.033 791.877 201.42 791.13 201.7C790.397 201.966 789.617 202.1 788.79 202.1ZM805.775 202.1C804.881 202.1 804.088 201.92 803.395 201.56C802.701 201.2 802.161 200.686 801.775 200.02C801.388 199.353 801.195 198.56 801.195 197.64C801.195 196.746 801.341 195.92 801.635 195.16C801.928 194.4 802.341 193.74 802.875 193.18C803.408 192.606 804.035 192.166 804.755 191.86C805.488 191.553 806.281 191.4 807.135 191.4C808.055 191.4 808.835 191.566 809.475 191.9C810.115 192.22 810.608 192.693 810.955 193.32C811.301 193.933 811.475 194.68 811.475 195.56C811.475 196.826 811.241 197.953 810.775 198.94C810.308 199.926 809.648 200.7 808.795 201.26C807.941 201.82 806.935 202.1 805.775 202.1ZM806.075 200.84C806.955 200.84 807.735 200.633 808.415 200.22C809.108 199.793 809.648 199.206 810.035 198.46C810.435 197.713 810.635 196.866 810.635 195.92C810.635 194.88 810.328 194.073 809.715 193.5C809.115 192.926 808.268 192.64 807.175 192.64C806.308 192.64 805.528 192.853 804.835 193.28C804.141 193.706 803.595 194.293 803.195 195.04C802.808 195.773 802.615 196.62 802.615 197.58C802.615 198.606 802.915 199.406 803.515 199.98C804.128 200.553 804.981 200.84 806.075 200.84ZM809.535 202L810.135 198.98L810.735 196.86L810.935 194.66L811.575 191.5H812.995L810.895 202H809.535ZM808.195 189.86L805.455 187.38H807.335L809.615 189.86H808.195ZM824.484 202.1C823.564 202.1 822.797 201.913 822.184 201.54C821.584 201.166 821.17 200.633 820.944 199.94C820.717 199.246 820.69 198.426 820.864 197.48L822.064 191.5H823.484L822.284 197.48C822.084 198.52 822.197 199.34 822.624 199.94C823.05 200.526 823.797 200.82 824.864 200.82C825.97 200.82 826.89 200.513 827.624 199.9C828.37 199.286 828.87 198.366 829.124 197.14L830.244 191.5H831.664L829.564 202H828.204L828.804 198.98L829.104 199.48C828.61 200.386 827.957 201.053 827.144 201.48C826.344 201.893 825.457 202.1 824.484 202.1ZM840.741 191.4C841.688 191.4 842.461 191.586 843.061 191.96C843.675 192.32 844.095 192.846 844.321 193.54C844.561 194.233 844.581 195.06 844.381 196.02L843.181 202H841.761L842.961 196C843.175 194.96 843.061 194.146 842.621 193.56C842.195 192.973 841.435 192.68 840.341 192.68C839.221 192.68 838.288 192.986 837.541 193.6C836.808 194.213 836.315 195.133 836.061 196.36L834.941 202H833.521L835.601 191.5H836.961L836.361 194.52L836.061 194C836.568 193.093 837.221 192.433 838.021 192.02C838.835 191.606 839.741 191.4 840.741 191.4ZM851.837 202.1C850.837 202.1 849.963 201.92 849.217 201.56C848.483 201.186 847.917 200.666 847.517 200C847.13 199.333 846.937 198.54 846.937 197.62C846.937 196.42 847.19 195.353 847.697 194.42C848.203 193.486 848.897 192.753 849.777 192.22C850.657 191.673 851.65 191.4 852.757 191.4C853.69 191.4 854.497 191.58 855.177 191.94C855.857 192.286 856.383 192.793 856.757 193.46C857.143 194.126 857.337 194.926 857.337 195.86C857.337 196.073 857.323 196.293 857.297 196.52C857.27 196.733 857.237 196.94 857.197 197.14H847.977L848.157 196.08H856.537L855.957 196.48C856.09 195.64 856.03 194.933 855.777 194.36C855.523 193.786 855.13 193.353 854.597 193.06C854.077 192.753 853.45 192.6 852.717 192.6C851.863 192.6 851.103 192.813 850.437 193.24C849.77 193.653 849.25 194.233 848.877 194.98C848.503 195.713 848.317 196.573 848.317 197.56C848.317 198.613 848.617 199.426 849.217 200C849.83 200.56 850.743 200.84 851.957 200.84C852.663 200.84 853.317 200.726 853.917 200.5C854.517 200.26 855.01 199.933 855.397 199.52L856.037 200.54C855.543 201.033 854.923 201.42 854.177 201.7C853.443 201.966 852.663 202.1 851.837 202.1ZM418.453 231.1C417.546 231.1 416.766 230.94 416.113 230.62C415.473 230.286 414.98 229.813 414.633 229.2C414.3 228.573 414.126 227.82 414.113 226.94C414.113 225.646 414.346 224.513 414.813 223.54C415.28 222.553 415.94 221.786 416.793 221.24C417.646 220.68 418.653 220.4 419.813 220.4C420.72 220.4 421.513 220.58 422.193 220.94C422.886 221.286 423.426 221.793 423.813 222.46C424.213 223.126 424.413 223.92 424.413 224.84C424.413 225.746 424.266 226.58 423.973 227.34C423.68 228.1 423.26 228.76 422.713 229.32C422.18 229.88 421.553 230.32 420.833 230.64C420.113 230.946 419.32 231.1 418.453 231.1ZM411.833 234.88L414.693 220.5H416.053L415.453 223.52L414.873 225.62L414.653 227.82L413.253 234.88H411.833ZM418.433 229.84C419.313 229.84 420.093 229.633 420.773 229.22C421.453 228.793 421.986 228.206 422.373 227.46C422.773 226.713 422.973 225.866 422.973 224.92C422.973 223.88 422.673 223.073 422.073 222.5C421.473 221.926 420.62 221.64 419.513 221.64C418.646 221.64 417.866 221.853 417.173 222.28C416.493 222.706 415.953 223.293 415.553 224.04C415.166 224.773 414.973 225.62 414.973 226.58C414.973 227.606 415.273 228.406 415.873 228.98C416.473 229.553 417.326 229.84 418.433 229.84ZM426.168 231L429.128 216.16H430.548L427.588 231H426.168ZM436.019 231.1C435.125 231.1 434.332 230.92 433.639 230.56C432.945 230.2 432.405 229.686 432.019 229.02C431.632 228.353 431.439 227.56 431.439 226.64C431.439 225.746 431.585 224.92 431.879 224.16C432.172 223.4 432.585 222.74 433.119 222.18C433.652 221.606 434.279 221.166 434.999 220.86C435.732 220.553 436.525 220.4 437.379 220.4C438.299 220.4 439.079 220.566 439.719 220.9C440.359 221.22 440.852 221.693 441.199 222.32C441.545 222.933 441.719 223.68 441.719 224.56C441.719 225.826 441.485 226.953 441.019 227.94C440.552 228.926 439.892 229.7 439.039 230.26C438.185 230.82 437.179 231.1 436.019 231.1ZM436.319 229.84C437.199 229.84 437.979 229.633 438.659 229.22C439.352 228.793 439.892 228.206 440.279 227.46C440.679 226.713 440.879 225.866 440.879 224.92C440.879 223.88 440.572 223.073 439.959 222.5C439.359 221.926 438.512 221.64 437.419 221.64C436.552 221.64 435.772 221.853 435.079 222.28C434.385 222.706 433.839 223.293 433.439 224.04C433.052 224.773 432.859 225.62 432.859 226.58C432.859 227.606 433.159 228.406 433.759 228.98C434.372 229.553 435.225 229.84 436.319 229.84ZM439.779 231L440.379 227.98L440.979 225.86L441.179 223.66L441.819 220.5H443.239L441.139 231H439.779ZM448.433 231.1C447.833 231.1 447.32 230.973 446.893 230.72C446.467 230.453 446.167 230.08 445.993 229.6C445.833 229.12 445.82 228.546 445.953 227.88L447.873 218.18H449.293L447.373 227.82C447.24 228.473 447.287 228.98 447.513 229.34C447.753 229.7 448.187 229.88 448.813 229.88C449.107 229.88 449.393 229.84 449.673 229.76C449.953 229.666 450.207 229.526 450.433 229.34L450.773 230.42C450.44 230.673 450.067 230.853 449.653 230.96C449.24 231.053 448.833 231.1 448.433 231.1ZM445.313 221.68L445.533 220.5H452.033L451.793 221.68H445.313ZM457.647 231.1C456.647 231.1 455.774 230.92 455.027 230.56C454.294 230.186 453.727 229.666 453.327 229C452.941 228.333 452.747 227.54 452.747 226.62C452.747 225.42 453.001 224.353 453.507 223.42C454.014 222.486 454.707 221.753 455.587 221.22C456.467 220.673 457.461 220.4 458.567 220.4C459.501 220.4 460.307 220.58 460.987 220.94C461.667 221.286 462.194 221.793 462.567 222.46C462.954 223.126 463.147 223.926 463.147 224.86C463.147 225.073 463.134 225.293 463.107 225.52C463.081 225.733 463.047 225.94 463.007 226.14H453.787L453.967 225.08H462.347L461.767 225.48C461.901 224.64 461.841 223.933 461.587 223.36C461.334 222.786 460.941 222.353 460.407 222.06C459.887 221.753 459.261 221.6 458.527 221.6C457.674 221.6 456.914 221.813 456.247 222.24C455.581 222.653 455.061 223.233 454.687 223.98C454.314 224.713 454.127 225.573 454.127 226.56C454.127 227.613 454.427 228.426 455.027 229C455.641 229.56 456.554 229.84 457.767 229.84C458.474 229.84 459.127 229.726 459.727 229.5C460.327 229.26 460.821 228.933 461.207 228.52L461.847 229.54C461.354 230.033 460.734 230.42 459.987 230.7C459.254 230.966 458.474 231.1 457.647 231.1ZM465.158 231L467.518 219.16C467.718 218.173 468.118 217.413 468.718 216.88C469.331 216.333 470.131 216.06 471.118 216.06C471.544 216.06 471.944 216.12 472.318 216.24C472.691 216.36 472.998 216.526 473.238 216.74L472.598 217.78C472.224 217.433 471.731 217.26 471.118 217.26C470.504 217.26 470.011 217.426 469.638 217.76C469.278 218.08 469.024 218.6 468.878 219.32L468.558 220.86L468.478 221.48L466.578 231H465.158ZM465.138 221.68L465.358 220.5H471.858L471.618 221.68H465.138ZM476.199 231.1C475.226 231.1 474.379 230.92 473.659 230.56C472.953 230.186 472.399 229.666 471.999 229C471.613 228.333 471.419 227.546 471.419 226.64C471.419 225.44 471.679 224.373 472.199 223.44C472.719 222.493 473.439 221.753 474.359 221.22C475.279 220.673 476.326 220.4 477.499 220.4C478.473 220.4 479.313 220.58 480.019 220.94C480.739 221.3 481.293 221.813 481.679 222.48C482.079 223.146 482.279 223.933 482.279 224.84C482.279 226.04 482.019 227.113 481.499 228.06C480.979 228.993 480.259 229.733 479.339 230.28C478.433 230.826 477.386 231.1 476.199 231.1ZM476.299 229.84C477.179 229.84 477.959 229.633 478.639 229.22C479.333 228.793 479.873 228.206 480.259 227.46C480.659 226.713 480.859 225.866 480.859 224.92C480.859 223.88 480.553 223.073 479.939 222.5C479.339 221.926 478.493 221.64 477.399 221.64C476.533 221.64 475.753 221.853 475.059 222.28C474.366 222.706 473.819 223.293 473.419 224.04C473.033 224.773 472.839 225.62 472.839 226.58C472.839 227.606 473.139 228.406 473.739 228.98C474.353 229.553 475.206 229.84 476.299 229.84ZM484.058 231L486.138 220.5H487.498L486.898 223.6L486.738 223.06C487.205 222.14 487.818 221.466 488.578 221.04C489.352 220.613 490.312 220.4 491.458 220.4L491.198 221.78C491.132 221.78 491.065 221.78 490.998 221.78C490.945 221.766 490.878 221.76 490.798 221.76C489.678 221.76 488.752 222.086 488.018 222.74C487.298 223.38 486.805 224.353 486.538 225.66L485.478 231H484.058ZM506.85 220.4C507.797 220.4 508.564 220.586 509.15 220.96C509.75 221.32 510.164 221.846 510.39 222.54C510.617 223.233 510.63 224.06 510.43 225.02L509.23 231H507.81L509.01 225C509.224 223.96 509.124 223.146 508.71 222.56C508.31 221.973 507.577 221.68 506.51 221.68C505.457 221.68 504.57 221.973 503.85 222.56C503.144 223.146 502.67 224.026 502.43 225.2L501.27 231H499.85L501.05 225C501.264 223.96 501.164 223.146 500.75 222.56C500.337 221.973 499.604 221.68 498.55 221.68C497.47 221.68 496.577 221.986 495.87 222.6C495.164 223.213 494.684 224.133 494.43 225.36L493.31 231H491.89L493.97 220.5H495.33L494.73 223.52L494.43 223C494.937 222.093 495.577 221.433 496.35 221.02C497.124 220.606 497.997 220.4 498.97 220.4C499.704 220.4 500.33 220.526 500.85 220.78C501.384 221.02 501.797 221.38 502.09 221.86C502.397 222.326 502.564 222.886 502.59 223.54L501.85 223.38C502.37 222.38 503.057 221.633 503.91 221.14C504.777 220.646 505.757 220.4 506.85 220.4ZM517.901 231.1C516.901 231.1 516.028 230.92 515.281 230.56C514.548 230.186 513.981 229.666 513.581 229C513.195 228.333 513.001 227.54 513.001 226.62C513.001 225.42 513.255 224.353 513.761 223.42C514.268 222.486 514.961 221.753 515.841 221.22C516.721 220.673 517.715 220.4 518.821 220.4C519.755 220.4 520.561 220.58 521.241 220.94C521.921 221.286 522.448 221.793 522.821 222.46C523.208 223.126 523.401 223.926 523.401 224.86C523.401 225.073 523.388 225.293 523.361 225.52C523.335 225.733 523.301 225.94 523.261 226.14H514.041L514.221 225.08H522.601L522.021 225.48C522.155 224.64 522.095 223.933 521.841 223.36C521.588 222.786 521.195 222.353 520.661 222.06C520.141 221.753 519.515 221.6 518.781 221.6C517.928 221.6 517.168 221.813 516.501 222.24C515.835 222.653 515.315 223.233 514.941 223.98C514.568 224.713 514.381 225.573 514.381 226.56C514.381 227.613 514.681 228.426 515.281 229C515.895 229.56 516.808 229.84 518.021 229.84C518.728 229.84 519.381 229.726 519.981 229.5C520.581 229.26 521.075 228.933 521.461 228.52L522.101 229.54C521.608 230.033 520.988 230.42 520.241 230.7C519.508 230.966 518.728 231.1 517.901 231.1ZM534.806 231.1C533.886 231.1 533.119 230.913 532.506 230.54C531.906 230.166 531.493 229.633 531.266 228.94C531.039 228.246 531.013 227.426 531.186 226.48L532.386 220.5H533.806L532.606 226.48C532.406 227.52 532.519 228.34 532.946 228.94C533.373 229.526 534.119 229.82 535.186 229.82C536.293 229.82 537.213 229.513 537.946 228.9C538.693 228.286 539.193 227.366 539.446 226.14L540.566 220.5H541.986L539.886 231H538.526L539.126 227.98L539.426 228.48C538.933 229.386 538.279 230.053 537.466 230.48C536.666 230.893 535.779 231.1 534.806 231.1ZM551.063 220.4C552.01 220.4 552.783 220.586 553.383 220.96C553.997 221.32 554.417 221.846 554.643 222.54C554.883 223.233 554.903 224.06 554.703 225.02L553.503 231H552.083L553.283 225C553.497 223.96 553.383 223.146 552.943 222.56C552.517 221.973 551.757 221.68 550.663 221.68C549.543 221.68 548.61 221.986 547.863 222.6C547.13 223.213 546.637 224.133 546.383 225.36L545.263 231H543.843L545.923 220.5H547.283L546.683 223.52L546.383 223C546.89 222.093 547.543 221.433 548.343 221.02C549.157 220.606 550.063 220.4 551.063 220.4ZM557.359 231L559.439 220.5H560.859L558.779 231H557.359ZM560.759 218.18C560.479 218.18 560.246 218.086 560.059 217.9C559.886 217.713 559.799 217.493 559.799 217.24C559.799 216.946 559.899 216.693 560.099 216.48C560.312 216.266 560.579 216.16 560.899 216.16C561.179 216.16 561.412 216.246 561.599 216.42C561.786 216.593 561.879 216.813 561.879 217.08C561.879 217.4 561.772 217.666 561.559 217.88C561.346 218.08 561.079 218.18 560.759 218.18ZM567.21 231.1C566.317 231.1 565.523 230.92 564.83 230.56C564.137 230.2 563.597 229.686 563.21 229.02C562.823 228.353 562.63 227.56 562.63 226.64C562.63 225.746 562.777 224.92 563.07 224.16C563.363 223.4 563.777 222.74 564.31 222.18C564.843 221.606 565.47 221.166 566.19 220.86C566.923 220.553 567.717 220.4 568.57 220.4C569.49 220.4 570.27 220.566 570.91 220.9C571.55 221.22 572.043 221.693 572.39 222.32C572.737 222.933 572.91 223.68 572.91 224.56C572.91 225.826 572.677 226.953 572.21 227.94C571.743 228.926 571.083 229.7 570.23 230.26C569.377 230.82 568.37 231.1 567.21 231.1ZM567.51 229.84C568.39 229.84 569.17 229.633 569.85 229.22C570.543 228.793 571.083 228.206 571.47 227.46C571.87 226.713 572.07 225.866 572.07 224.92C572.07 223.88 571.763 223.073 571.15 222.5C570.55 221.926 569.703 221.64 568.61 221.64C567.743 221.64 566.963 221.853 566.27 222.28C565.577 222.706 565.03 223.293 564.63 224.04C564.243 224.773 564.05 225.62 564.05 226.58C564.05 227.606 564.35 228.406 564.95 228.98C565.563 229.553 566.417 229.84 567.51 229.84ZM570.13 234.88L571.51 227.96L572.17 225.86L572.39 223.84L573.07 220.5H574.43L571.55 234.88H570.13ZM580.685 231.1C579.765 231.1 578.998 230.913 578.385 230.54C577.785 230.166 577.372 229.633 577.145 228.94C576.918 228.246 576.892 227.426 577.065 226.48L578.265 220.5H579.685L578.485 226.48C578.285 227.52 578.398 228.34 578.825 228.94C579.252 229.526 579.998 229.82 581.065 229.82C582.172 229.82 583.092 229.513 583.825 228.9C584.572 228.286 585.072 227.366 585.325 226.14L586.445 220.5H587.865L585.765 231H584.405L585.005 227.98L585.305 228.48C584.812 229.386 584.158 230.053 583.345 230.48C582.545 230.893 581.658 231.1 580.685 231.1ZM594.522 231.1C593.522 231.1 592.649 230.92 591.902 230.56C591.169 230.186 590.602 229.666 590.202 229C589.816 228.333 589.622 227.54 589.622 226.62C589.622 225.42 589.876 224.353 590.382 223.42C590.889 222.486 591.582 221.753 592.462 221.22C593.342 220.673 594.336 220.4 595.442 220.4C596.376 220.4 597.182 220.58 597.862 220.94C598.542 221.286 599.069 221.793 599.442 222.46C599.829 223.126 600.022 223.926 600.022 224.86C600.022 225.073 600.009 225.293 599.982 225.52C599.956 225.733 599.922 225.94 599.882 226.14H590.662L590.842 225.08H599.222L598.642 225.48C598.776 224.64 598.716 223.933 598.462 223.36C598.209 222.786 597.816 222.353 597.282 222.06C596.762 221.753 596.136 221.6 595.402 221.6C594.549 221.6 593.789 221.813 593.122 222.24C592.456 222.653 591.936 223.233 591.562 223.98C591.189 224.713 591.002 225.573 591.002 226.56C591.002 227.613 591.302 228.426 591.902 229C592.516 229.56 593.429 229.84 594.642 229.84C595.349 229.84 596.002 229.726 596.602 229.5C597.202 229.26 597.696 228.933 598.082 228.52L598.722 229.54C598.229 230.033 597.609 230.42 596.862 230.7C596.129 230.966 595.349 231.1 594.522 231.1ZM612.867 231.1C611.96 231.1 611.18 230.94 610.527 230.62C609.887 230.286 609.394 229.813 609.047 229.2C608.714 228.573 608.54 227.82 608.527 226.94C608.527 225.646 608.76 224.513 609.227 223.54C609.694 222.553 610.354 221.786 611.207 221.24C612.06 220.68 613.067 220.4 614.227 220.4C615.134 220.4 615.927 220.58 616.607 220.94C617.3 221.286 617.84 221.793 618.227 222.46C618.627 223.126 618.827 223.92 618.827 224.84C618.827 225.746 618.68 226.58 618.387 227.34C618.094 228.1 617.674 228.76 617.127 229.32C616.594 229.88 615.967 230.32 615.247 230.64C614.527 230.946 613.734 231.1 612.867 231.1ZM606.247 234.88L609.107 220.5H610.467L609.867 223.52L609.287 225.62L609.067 227.82L607.667 234.88H606.247ZM612.847 229.84C613.727 229.84 614.507 229.633 615.187 229.22C615.867 228.793 616.4 228.206 616.787 227.46C617.187 226.713 617.387 225.866 617.387 224.92C617.387 223.88 617.087 223.073 616.487 222.5C615.887 221.926 615.034 221.64 613.927 221.64C613.06 221.64 612.28 221.853 611.587 222.28C610.907 222.706 610.367 223.293 609.967 224.04C609.58 224.773 609.387 225.62 609.387 226.58C609.387 227.606 609.687 228.406 610.287 228.98C610.887 229.553 611.74 229.84 612.847 229.84ZM625.262 231.1C624.288 231.1 623.442 230.92 622.722 230.56C622.015 230.186 621.462 229.666 621.062 229C620.675 228.333 620.482 227.546 620.482 226.64C620.482 225.44 620.742 224.373 621.262 223.44C621.782 222.493 622.502 221.753 623.422 221.22C624.342 220.673 625.388 220.4 626.562 220.4C627.535 220.4 628.375 220.58 629.082 220.94C629.802 221.3 630.355 221.813 630.742 222.48C631.142 223.146 631.342 223.933 631.342 224.84C631.342 226.04 631.082 227.113 630.562 228.06C630.042 228.993 629.322 229.733 628.402 230.28C627.495 230.826 626.448 231.1 625.262 231.1ZM625.362 229.84C626.242 229.84 627.022 229.633 627.702 229.22C628.395 228.793 628.935 228.206 629.322 227.46C629.722 226.713 629.922 225.866 629.922 224.92C629.922 223.88 629.615 223.073 629.002 222.5C628.402 221.926 627.555 221.64 626.462 221.64C625.595 221.64 624.815 221.853 624.122 222.28C623.428 222.706 622.882 223.293 622.482 224.04C622.095 224.773 621.902 225.62 621.902 226.58C621.902 227.606 622.202 228.406 622.802 228.98C623.415 229.553 624.268 229.84 625.362 229.84ZM637.521 231.1C636.601 231.1 635.834 230.913 635.221 230.54C634.621 230.166 634.207 229.633 633.981 228.94C633.754 228.246 633.727 227.426 633.901 226.48L635.101 220.5H636.521L635.321 226.48C635.121 227.52 635.234 228.34 635.661 228.94C636.087 229.526 636.834 229.82 637.901 229.82C639.007 229.82 639.927 229.513 640.661 228.9C641.407 228.286 641.907 227.366 642.161 226.14L643.281 220.5H644.701L642.601 231H641.241L641.841 227.98L642.141 228.48C641.647 229.386 640.994 230.053 640.181 230.48C639.381 230.893 638.494 231.1 637.521 231.1ZM646.558 231L648.638 220.5H649.998L649.398 223.6L649.238 223.06C649.705 222.14 650.318 221.466 651.078 221.04C651.852 220.613 652.812 220.4 653.958 220.4L653.698 221.78C653.632 221.78 653.565 221.78 653.498 221.78C653.445 221.766 653.378 221.76 653.298 221.76C652.178 221.76 651.252 222.086 650.518 222.74C649.798 223.38 649.305 224.353 649.038 225.66L647.978 231H646.558ZM659.82 231L662.78 216.16H664.2L661.24 231H659.82ZM669.671 231.1C668.778 231.1 667.984 230.92 667.291 230.56C666.598 230.2 666.058 229.686 665.671 229.02C665.284 228.353 665.091 227.56 665.091 226.64C665.091 225.746 665.238 224.92 665.531 224.16C665.824 223.4 666.238 222.74 666.771 222.18C667.304 221.606 667.931 221.166 668.651 220.86C669.384 220.553 670.178 220.4 671.031 220.4C671.951 220.4 672.731 220.566 673.371 220.9C674.011 221.22 674.504 221.693 674.851 222.32C675.198 222.933 675.371 223.68 675.371 224.56C675.371 225.826 675.138 226.953 674.671 227.94C674.204 228.926 673.544 229.7 672.691 230.26C671.838 230.82 670.831 231.1 669.671 231.1ZM669.971 229.84C670.851 229.84 671.631 229.633 672.311 229.22C673.004 228.793 673.544 228.206 673.931 227.46C674.331 226.713 674.531 225.866 674.531 224.92C674.531 223.88 674.224 223.073 673.611 222.5C673.011 221.926 672.164 221.64 671.071 221.64C670.204 221.64 669.424 221.853 668.731 222.28C668.038 222.706 667.491 223.293 667.091 224.04C666.704 224.773 666.511 225.62 666.511 226.58C666.511 227.606 666.811 228.406 667.411 228.98C668.024 229.553 668.878 229.84 669.971 229.84ZM673.431 231L674.031 227.98L674.631 225.86L674.831 223.66L675.471 220.5H676.891L674.791 231H673.431ZM688.74 231.1C687.74 231.1 686.873 230.92 686.14 230.56C685.42 230.186 684.86 229.666 684.46 229C684.073 228.333 683.88 227.546 683.88 226.64C683.88 225.44 684.14 224.373 684.66 223.44C685.18 222.493 685.9 221.753 686.82 221.22C687.753 220.673 688.813 220.4 690 220.4C690.973 220.4 691.807 220.58 692.5 220.94C693.207 221.286 693.753 221.806 694.14 222.5L692.94 223.2C692.647 222.666 692.24 222.273 691.72 222.02C691.213 221.766 690.6 221.64 689.88 221.64C689 221.64 688.213 221.853 687.52 222.28C686.827 222.706 686.28 223.293 685.88 224.04C685.493 224.773 685.3 225.62 685.3 226.58C685.3 227.606 685.6 228.406 686.2 228.98C686.813 229.553 687.68 229.84 688.8 229.84C689.48 229.84 690.107 229.713 690.68 229.46C691.267 229.193 691.747 228.813 692.12 228.32L693.14 229.1C692.687 229.726 692.067 230.22 691.28 230.58C690.493 230.926 689.647 231.1 688.74 231.1ZM694.553 234.98C694.06 234.98 693.587 234.893 693.133 234.72C692.68 234.56 692.32 234.333 692.053 234.04L692.813 233C693.04 233.24 693.307 233.426 693.613 233.56C693.92 233.693 694.267 233.76 694.653 233.76C695.107 233.76 695.52 233.633 695.893 233.38C696.28 233.14 696.68 232.7 697.093 232.06L698.153 230.44L698.333 230.24L704.573 220.5H706.033L698.353 232.36C697.913 233.026 697.5 233.546 697.113 233.92C696.727 234.306 696.327 234.58 695.913 234.74C695.513 234.9 695.06 234.98 694.553 234.98ZM697.913 231.3L695.213 220.5H696.653L699.013 230.14L697.913 231.3ZM705.933 231L708.893 216.16H710.313L708.833 223.54L708.193 225.62L707.953 227.66L707.293 231H705.933ZM711.773 231.1C710.867 231.1 710.087 230.94 709.433 230.62C708.793 230.286 708.3 229.813 707.953 229.2C707.62 228.573 707.447 227.82 707.433 226.94C707.433 225.98 707.567 225.1 707.833 224.3C708.1 223.5 708.48 222.813 708.973 222.24C709.48 221.653 710.08 221.2 710.773 220.88C711.48 220.56 712.267 220.4 713.133 220.4C714.04 220.4 714.833 220.58 715.513 220.94C716.207 221.286 716.747 221.793 717.133 222.46C717.533 223.126 717.733 223.92 717.733 224.84C717.733 225.746 717.587 226.58 717.293 227.34C717 228.1 716.58 228.76 716.033 229.32C715.5 229.88 714.873 230.32 714.153 230.64C713.433 230.946 712.64 231.1 711.773 231.1ZM711.753 229.84C712.633 229.84 713.413 229.633 714.093 229.22C714.773 228.793 715.307 228.206 715.693 227.46C716.093 226.713 716.293 225.866 716.293 224.92C716.293 223.88 715.993 223.073 715.393 222.5C714.793 221.926 713.94 221.64 712.833 221.64C711.967 221.64 711.187 221.853 710.493 222.28C709.813 222.706 709.273 223.293 708.873 224.04C708.487 224.773 708.293 225.62 708.293 226.58C708.293 227.606 708.593 228.406 709.193 228.98C709.793 229.553 710.647 229.84 711.753 229.84ZM724.288 231.1C723.288 231.1 722.415 230.92 721.668 230.56C720.935 230.186 720.368 229.666 719.968 229C719.581 228.333 719.388 227.54 719.388 226.62C719.388 225.42 719.641 224.353 720.148 223.42C720.655 222.486 721.348 221.753 722.228 221.22C723.108 220.673 724.101 220.4 725.208 220.4C726.141 220.4 726.948 220.58 727.628 220.94C728.308 221.286 728.835 221.793 729.208 222.46C729.595 223.126 729.788 223.926 729.788 224.86C729.788 225.073 729.775 225.293 729.748 225.52C729.721 225.733 729.688 225.94 729.648 226.14H720.428L720.608 225.08H728.988L728.408 225.48C728.541 224.64 728.481 223.933 728.228 223.36C727.975 222.786 727.581 222.353 727.048 222.06C726.528 221.753 725.901 221.6 725.168 221.6C724.315 221.6 723.555 221.813 722.888 222.24C722.221 222.653 721.701 223.233 721.328 223.98C720.955 224.713 720.768 225.573 720.768 226.56C720.768 227.613 721.068 228.426 721.668 229C722.281 229.56 723.195 229.84 724.408 229.84C725.115 229.84 725.768 229.726 726.368 229.5C726.968 229.26 727.461 228.933 727.848 228.52L728.488 229.54C727.995 230.033 727.375 230.42 726.628 230.7C725.895 230.966 725.115 231.1 724.288 231.1ZM731.558 231L733.638 220.5H734.998L734.398 223.6L734.238 223.06C734.705 222.14 735.318 221.466 736.078 221.04C736.852 220.613 737.812 220.4 738.958 220.4L738.698 221.78C738.632 221.78 738.565 221.78 738.498 221.78C738.445 221.766 738.378 221.76 738.298 221.76C737.178 221.76 736.252 222.086 735.518 222.74C734.798 223.38 734.305 224.353 734.038 225.66L732.978 231H731.558ZM742.607 231.1C741.753 231.1 740.947 230.98 740.187 230.74C739.427 230.5 738.84 230.193 738.427 229.82L739.107 228.7C739.507 229.06 740.033 229.346 740.687 229.56C741.34 229.76 742.027 229.86 742.747 229.86C743.747 229.86 744.513 229.693 745.047 229.36C745.593 229.026 745.867 228.566 745.867 227.98C745.867 227.58 745.72 227.28 745.427 227.08C745.147 226.866 744.78 226.706 744.327 226.6C743.873 226.48 743.393 226.366 742.887 226.26C742.38 226.153 741.9 226.02 741.447 225.86C740.993 225.686 740.62 225.426 740.327 225.08C740.047 224.733 739.907 224.266 739.907 223.68C739.907 223.013 740.093 222.433 740.467 221.94C740.853 221.446 741.387 221.066 742.067 220.8C742.747 220.533 743.547 220.4 744.467 220.4C745.133 220.4 745.793 220.486 746.447 220.66C747.1 220.833 747.627 221.073 748.027 221.38L747.427 222.52C747.013 222.2 746.533 221.973 745.987 221.84C745.44 221.693 744.893 221.62 744.347 221.62C743.373 221.62 742.62 221.8 742.087 222.16C741.567 222.506 741.307 222.966 741.307 223.54C741.307 223.94 741.447 224.246 741.727 224.46C742.02 224.673 742.393 224.84 742.847 224.96C743.3 225.08 743.78 225.193 744.287 225.3C744.807 225.393 745.287 225.526 745.727 225.7C746.18 225.873 746.547 226.126 746.827 226.46C747.12 226.78 747.267 227.233 747.267 227.82C747.267 228.513 747.073 229.106 746.687 229.6C746.3 230.08 745.753 230.453 745.047 230.72C744.353 230.973 743.54 231.1 742.607 231.1ZM754.112 231.1C753.112 231.1 752.239 230.92 751.492 230.56C750.759 230.186 750.192 229.666 749.792 229C749.406 228.333 749.212 227.54 749.212 226.62C749.212 225.42 749.466 224.353 749.972 223.42C750.479 222.486 751.172 221.753 752.052 221.22C752.932 220.673 753.926 220.4 755.032 220.4C755.966 220.4 756.772 220.58 757.452 220.94C758.132 221.286 758.659 221.793 759.032 222.46C759.419 223.126 759.612 223.926 759.612 224.86C759.612 225.073 759.599 225.293 759.572 225.52C759.546 225.733 759.512 225.94 759.472 226.14H750.252L750.432 225.08H758.812L758.232 225.48C758.366 224.64 758.306 223.933 758.052 223.36C757.799 222.786 757.406 222.353 756.872 222.06C756.352 221.753 755.726 221.6 754.992 221.6C754.139 221.6 753.379 221.813 752.712 222.24C752.046 222.653 751.526 223.233 751.152 223.98C750.779 224.713 750.592 225.573 750.592 226.56C750.592 227.613 750.892 228.426 751.492 229C752.106 229.56 753.019 229.84 754.232 229.84C754.939 229.84 755.592 229.726 756.192 229.5C756.792 229.26 757.286 228.933 757.672 228.52L758.312 229.54C757.819 230.033 757.199 230.42 756.452 230.7C755.719 230.966 754.939 231.1 754.112 231.1ZM754.312 218.88L757.352 216.4H759.292L755.792 218.88H754.312ZM766.143 231.1C765.143 231.1 764.276 230.92 763.543 230.56C762.823 230.186 762.263 229.666 761.863 229C761.476 228.333 761.283 227.546 761.283 226.64C761.283 225.44 761.543 224.373 762.063 223.44C762.583 222.493 763.303 221.753 764.223 221.22C765.156 220.673 766.216 220.4 767.403 220.4C768.376 220.4 769.209 220.58 769.903 220.94C770.609 221.286 771.156 221.806 771.543 222.5L770.343 223.2C770.049 222.666 769.643 222.273 769.123 222.02C768.616 221.766 768.003 221.64 767.283 221.64C766.403 221.64 765.616 221.853 764.923 222.28C764.229 222.706 763.683 223.293 763.283 224.04C762.896 224.773 762.703 225.62 762.703 226.58C762.703 227.606 763.003 228.406 763.603 228.98C764.216 229.553 765.083 229.84 766.203 229.84C766.883 229.84 767.509 229.713 768.083 229.46C768.669 229.193 769.149 228.813 769.523 228.32L770.543 229.1C770.089 229.726 769.469 230.22 768.683 230.58C767.896 230.926 767.049 231.1 766.143 231.1ZM777.052 231.1C776.132 231.1 775.365 230.913 774.752 230.54C774.152 230.166 773.739 229.633 773.512 228.94C773.285 228.246 773.259 227.426 773.432 226.48L774.632 220.5H776.052L774.852 226.48C774.652 227.52 774.765 228.34 775.192 228.94C775.619 229.526 776.365 229.82 777.432 229.82C778.539 229.82 779.459 229.513 780.192 228.9C780.939 228.286 781.439 227.366 781.692 226.14L782.812 220.5H784.232L782.132 231H780.772L781.372 227.98L781.672 228.48C781.179 229.386 780.525 230.053 779.712 230.48C778.912 230.893 778.025 231.1 777.052 231.1ZM786.09 231L788.17 220.5H789.53L788.93 223.6L788.77 223.06C789.236 222.14 789.85 221.466 790.61 221.04C791.383 220.613 792.343 220.4 793.49 220.4L793.23 221.78C793.163 221.78 793.096 221.78 793.03 221.78C792.976 221.766 792.91 221.76 792.83 221.76C791.71 221.76 790.783 222.086 790.05 222.74C789.33 223.38 788.836 224.353 788.57 225.66L787.51 231H786.09ZM793.961 231L796.041 220.5H797.461L795.381 231H793.961ZM797.361 218.18C797.081 218.18 796.847 218.086 796.661 217.9C796.487 217.713 796.401 217.493 796.401 217.24C796.401 216.946 796.501 216.693 796.701 216.48C796.914 216.266 797.181 216.16 797.501 216.16C797.781 216.16 798.014 216.246 798.201 216.42C798.387 216.593 798.481 216.813 798.481 217.08C798.481 217.4 798.374 217.666 798.161 217.88C797.947 218.08 797.681 218.18 797.361 218.18ZM802.672 231.1C802.072 231.1 801.558 230.973 801.132 230.72C800.705 230.453 800.405 230.08 800.232 229.6C800.072 229.12 800.058 228.546 800.192 227.88L802.112 218.18H803.532L801.612 227.82C801.478 228.473 801.525 228.98 801.752 229.34C801.992 229.7 802.425 229.88 803.052 229.88C803.345 229.88 803.632 229.84 803.912 229.76C804.192 229.666 804.445 229.526 804.672 229.34L805.012 230.42C804.678 230.673 804.305 230.853 803.892 230.96C803.478 231.053 803.072 231.1 802.672 231.1ZM799.552 221.68L799.772 220.5H806.272L806.032 221.68H799.552ZM811.886 231.1C810.886 231.1 810.012 230.92 809.266 230.56C808.532 230.186 807.966 229.666 807.566 229C807.179 228.333 806.986 227.54 806.986 226.62C806.986 225.42 807.239 224.353 807.746 223.42C808.252 222.486 808.946 221.753 809.826 221.22C810.706 220.673 811.699 220.4 812.806 220.4C813.739 220.4 814.546 220.58 815.226 220.94C815.906 221.286 816.432 221.793 816.806 222.46C817.192 223.126 817.386 223.926 817.386 224.86C817.386 225.073 817.372 225.293 817.346 225.52C817.319 225.733 817.286 225.94 817.246 226.14H808.026L808.206 225.08H816.586L816.006 225.48C816.139 224.64 816.079 223.933 815.826 223.36C815.572 222.786 815.179 222.353 814.646 222.06C814.126 221.753 813.499 221.6 812.766 221.6C811.912 221.6 811.152 221.813 810.486 222.24C809.819 222.653 809.299 223.233 808.926 223.98C808.552 224.713 808.366 225.573 808.366 226.56C808.366 227.613 808.666 228.426 809.266 229C809.879 229.56 810.792 229.84 812.006 229.84C812.712 229.84 813.366 229.726 813.966 229.5C814.566 229.26 815.059 228.933 815.446 228.52L816.086 229.54C815.592 230.033 814.972 230.42 814.226 230.7C813.492 230.966 812.712 231.1 811.886 231.1ZM812.086 218.88L815.126 216.4H817.066L813.566 218.88H812.086ZM819.456 231.1C819.163 231.1 818.916 231 818.716 230.8C818.516 230.6 818.416 230.353 818.416 230.06C818.416 229.726 818.529 229.453 818.756 229.24C818.983 229.026 819.243 228.92 819.536 228.92C819.829 228.92 820.069 229.02 820.256 229.22C820.456 229.406 820.556 229.653 820.556 229.96C820.556 230.186 820.503 230.386 820.396 230.56C820.303 230.72 820.169 230.853 819.996 230.96C819.823 231.053 819.643 231.1 819.456 231.1Z" fill="white"/>
</g>
<defs>
<filter id="filter0_d_2720_1745" x="8" y="9.70227" width="945.127" height="427.706" filterUnits="userSpaceOnUse" color-interpolation-filters="sRGB">
<feFlood flood-opacity="0" result="BackgroundImageFix"/>
<feColorMatrix in="SourceAlpha" type="matrix" values="0 0 0 0 0 0 0 0 0 0 0 0 0 0 0 0 0 0 127 0" result="hardAlpha"/>
<feOffset dy="4"/>
<feGaussianBlur stdDeviation="5"/>
<feComposite in2="hardAlpha" operator="out"/>
<feColorMatrix type="matrix" values="0 0 0 0 0 0 0 0 0 0 0 0 0 0 0 0 0 0 0.25 0"/>
<feBlend mode="normal" in2="BackgroundImageFix" result="effect1_dropShadow_2720_1745"/>
<feBlend mode="normal" in="SourceGraphic" in2="effect1_dropShadow_2720_1745" result="shape"/>
</filter>
<linearGradient id="paint0_linear_2720_1745" x1="252.204" y1="305.807" x2="172.203" y2="259.807" gradientUnits="userSpaceOnUse">
<stop stop-color="#037EDB"/>
<stop offset="1" stop-color="#20BAFF"/>
</linearGradient>
<linearGradient id="paint1_linear_2720_1745" x1="243.953" y1="305.864" x2="325.452" y2="258.864" gradientUnits="userSpaceOnUse">
<stop stop-color="#20BAFF"/>
<stop offset="1" stop-color="#037EDB"/>
</linearGradient>
<linearGradient id="paint2_linear_2720_1745" x1="181.529" y1="225.384" x2="318.068" y2="225.384" gradientUnits="userSpaceOnUse">
<stop stop-color="#86AFF0"/>
<stop offset="0.0001" stop-color="#86AFF0"/>
<stop offset="1" stop-color="#E9F1FD"/>
</linearGradient>
<linearGradient id="paint3_linear_2720_1745" x1="181.529" y1="252.885" x2="318.068" y2="252.885" gradientUnits="userSpaceOnUse">
<stop stop-color="#86AFF0"/>
<stop offset="0.0001" stop-color="#86AFF0"/>
<stop offset="1" stop-color="#E9F1FD"/>
</linearGradient>
<linearGradient id="paint4_linear_2720_1745" x1="181.529" y1="252.885" x2="318.068" y2="252.885" gradientUnits="userSpaceOnUse">
<stop stop-color="#86AFF0"/>
<stop offset="0.0001" stop-color="#86AFF0"/>
<stop offset="1" stop-color="#E9F1FD"/>
</linearGradient>
<linearGradient id="paint5_linear_2720_1745" x1="252.204" y1="261.807" x2="172.203" y2="215.807" gradientUnits="userSpaceOnUse">
<stop stop-color="#037EDB"/>
<stop offset="1" stop-color="#20BAFF"/>
</linearGradient>
<linearGradient id="paint6_linear_2720_1745" x1="243.953" y1="261.864" x2="325.452" y2="214.864" gradientUnits="userSpaceOnUse">
<stop stop-color="#20BAFF"/>
<stop offset="1" stop-color="#037EDB"/>
</linearGradient>
<linearGradient id="paint7_linear_2720_1745" x1="181.529" y1="181.384" x2="318.068" y2="181.384" gradientUnits="userSpaceOnUse">
<stop stop-color="#86AFF0"/>
<stop offset="0.0001" stop-color="#86AFF0"/>
<stop offset="1" stop-color="#E9F1FD"/>
</linearGradient>
<linearGradient id="paint8_linear_2720_1745" x1="181.529" y1="208.885" x2="318.068" y2="208.885" gradientUnits="userSpaceOnUse">
<stop stop-color="#86AFF0"/>
<stop offset="0.0001" stop-color="#86AFF0"/>
<stop offset="1" stop-color="#E9F1FD"/>
</linearGradient>
<linearGradient id="paint9_linear_2720_1745" x1="181.529" y1="208.885" x2="318.068" y2="208.885" gradientUnits="userSpaceOnUse">
<stop stop-color="#86AFF0"/>
<stop offset="0.0001" stop-color="#86AFF0"/>
<stop offset="1" stop-color="#E9F1FD"/>
</linearGradient>
<linearGradient id="paint10_linear_2720_1745" x1="252.204" y1="217.807" x2="172.203" y2="171.807" gradientUnits="userSpaceOnUse">
<stop stop-color="#037EDB"/>
<stop offset="1" stop-color="#20BAFF"/>
</linearGradient>
<linearGradient id="paint11_linear_2720_1745" x1="243.953" y1="217.864" x2="325.452" y2="170.864" gradientUnits="userSpaceOnUse">
<stop stop-color="#20BAFF"/>
<stop offset="1" stop-color="#037EDB"/>
</linearGradient>
<linearGradient id="paint12_linear_2720_1745" x1="181.529" y1="137.384" x2="318.068" y2="137.384" gradientUnits="userSpaceOnUse">
<stop stop-color="#86AFF0"/>
<stop offset="0.0001" stop-color="#86AFF0"/>
<stop offset="1" stop-color="#E9F1FD"/>
</linearGradient>
<linearGradient id="paint13_linear_2720_1745" x1="181.529" y1="164.885" x2="318.068" y2="164.885" gradientUnits="userSpaceOnUse">
<stop stop-color="#86AFF0"/>
<stop offset="0.0001" stop-color="#86AFF0"/>
<stop offset="1" stop-color="#E9F1FD"/>
</linearGradient>
<linearGradient id="paint14_linear_2720_1745" x1="181.529" y1="164.885" x2="318.068" y2="164.885" gradientUnits="userSpaceOnUse">
<stop stop-color="#86AFF0"/>
<stop offset="0.0001" stop-color="#86AFF0"/>
<stop offset="1" stop-color="#E9F1FD"/>
</linearGradient>
<linearGradient id="paint15_linear_2720_1745" x1="252.204" y1="173.807" x2="172.203" y2="127.807" gradientUnits="userSpaceOnUse">
<stop stop-color="#037EDB"/>
<stop offset="1" stop-color="#20BAFF"/>
</linearGradient>
<linearGradient id="paint16_linear_2720_1745" x1="243.953" y1="173.864" x2="325.452" y2="126.864" gradientUnits="userSpaceOnUse">
<stop stop-color="#20BAFF"/>
<stop offset="1" stop-color="#037EDB"/>
</linearGradient>
<linearGradient id="paint17_linear_2720_1745" x1="181.529" y1="93.3845" x2="318.068" y2="93.3845" gradientUnits="userSpaceOnUse">
<stop stop-color="#86AFF0"/>
<stop offset="0.0001" stop-color="#86AFF0"/>
<stop offset="1" stop-color="#E9F1FD"/>
</linearGradient>
<linearGradient id="paint18_linear_2720_1745" x1="181.529" y1="120.885" x2="318.068" y2="120.885" gradientUnits="userSpaceOnUse">
<stop stop-color="#86AFF0"/>
<stop offset="0.0001" stop-color="#86AFF0"/>
<stop offset="1" stop-color="#E9F1FD"/>
</linearGradient>
<linearGradient id="paint19_linear_2720_1745" x1="181.529" y1="120.885" x2="318.068" y2="120.885" gradientUnits="userSpaceOnUse">
<stop stop-color="#86AFF0"/>
<stop offset="0.0001" stop-color="#86AFF0"/>
<stop offset="1" stop-color="#E9F1FD"/>
</linearGradient>
<linearGradient id="paint20_linear_2720_1745" x1="248.067" y1="10" x2="248.067" y2="134" gradientUnits="userSpaceOnUse">
<stop stop-color="#0085FF"/>
<stop offset="1" stop-color="#00DDFF"/>
</linearGradient>
<clipPath id="clip0_2720_1745">
<rect width="962" height="440" fill="white"/>
</clipPath>
</defs>
</svg>
