<svg width="114" height="32" viewBox="0 0 114 32" fill="none" xmlns="http://www.w3.org/2000/svg">
<rect x="0.404907" width="112.852" height="32" rx="15" fill="#012E40"/>
<path d="M36 15.4991C36 20.187 32.2493 24 27.64 24C27.6164 24 27.592 24 27.5685 23.9991H21.0716C17.7245 23.9991 15 21.2295 15 17.8251C15 14.7473 17.2269 12.1876 20.1278 11.7248C19.9134 12.4645 19.8048 13.2218 19.8048 13.9818C19.8048 14.1584 19.8102 14.3314 19.8211 14.4943C19.8247 14.5468 19.8283 14.5992 19.8329 14.6517C19.6465 14.7271 19.4682 14.8191 19.2999 14.9258C18.3489 15.5294 17.7146 16.6032 17.7146 17.8251C17.7146 19.7067 19.2212 21.2387 21.0716 21.2387H27.5676C27.5812 21.2397 27.5947 21.2397 27.6083 21.2397H27.64C30.7527 21.2397 33.2854 18.6642 33.2854 15.4991C33.2854 12.6541 31.2395 10.2866 28.5647 9.8367C28.2698 9.78702 27.9676 9.76033 27.6599 9.75941H27.64C27.5974 9.75941 27.5558 9.75941 27.5142 9.76125H27.4943C27.4608 9.76125 27.4273 9.7631 27.3939 9.76494C27.3577 9.76677 27.3223 9.76861 27.2871 9.77045C27.2816 9.77137 27.2762 9.77137 27.2708 9.7723C27.2328 9.77506 27.1957 9.77781 27.1577 9.7815C27.1197 9.78518 27.0807 9.78885 27.0428 9.79346C27.0102 9.79714 26.9776 9.80174 26.9451 9.80542C25.937 9.94436 25.0855 10.3934 24.4567 11.123C24.3164 11.2859 24.1879 11.4625 24.073 11.6502C24.0378 11.7064 24.0043 11.7643 23.9717 11.8223C23.8894 11.9714 23.8152 12.1259 23.75 12.2842C23.5265 12.8234 23.4043 13.4095 23.4043 13.9818C23.4043 14.0858 23.4089 14.2357 23.4288 14.4106C23.5075 15.0988 23.8233 16.1615 25.0159 16.1873H25.0358C25.0439 16.1882 25.0521 16.1882 25.0612 16.1882C25.5425 16.1882 25.9352 15.7898 25.9352 15.2994V15.2865C25.928 14.8016 25.538 14.4106 25.0612 14.4106H24.3608C24.3562 14.3765 24.3517 14.3416 24.3472 14.3047C24.3355 14.199 24.3291 14.0876 24.3291 13.9818C24.3291 13.5392 24.4241 13.0755 24.6033 12.6421C24.6558 12.5161 24.7146 12.3928 24.7788 12.2759C24.8006 12.2382 24.8277 12.1894 24.8548 12.1462L24.8575 12.1416L24.8612 12.137C24.9227 12.0358 24.9896 11.9392 25.0612 11.8471C25.0919 11.8067 25.1245 11.7671 25.157 11.7294C25.1787 11.7036 25.2014 11.6788 25.2249 11.6539C27.1278 11.7413 28.6498 13.3432 28.6498 15.2994C28.6498 16.5305 28.048 17.6199 27.1269 18.2815C26.774 18.5354 26.3732 18.7259 25.9407 18.8372C25.6592 18.9099 25.3651 18.9486 25.0612 18.9486C25.053 18.9486 25.0448 18.9486 25.0358 18.9476C25.0322 18.9486 25.0286 18.9476 25.0249 18.9476H24.9887C24.9824 18.9476 24.9752 18.9476 24.9688 18.9467H24.9679C24.9679 18.9467 24.9643 18.9476 24.9625 18.9467H24.9408C24.9345 18.9467 24.9272 18.9458 24.9209 18.9458C24.9128 18.9449 24.9046 18.9449 24.8964 18.9439C24.6874 18.9366 24.4838 18.9155 24.2856 18.8805C23.7011 18.7774 23.169 18.5602 22.7049 18.2447C21.5666 17.4755 20.8336 16.1211 20.7241 14.4308C20.7142 14.2836 20.7097 14.1336 20.7097 13.9818C20.7097 13.2015 20.8418 12.4213 21.0915 11.6815C21.0942 11.6714 21.0978 11.6604 21.1024 11.6502C21.3955 10.789 21.848 9.98484 22.4343 9.30396C23.2025 8.41237 24.4992 7.37633 26.5071 7.08097C26.5713 7.07177 26.6374 7.06349 26.7035 7.05521C26.7704 7.04693 26.8374 7.03956 26.9052 7.03404C26.9215 7.0322 26.9378 7.03036 26.9532 7.02944C27.0156 7.02392 27.0781 7.01932 27.1414 7.01564C27.1559 7.01472 27.1694 7.0138 27.183 7.01288C27.2428 7.0092 27.3025 7.00644 27.3631 7.0046C27.4119 7.00276 27.4608 7.00184 27.5106 7C27.5531 7 27.5965 7 27.64 7H27.6599C27.9657 7 28.2679 7.0184 28.5647 7.05245C32.7406 7.52078 36 11.1304 36 15.5V15.4991Z" fill="white"/>
<path d="M41.0619 23.7098V7.18884H44.1366V23.7098H41.0619Z" fill="white"/>
<path d="M46.2298 14.8002C46.758 13.864 47.4833 13.1166 48.4057 12.5581C49.3281 11.9995 50.3412 11.7202 51.4449 11.7202C52.454 11.7202 53.4237 11.9523 54.354 12.4165C55.2843 12.8806 56.0529 13.5533 56.66 14.4344C57.2671 15.3155 57.5863 16.3539 57.6179 17.5497C57.6337 18.0532 57.6021 18.541 57.5233 19.013H48.7486C48.8906 19.5952 49.202 20.0554 49.6829 20.3937C50.1638 20.732 50.7511 20.9011 51.4449 20.9011C51.9337 20.9011 52.3318 20.8382 52.6392 20.7123C52.9467 20.5864 53.2266 20.4212 53.4789 20.2167L57.1449 20.2403C56.6561 21.3259 55.9071 22.2071 54.8979 22.8836C53.8888 23.5602 52.7694 23.8985 51.5395 23.8985C50.42 23.8985 49.3951 23.6271 48.4649 23.0842C47.5346 22.5414 46.7974 21.8058 46.2534 20.8775C45.7095 19.9492 45.4375 18.9343 45.4375 17.8329C45.4375 16.7316 45.7016 15.7364 46.2298 14.8002ZM54.3303 16.5585C54.0939 16.0078 53.7193 15.5633 53.2069 15.225C52.6945 14.8867 52.1387 14.7176 51.5395 14.7176C50.8773 14.7176 50.3096 14.8828 49.8366 15.2132C49.3636 15.5436 49.0009 15.9921 48.7486 16.5585H54.3303Z" fill="white"/>
<path d="M57.7361 11.9091H60.9527L63.6489 19.6739L66.3688 11.9091H69.5854L65.1863 23.7097H62.1116L57.7361 11.9091Z" fill="white"/>
<path d="M70.8271 10.1272C70.4723 9.77315 70.295 9.33653 70.295 8.8173C70.295 8.29807 70.4723 7.88505 70.8271 7.53103C71.1819 7.17701 71.6194 7 72.1397 7C72.6601 7 73.074 7.17701 73.4288 7.53103C73.7835 7.88505 73.9609 8.3138 73.9609 8.8173C73.9609 9.3208 73.7835 9.77315 73.4288 10.1272C73.074 10.4812 72.6443 10.6582 72.1397 10.6582C71.6352 10.6582 71.1819 10.4812 70.8271 10.1272ZM70.6025 11.9091H73.6771V23.7097H70.6025V11.9091Z" fill="white"/>
<path d="M76.385 10.1272C76.0303 9.77315 75.8529 9.33653 75.8529 8.8173C75.8529 8.29807 76.0303 7.88505 76.385 7.53103C76.7398 7.17701 77.1774 7 77.6977 7C78.2181 7 78.6319 7.17701 78.9867 7.53103C79.3414 7.88505 79.5188 8.3138 79.5188 8.8173C79.5188 9.3208 79.3414 9.77315 78.9867 10.1272C78.6319 10.4812 78.2023 10.6582 77.6977 10.6582C77.1931 10.6582 76.7398 10.4812 76.385 10.1272ZM76.1604 11.9091H79.235V23.7097H76.1604V11.9091Z" fill="white"/>
<path d="M83.8706 23.0842C82.9404 22.5414 82.1993 21.8019 81.6474 20.8657C81.0956 19.9295 80.8196 18.9107 80.8196 17.8094C80.8196 16.708 81.0956 15.6892 81.6474 14.753C82.1993 13.8168 82.9404 13.0773 83.8706 12.5345C84.8009 11.9916 85.8179 11.7202 86.9217 11.7202C88.0254 11.7202 89.0424 11.9916 89.9727 12.5345C90.9029 13.0773 91.6401 13.8168 92.1841 14.753C92.728 15.6892 93 16.708 93 17.8094V23.7097H89.9253V22.4588C89.7519 22.8521 89.3735 23.1904 88.7901 23.4736C88.2067 23.7569 87.5839 23.8985 86.9217 23.8985C85.8179 23.8985 84.8009 23.6271 83.8706 23.0842ZM89.0975 20.0161C89.6652 19.426 89.949 18.6905 89.949 17.8094C89.949 16.9282 89.6652 16.1927 89.0975 15.6026C88.5299 15.0126 87.8125 14.7176 86.9453 14.7176C86.078 14.7176 85.3528 15.0126 84.7694 15.6026C84.1859 16.1927 83.8943 16.9282 83.8943 17.8094C83.8943 18.6905 84.1859 19.426 84.7694 20.0161C85.3528 20.6061 86.078 20.9011 86.9453 20.9011C87.8125 20.9011 88.5299 20.6061 89.0975 20.0161Z" fill="white"/>
</svg>
