<svg width="384" height="70" viewBox="0 0 384 70" fill="none" xmlns="http://www.w3.org/2000/svg">
<path d="M9 28L0 39H2C2 51.4194 7.6835 57.5806 13.0036 61.3441C18.3237 65.1075 24.9599 65.4839 28 70C31.0401 65.4839 37.3241 65.1075 42.6442 61.3441C47.9642 57.5806 54 51.4194 54 39H56L47 28V39.8679C47 50.477 38.566 58.8 28 58.8C17.434 58.8 8.9815 50.3679 9 39.8679V28Z" fill="white"/>
<path fill-rule="evenodd" clip-rule="evenodd" d="M28 55.3C23.0692 55.3 18.6667 53.2 15.8491 49.7L16.1175 47.985L37.6017 35.6648L39.7987 49.7C36.9811 53.2 32.9308 55.3 28 55.3ZM17.5064 39.1125L16.8101 43.5608L37.0234 31.9698L36.4412 28.2505L17.5064 39.1125ZM18.2004 34.6786L18.8956 30.2372L35.2793 20.828L35.8602 24.5388L18.2004 34.6786ZM21 18L19.5897 25.8033L32.8868 18H35H38.5L35 14V8L28 0L21 8V14L17.5 18H21ZM26 11C26 10.2473 26.48 9.4086 28 9.4086C29.52 9.4086 30 10.2473 30 11V14H26V11Z" fill="white"/>
<path d="M86.111 48.4322C84.167 48.4322 82.355 48.1202 80.675 47.4962C79.019 46.8482 77.579 45.9362 76.354 44.7602C75.131 43.5842 74.171 42.2042 73.475 40.6202C72.803 39.0362 72.467 37.2962 72.467 35.4002C72.467 33.5042 72.803 31.7642 73.475 30.1802C74.171 28.5962 75.131 27.2162 76.354 26.0402C77.603 24.8642 79.055 23.9642 80.711 23.3402C82.367 22.6922 84.179 22.3682 86.147 22.3682C88.331 22.3682 90.299 22.7522 92.051 23.5202C93.827 24.2642 95.315 25.3682 96.515 26.8322L92.771 30.2882C91.907 29.3042 90.947 28.5722 89.891 28.0922C88.835 27.5882 87.683 27.3362 86.435 27.3362C85.259 27.3362 84.179 27.5282 83.195 27.9122C82.211 28.2962 81.359 28.8482 80.639 29.5682C79.919 30.2882 79.355 31.1402 78.947 32.1242C78.563 33.1082 78.371 34.2002 78.371 35.4002C78.371 36.6002 78.563 37.6922 78.947 38.6762C79.355 39.6602 79.919 40.5122 80.639 41.2322C81.359 41.9522 82.211 42.5042 83.195 42.8882C84.179 43.2722 85.259 43.4642 86.435 43.4642C87.683 43.4642 88.835 43.2242 89.891 42.7442C90.947 42.2402 91.907 41.4842 92.771 40.4762L96.515 43.9322C95.315 45.3962 93.827 46.5122 92.051 47.2802C90.299 48.0482 88.319 48.4322 86.111 48.4322ZM100.453 48.0002V22.8002H106.285V43.2482H118.921V48.0002H100.453ZM133.998 48.4322C132.006 48.4322 130.158 48.1082 128.454 47.4602C126.774 46.8122 125.31 45.9002 124.062 44.7242C122.838 43.5482 121.878 42.1682 121.182 40.5842C120.51 39.0002 120.174 37.2722 120.174 35.4002C120.174 33.5282 120.51 31.8002 121.182 30.2162C121.878 28.6322 122.85 27.2522 124.098 26.0762C125.346 24.9002 126.81 23.9882 128.49 23.3402C130.17 22.6922 131.994 22.3682 133.962 22.3682C135.954 22.3682 137.778 22.6922 139.434 23.3402C141.114 23.9882 142.566 24.9002 143.79 26.0762C145.038 27.2522 146.01 28.6322 146.706 30.2162C147.402 31.7762 147.75 33.5042 147.75 35.4002C147.75 37.2722 147.402 39.0122 146.706 40.6202C146.01 42.2042 145.038 43.5842 143.79 44.7602C142.566 45.9122 141.114 46.8122 139.434 47.4602C137.778 48.1082 135.966 48.4322 133.998 48.4322ZM133.962 43.4642C135.09 43.4642 136.122 43.2722 137.058 42.8882C138.018 42.5042 138.858 41.9522 139.578 41.2322C140.298 40.5122 140.85 39.6602 141.234 38.6762C141.642 37.6922 141.846 36.6002 141.846 35.4002C141.846 34.2002 141.642 33.1082 141.234 32.1242C140.85 31.1402 140.298 30.2882 139.578 29.5682C138.882 28.8482 138.054 28.2962 137.094 27.9122C136.134 27.5282 135.09 27.3362 133.962 27.3362C132.834 27.3362 131.79 27.5282 130.83 27.9122C129.894 28.2962 129.066 28.8482 128.346 29.5682C127.626 30.2882 127.062 31.1402 126.654 32.1242C126.27 33.1082 126.078 34.2002 126.078 35.4002C126.078 36.5762 126.27 37.6682 126.654 38.6762C127.062 39.6602 127.614 40.5122 128.31 41.2322C129.03 41.9522 129.87 42.5042 130.83 42.8882C131.79 43.2722 132.834 43.4642 133.962 43.4642ZM163.329 48.4322C159.753 48.4322 156.957 47.4362 154.941 45.4442C152.925 43.4522 151.917 40.6082 151.917 36.9122V22.8002H157.749V36.6962C157.749 39.0962 158.241 40.8242 159.225 41.8802C160.209 42.9362 161.589 43.4642 163.365 43.4642C165.141 43.4642 166.521 42.9362 167.505 41.8802C168.489 40.8242 168.981 39.0962 168.981 36.6962V22.8002H174.741V36.9122C174.741 40.6082 173.733 43.4522 171.717 45.4442C169.701 47.4362 166.905 48.4322 163.329 48.4322ZM180.504 48.0002V22.8002H191.952C194.688 22.8002 197.1 23.3282 199.188 24.3842C201.276 25.4162 202.908 26.8682 204.084 28.7402C205.26 30.6122 205.848 32.8322 205.848 35.4002C205.848 37.9442 205.26 40.1642 204.084 42.0602C202.908 43.9322 201.276 45.3962 199.188 46.4522C197.1 47.4842 194.688 48.0002 191.952 48.0002H180.504ZM186.336 43.2122H191.664C193.344 43.2122 194.796 42.9002 196.02 42.2762C197.268 41.6282 198.228 40.7162 198.9 39.5402C199.596 38.3642 199.944 36.9842 199.944 35.4002C199.944 33.7922 199.596 32.4122 198.9 31.2602C198.228 30.0842 197.268 29.1842 196.02 28.5602C194.796 27.9122 193.344 27.5882 191.664 27.5882H186.336V43.2122ZM237.721 22.8002H243.553V48.0002H237.721V22.8002ZM226.273 48.0002H220.441V22.8002H226.273V48.0002ZM238.153 37.6682H225.841V32.7362H238.153V37.6682ZM246.203 48.0002L257.435 22.8002H263.195L274.463 48.0002H268.343L259.127 25.7522H261.431L252.179 48.0002H246.203ZM251.819 42.6002L253.367 38.1722H266.327L267.911 42.6002H251.819ZM277.078 48.0002V22.8002H287.986C290.242 22.8002 292.186 23.1722 293.818 23.9162C295.45 24.6362 296.71 25.6802 297.598 27.0482C298.486 28.4162 298.93 30.0482 298.93 31.9442C298.93 33.8162 298.486 35.4362 297.598 36.8042C296.71 38.1482 295.45 39.1802 293.818 39.9002C292.186 40.6202 290.242 40.9802 287.986 40.9802H280.318L282.91 38.4242V48.0002H277.078ZM293.098 48.0002L286.798 38.8562H293.026L299.398 48.0002H293.098ZM282.91 39.0722L280.318 36.3362H287.662C289.462 36.3362 290.806 35.9522 291.694 35.1842C292.582 34.3922 293.026 33.3122 293.026 31.9442C293.026 30.5522 292.582 29.4722 291.694 28.7042C290.806 27.9362 289.462 27.5522 287.662 27.5522H280.318L282.91 24.7802V39.0722ZM303.551 48.0002V22.8002H315.863C319.031 22.8002 321.407 23.4002 322.991 24.6002C324.599 25.8002 325.403 27.3842 325.403 29.3522C325.403 30.6722 325.079 31.8242 324.431 32.8082C323.783 33.7682 322.895 34.5122 321.767 35.0402C320.639 35.5682 319.343 35.8322 317.879 35.8322L318.562 34.3562C320.147 34.3562 321.551 34.6202 322.775 35.1482C323.999 35.6522 324.947 36.4082 325.619 37.4162C326.315 38.4242 326.663 39.6602 326.663 41.1242C326.663 43.2842 325.811 44.9762 324.107 46.2002C322.403 47.4002 319.895 48.0002 316.583 48.0002H303.551ZM309.347 43.6082H316.151C317.663 43.6082 318.803 43.3682 319.57 42.8882C320.363 42.3842 320.759 41.5922 320.759 40.5122C320.759 39.4562 320.363 38.6762 319.57 38.1722C318.803 37.6442 317.663 37.3802 316.151 37.3802H308.915V33.1322H315.143C316.559 33.1322 317.639 32.8922 318.383 32.4122C319.151 31.9082 319.535 31.1522 319.535 30.1442C319.535 29.1602 319.151 28.4282 318.383 27.9482C317.639 27.4442 316.559 27.1922 315.143 27.1922H309.347V43.6082ZM343.318 48.4322C341.326 48.4322 339.478 48.1082 337.774 47.4602C336.094 46.8122 334.63 45.9002 333.382 44.7242C332.158 43.5482 331.198 42.1682 330.502 40.5842C329.83 39.0002 329.494 37.2722 329.494 35.4002C329.494 33.5282 329.83 31.8002 330.502 30.2162C331.198 28.6322 332.17 27.2522 333.418 26.0762C334.666 24.9002 336.13 23.9882 337.81 23.3402C339.49 22.6922 341.314 22.3682 343.282 22.3682C345.274 22.3682 347.098 22.6922 348.754 23.3402C350.434 23.9882 351.886 24.9002 353.11 26.0762C354.358 27.2522 355.33 28.6322 356.026 30.2162C356.722 31.7762 357.07 33.5042 357.07 35.4002C357.07 37.2722 356.722 39.0122 356.026 40.6202C355.33 42.2042 354.358 43.5842 353.11 44.7602C351.886 45.9122 350.434 46.8122 348.754 47.4602C347.098 48.1082 345.286 48.4322 343.318 48.4322ZM343.282 43.4642C344.41 43.4642 345.442 43.2722 346.378 42.8882C347.338 42.5042 348.178 41.9522 348.898 41.2322C349.618 40.5122 350.17 39.6602 350.554 38.6762C350.962 37.6922 351.166 36.6002 351.166 35.4002C351.166 34.2002 350.962 33.1082 350.554 32.1242C350.17 31.1402 349.618 30.2882 348.898 29.5682C348.202 28.8482 347.374 28.2962 346.414 27.9122C345.454 27.5282 344.41 27.3362 343.282 27.3362C342.154 27.3362 341.11 27.5282 340.15 27.9122C339.214 28.2962 338.386 28.8482 337.666 29.5682C336.946 30.2882 336.382 31.1402 335.974 32.1242C335.59 33.1082 335.398 34.2002 335.398 35.4002C335.398 36.5762 335.59 37.6682 335.974 38.6762C336.382 39.6602 336.934 40.5122 337.63 41.2322C338.35 41.9522 339.19 42.5042 340.15 42.8882C341.11 43.2722 342.154 43.4642 343.282 43.4642ZM361.453 48.0002V22.8002H372.361C374.617 22.8002 376.561 23.1722 378.193 23.9162C379.825 24.6362 381.085 25.6802 381.973 27.0482C382.861 28.4162 383.305 30.0482 383.305 31.9442C383.305 33.8162 382.861 35.4362 381.973 36.8042C381.085 38.1482 379.825 39.1802 378.193 39.9002C376.561 40.6202 374.617 40.9802 372.361 40.9802H364.693L367.285 38.4242V48.0002H361.453ZM377.473 48.0002L371.173 38.8562H377.401L383.773 48.0002H377.473ZM367.285 39.0722L364.693 36.3362H372.037C373.837 36.3362 375.181 35.9522 376.069 35.1842C376.957 34.3922 377.401 33.3122 377.401 31.9442C377.401 30.5522 376.957 29.4722 376.069 28.7042C375.181 27.9362 373.837 27.5522 372.037 27.5522H364.693L367.285 24.7802V39.0722Z" fill="white"/>
</svg>
