<svg width="450" height="120" viewBox="0 0 450 120" fill="none" xmlns="http://www.w3.org/2000/svg">
<path d="M41 53L32 64H34C34 76.4194 39.6835 82.5806 45.0036 86.3441C50.3237 90.1075 56.9599 90.4839 60 95C63.0401 90.4839 69.3241 90.1075 74.6442 86.3441C79.9642 82.5806 86 76.4194 86 64H88L79 53V64.8679C79 75.477 70.566 83.8 60 83.8C49.434 83.8 40.9815 75.3679 41 64.8679V53Z" fill="white"/>
<path fill-rule="evenodd" clip-rule="evenodd" d="M60 80.3C55.0692 80.3 50.6667 78.2 47.8491 74.7L48.1175 72.985L69.6017 60.6648L71.7987 74.7C68.9811 78.2 64.9308 80.3 60 80.3ZM49.5064 64.1125L48.8101 68.5608L69.0234 56.9698L68.4412 53.2505L49.5064 64.1125ZM50.2004 59.6786L50.8956 55.2372L67.2793 45.828L67.8602 49.5388L50.2004 59.6786ZM53 43L51.5897 50.8033L64.8868 43H67H70.5L67 39V33L60 25L53 33V39L49.5 43H53ZM58 36C58 35.2473 58.48 34.4086 60 34.4086C61.52 34.4086 62 35.2473 62 36V39H58V36Z" fill="white"/>
<path d="M118.111 73.432C116.167 73.432 114.355 73.12 112.675 72.496C111.019 71.848 109.579 70.936 108.354 69.76C107.131 68.584 106.171 67.204 105.475 65.62C104.803 64.036 104.467 62.296 104.467 60.4C104.467 58.504 104.803 56.764 105.475 55.18C106.171 53.596 107.131 52.216 108.354 51.04C109.603 49.864 111.055 48.964 112.711 48.34C114.367 47.692 116.179 47.368 118.147 47.368C120.331 47.368 122.299 47.752 124.051 48.52C125.827 49.264 127.315 50.368 128.515 51.832L124.771 55.288C123.907 54.304 122.947 53.572 121.891 53.092C120.835 52.588 119.683 52.336 118.435 52.336C117.259 52.336 116.179 52.528 115.195 52.912C114.211 53.296 113.359 53.848 112.639 54.568C111.919 55.288 111.355 56.14 110.947 57.124C110.563 58.108 110.371 59.2 110.371 60.4C110.371 61.6 110.563 62.692 110.947 63.676C111.355 64.66 111.919 65.512 112.639 66.232C113.359 66.952 114.211 67.504 115.195 67.888C116.179 68.272 117.259 68.464 118.435 68.464C119.683 68.464 120.835 68.224 121.891 67.744C122.947 67.24 123.907 66.484 124.771 65.476L128.515 68.932C127.315 70.396 125.827 71.512 124.051 72.28C122.299 73.048 120.319 73.432 118.111 73.432ZM132.453 73V47.8H138.285V68.248H150.921V73H132.453ZM165.998 73.432C164.006 73.432 162.158 73.108 160.454 72.46C158.774 71.812 157.31 70.9 156.062 69.724C154.838 68.548 153.878 67.168 153.182 65.584C152.51 64 152.174 62.272 152.174 60.4C152.174 58.528 152.51 56.8 153.182 55.216C153.878 53.632 154.85 52.252 156.098 51.076C157.346 49.9 158.81 48.988 160.49 48.34C162.17 47.692 163.994 47.368 165.962 47.368C167.954 47.368 169.778 47.692 171.434 48.34C173.114 48.988 174.566 49.9 175.79 51.076C177.038 52.252 178.01 53.632 178.706 55.216C179.402 56.776 179.75 58.504 179.75 60.4C179.75 62.272 179.402 64.012 178.706 65.62C178.01 67.204 177.038 68.584 175.79 69.76C174.566 70.912 173.114 71.812 171.434 72.46C169.778 73.108 167.966 73.432 165.998 73.432ZM165.962 68.464C167.09 68.464 168.122 68.272 169.058 67.888C170.018 67.504 170.858 66.952 171.578 66.232C172.298 65.512 172.85 64.66 173.234 63.676C173.642 62.692 173.846 61.6 173.846 60.4C173.846 59.2 173.642 58.108 173.234 57.124C172.85 56.14 172.298 55.288 171.578 54.568C170.882 53.848 170.054 53.296 169.094 52.912C168.134 52.528 167.09 52.336 165.962 52.336C164.834 52.336 163.79 52.528 162.83 52.912C161.894 53.296 161.066 53.848 160.346 54.568C159.626 55.288 159.062 56.14 158.654 57.124C158.27 58.108 158.078 59.2 158.078 60.4C158.078 61.576 158.27 62.668 158.654 63.676C159.062 64.66 159.614 65.512 160.31 66.232C161.03 66.952 161.87 67.504 162.83 67.888C163.79 68.272 164.834 68.464 165.962 68.464ZM195.329 73.432C191.753 73.432 188.957 72.436 186.941 70.444C184.925 68.452 183.917 65.608 183.917 61.912V47.8H189.749V61.696C189.749 64.096 190.241 65.824 191.225 66.88C192.209 67.936 193.589 68.464 195.365 68.464C197.141 68.464 198.521 67.936 199.505 66.88C200.489 65.824 200.981 64.096 200.981 61.696V47.8H206.741V61.912C206.741 65.608 205.733 68.452 203.717 70.444C201.701 72.436 198.905 73.432 195.329 73.432ZM212.504 73V47.8H223.952C226.688 47.8 229.1 48.328 231.188 49.384C233.276 50.416 234.908 51.868 236.084 53.74C237.26 55.612 237.848 57.832 237.848 60.4C237.848 62.944 237.26 65.164 236.084 67.06C234.908 68.932 233.276 70.396 231.188 71.452C229.1 72.484 226.688 73 223.952 73H212.504ZM218.336 68.212H223.664C225.344 68.212 226.796 67.9 228.02 67.276C229.268 66.628 230.228 65.716 230.9 64.54C231.596 63.364 231.944 61.984 231.944 60.4C231.944 58.792 231.596 57.412 230.9 56.26C230.228 55.084 229.268 54.184 228.02 53.56C226.796 52.912 225.344 52.588 223.664 52.588H218.336V68.212ZM269.721 47.8H275.553V73H269.721V47.8ZM258.273 73H252.441V47.8H258.273V73ZM270.153 62.668H257.841V57.736H270.153V62.668ZM278.203 73L289.435 47.8H295.195L306.463 73H300.343L291.127 50.752H293.431L284.179 73H278.203ZM283.819 67.6L285.367 63.172H298.327L299.911 67.6H283.819ZM309.078 73V47.8H319.986C322.242 47.8 324.186 48.172 325.818 48.916C327.45 49.636 328.71 50.68 329.598 52.048C330.486 53.416 330.93 55.048 330.93 56.944C330.93 58.816 330.486 60.436 329.598 61.804C328.71 63.148 327.45 64.18 325.818 64.9C324.186 65.62 322.242 65.98 319.986 65.98H312.318L314.91 63.424V73H309.078ZM325.098 73L318.798 63.856H325.026L331.398 73H325.098ZM314.91 64.072L312.318 61.336H319.662C321.462 61.336 322.806 60.952 323.694 60.184C324.582 59.392 325.026 58.312 325.026 56.944C325.026 55.552 324.582 54.472 323.694 53.704C322.806 52.936 321.462 52.552 319.662 52.552H312.318L314.91 49.78V64.072ZM335.551 73V47.8H347.863C351.031 47.8 353.407 48.4 354.991 49.6C356.599 50.8 357.403 52.384 357.403 54.352C357.403 55.672 357.079 56.824 356.431 57.808C355.783 58.768 354.895 59.512 353.767 60.04C352.639 60.568 351.343 60.832 349.879 60.832L350.562 59.356C352.147 59.356 353.551 59.62 354.775 60.148C355.999 60.652 356.947 61.408 357.619 62.416C358.315 63.424 358.663 64.66 358.663 66.124C358.663 68.284 357.811 69.976 356.107 71.2C354.403 72.4 351.895 73 348.583 73H335.551ZM341.347 68.608H348.151C349.663 68.608 350.803 68.368 351.57 67.888C352.363 67.384 352.759 66.592 352.759 65.512C352.759 64.456 352.363 63.676 351.57 63.172C350.803 62.644 349.663 62.38 348.151 62.38H340.915V58.132H347.143C348.559 58.132 349.639 57.892 350.383 57.412C351.151 56.908 351.535 56.152 351.535 55.144C351.535 54.16 351.151 53.428 350.383 52.948C349.639 52.444 348.559 52.192 347.143 52.192H341.347V68.608ZM375.318 73.432C373.326 73.432 371.478 73.108 369.774 72.46C368.094 71.812 366.63 70.9 365.382 69.724C364.158 68.548 363.198 67.168 362.502 65.584C361.83 64 361.494 62.272 361.494 60.4C361.494 58.528 361.83 56.8 362.502 55.216C363.198 53.632 364.17 52.252 365.418 51.076C366.666 49.9 368.13 48.988 369.81 48.34C371.49 47.692 373.314 47.368 375.282 47.368C377.274 47.368 379.098 47.692 380.754 48.34C382.434 48.988 383.886 49.9 385.11 51.076C386.358 52.252 387.33 53.632 388.026 55.216C388.722 56.776 389.07 58.504 389.07 60.4C389.07 62.272 388.722 64.012 388.026 65.62C387.33 67.204 386.358 68.584 385.11 69.76C383.886 70.912 382.434 71.812 380.754 72.46C379.098 73.108 377.286 73.432 375.318 73.432ZM375.282 68.464C376.41 68.464 377.442 68.272 378.378 67.888C379.338 67.504 380.178 66.952 380.898 66.232C381.618 65.512 382.17 64.66 382.554 63.676C382.962 62.692 383.166 61.6 383.166 60.4C383.166 59.2 382.962 58.108 382.554 57.124C382.17 56.14 381.618 55.288 380.898 54.568C380.202 53.848 379.374 53.296 378.414 52.912C377.454 52.528 376.41 52.336 375.282 52.336C374.154 52.336 373.11 52.528 372.15 52.912C371.214 53.296 370.386 53.848 369.666 54.568C368.946 55.288 368.382 56.14 367.974 57.124C367.59 58.108 367.398 59.2 367.398 60.4C367.398 61.576 367.59 62.668 367.974 63.676C368.382 64.66 368.934 65.512 369.63 66.232C370.35 66.952 371.19 67.504 372.15 67.888C373.11 68.272 374.154 68.464 375.282 68.464ZM393.453 73V47.8H404.361C406.617 47.8 408.561 48.172 410.193 48.916C411.825 49.636 413.085 50.68 413.973 52.048C414.861 53.416 415.305 55.048 415.305 56.944C415.305 58.816 414.861 60.436 413.973 61.804C413.085 63.148 411.825 64.18 410.193 64.9C408.561 65.62 406.617 65.98 404.361 65.98H396.693L399.285 63.424V73H393.453ZM409.473 73L403.173 63.856H409.401L415.773 73H409.473ZM399.285 64.072L396.693 61.336H404.037C405.837 61.336 407.181 60.952 408.069 60.184C408.957 59.392 409.401 58.312 409.401 56.944C409.401 55.552 408.957 54.472 408.069 53.704C407.181 52.936 405.837 52.552 404.037 52.552H396.693L399.285 49.78V64.072Z" fill="white"/>
</svg>
