<svg width="48" height="60" viewBox="0 0 48 60" fill="none" xmlns="http://www.w3.org/2000/svg">
<path d="M8.1665 24.1667L0.666504 33.3334H2.33317C2.33317 43.6828 7.06946 48.8172 11.5029 51.9534C15.9363 55.0896 21.4665 55.4033 23.9998 59.1667C26.5332 55.4033 31.7699 55.0896 36.2033 51.9534C40.6367 48.8172 45.6665 43.6828 45.6665 33.3334H47.3332L39.8332 24.1667V34.0566C39.8332 42.8976 32.8049 49.8334 23.9998 49.8334C15.1948 49.8334 8.15106 42.8066 8.1665 34.0566V24.1667Z" fill="url(#paint0_linear_920_1719)"/>
<path fill-rule="evenodd" clip-rule="evenodd" d="M23.9998 46.9167C19.8908 46.9167 16.2221 45.1667 13.8741 42.25L14.0978 40.8209L32.0013 30.554L33.8321 42.25C31.4841 45.1667 28.1089 46.9167 23.9998 46.9167ZM15.2551 33.4271L14.6749 37.134L31.5193 27.4749L31.0341 24.3754L15.2551 33.4271ZM15.8335 29.7322L16.4129 26.031L30.0659 18.1901L30.55 21.2824L15.8335 29.7322ZM18.1665 15.8334L16.9913 22.3361L28.0722 15.8334H29.8332H32.7498L29.8332 12.5V7.50004L23.9998 0.833374L18.1665 7.50004V12.5L15.2498 15.8334H18.1665ZM22.3332 10C22.3332 9.3728 22.7331 8.67388 23.9998 8.67388C25.2665 8.67388 25.6665 9.3728 25.6665 10V12.5H22.3332V10Z" fill="url(#paint1_linear_920_1719)"/>
<defs>
<linearGradient id="paint0_linear_920_1719" x1="23.9998" y1="0.833374" x2="23.9998" y2="59.1667" gradientUnits="userSpaceOnUse">
<stop stop-color="#55BED4"/>
<stop offset="1" stop-color="#5781D7"/>
</linearGradient>
<linearGradient id="paint1_linear_920_1719" x1="23.9998" y1="0.833374" x2="23.9998" y2="59.1667" gradientUnits="userSpaceOnUse">
<stop stop-color="#55BED4"/>
<stop offset="1" stop-color="#5781D7"/>
</linearGradient>
</defs>
</svg>
