<svg width="518" height="425" viewBox="0 0 518 425" fill="none" xmlns="http://www.w3.org/2000/svg">
<path d="M293.237 277.101C304.75 270.601 335.848 250.882 346.36 244.882C356.871 238.882 374.891 237.882 386.905 244.882C398.918 251.882 496.526 307.882 508.54 314.882C520.553 321.882 521.054 331.382 508.54 338.382C496.026 345.382 378.395 412.382 366.882 419.382C355.37 426.382 338.851 426.382 325.837 419.382C312.822 412.382 316.326 413.382 305.814 407.882C295.303 402.382 256.259 402.382 245.247 396.382C233.687 389.368 22.2143 272.592 9.64841 265.578C-2.91743 258.564 -2.41479 249.045 9.64841 242.031C21.7116 235.017 119.725 178.906 131.788 171.892C143.851 164.878 161.946 165.88 172.502 171.892C183.057 177.904 222.262 200.449 233.823 206.962C245.383 213.475 253.928 230.007 253.928 242.031C253.928 254.055 264.483 271.59 274.033 277.101C281.224 281.25 286.349 282 293.237 277.101Z" fill="#18183D"/>
<path d="M503.971 274L458.921 300L413.871 274L458.921 248L503.971 274Z" fill="white"/>
<path d="M458.921 300L413.871 274V326L458.921 352V300Z" fill="#888888"/>
<path d="M503.971 274L458.921 300V352L503.971 326V274Z" fill="#BDBDBD"/>
<path d="M139.566 179L48.4649 231.5V250.5L64.9499 241L139.566 198V179Z" fill="#20BAFF"/>
<path d="M230.667 231.5L139.566 179V198L214.182 241L230.667 250.5V231.5Z" fill="#037EDB"/>
<path d="M48.4649 250.5L139.566 303V284L64.9499 241L48.4649 250.5Z" fill="url(#paint0_linear_749_619)"/>
<path fill-rule="evenodd" clip-rule="evenodd" d="M139.566 284L64.9499 241L139.566 198L214.182 241L139.566 284Z" fill="#0C9BF9"/>
<path d="M139.566 303L230.667 250.5L214.182 241L139.566 284V303Z" fill="url(#paint1_linear_749_619)"/>
<path d="M209.644 215.385L139.566 255.769L69.4883 215.385L139.566 175L209.644 215.385Z" fill="url(#paint2_linear_749_619)"/>
<path d="M139.566 255.769L69.4883 215.385V230L139.566 270.385V255.769Z" fill="url(#paint3_linear_749_619)"/>
<path d="M209.644 215.385L139.566 255.769V270.385L209.644 230V215.385Z" fill="url(#paint4_linear_749_619)"/>
<path d="M139.566 135L48.4649 187.5V206.5L64.9499 197L139.566 154V135Z" fill="#20BAFF"/>
<path d="M230.667 187.5L139.566 135V154L214.182 197L230.667 206.5V187.5Z" fill="#037EDB"/>
<path d="M48.4649 206.5L139.566 259V240L64.9499 197L48.4649 206.5Z" fill="url(#paint5_linear_749_619)"/>
<path fill-rule="evenodd" clip-rule="evenodd" d="M139.566 240L64.9499 197L139.566 154L214.182 197L139.566 240Z" fill="#0C9BF9"/>
<path d="M139.566 259L230.667 206.5L214.182 197L139.566 240V259Z" fill="url(#paint6_linear_749_619)"/>
<path d="M209.644 171.385L139.566 211.769L69.4883 171.385L139.566 131L209.644 171.385Z" fill="url(#paint7_linear_749_619)"/>
<path d="M139.566 211.769L69.4883 171.385V186L139.566 226.385V211.769Z" fill="url(#paint8_linear_749_619)"/>
<path d="M209.644 171.385L139.566 211.769V226.385L209.644 186V171.385Z" fill="url(#paint9_linear_749_619)"/>
<path d="M48.4649 162.5L139.566 215V196L64.9499 153L48.4649 162.5Z" fill="url(#paint10_linear_749_619)"/>
<path d="M139.566 91L48.4649 143.5V162.5L64.9499 153L139.566 110V91Z" fill="#A63735"/>
<path d="M230.667 143.5L139.566 91V110L214.182 153L230.667 162.5V143.5Z" fill="#C85132"/>
<path d="M139.566 215L230.667 162.5L214.182 153L176.874 174.5L139.566 196V215Z" fill="url(#paint11_linear_749_619)"/>
<path d="M139.566 196L176.874 174.5L214.182 153L139.566 110L64.9499 153L139.566 196Z" fill="#A63735"/>
<path d="M209.644 127.385L139.566 167.769L69.4883 127.385L139.566 87L209.644 127.385Z" fill="url(#paint12_linear_749_619)"/>
<path d="M139.566 167.769L69.4883 127.385V142L139.566 182.385V167.769Z" fill="url(#paint13_linear_749_619)"/>
<path d="M209.644 127.385L139.566 167.769V182.385L209.644 142V127.385Z" fill="url(#paint14_linear_749_619)"/>
<path d="M139.566 47L48.4649 99.5V118.5L64.9499 109L139.566 66V47Z" fill="#20BAFF"/>
<path d="M230.667 99.5L139.566 47V66L214.182 109L230.667 118.5V99.5Z" fill="#037EDB"/>
<path d="M48.4649 118.5L139.566 171V152L64.9499 109L48.4649 118.5Z" fill="url(#paint15_linear_749_619)"/>
<path fill-rule="evenodd" clip-rule="evenodd" d="M139.566 152L64.9499 109L139.566 66L214.182 109L139.566 152Z" fill="#0C9BF9"/>
<path d="M139.566 171L230.667 118.5L214.182 109L139.566 152V171Z" fill="url(#paint16_linear_749_619)"/>
<path d="M209.644 83.3846L139.566 123.769L69.4883 83.3846L139.566 43L209.644 83.3846Z" fill="url(#paint17_linear_749_619)"/>
<path d="M139.566 123.769L69.4883 83.3846V98L139.566 138.385V123.769Z" fill="url(#paint18_linear_749_619)"/>
<path d="M209.644 83.3846L139.566 123.769V138.385L209.644 98V83.3846Z" fill="url(#paint19_linear_749_619)"/>
<path d="M48.4649 71.5L139.566 124V105L48.4649 52.5V71.5Z" fill="#37384F"/>
<path d="M139.566 124L230.667 71.5V52.5L139.566 105V124Z" fill="#90909D"/>
<path d="M230.667 52.5L139.566 0L48.4649 52.5L139.566 105L230.667 52.5Z" fill="url(#paint20_linear_749_619)"/>
<path d="M149.077 248L221.657 206M148.576 292.5L221.157 250.5M149.077 160L221.657 118M149.077 113L221.657 71M148.576 204.5L221.157 162.5M148.576 241L165.595 231.152M148.076 285.5L165.595 275.362M148.576 153L165.595 143.152M148.576 106L165.595 96.1517M148.076 197.5L152.455 194.966M156.835 192.431L161.215 189.897" stroke="white" stroke-width="2" stroke-linecap="round"/>
<g filter="url(#filter0_d_749_619)">
<path d="M133.56 113C123.549 118.5 123.549 129.5 123.549 142L123.549 317.497M123.549 317.497V317.5M123.549 317.497C123.549 304.998 123.549 294.499 133.559 289M123.549 186.5C123.549 174 123.548 163.5 133.559 158M123.549 232.003V232M123.549 275.503V275.5C123.549 263.001 123.549 252.502 133.559 247.003" stroke="#F5E48C" stroke-width="2" stroke-linecap="round" stroke-linejoin="round"/>
</g>
<path d="M356 41.5V96L428.5 138V83.5L356 41.5Z" fill="#0341A1"/>
<path d="M356 41.5L428.5 83.5L433 81L361.5 39L356 41.5Z" fill="#D9D9D9"/>
<path d="M428.5 83.5V138L433 135V117.5V103.5V81L428.5 83.5Z" fill="white"/>
<path d="M433 117.5L441 105V89L433 103.5V117.5Z" fill="#78DEDE"/>
<path d="M452 89V94.5L458 91.0714V84.5C457.5 81.6667 455.1 75.9 449.5 75.5C449.5 83.5 450 86.5 452.5 86.5L452 89Z" fill="#F4ACC8"/>
<path d="M449.5 75.5C455.1 75.9 457.5 81.6667 458 84.5C459.833 81.8333 462.9 75.9 460.5 73.5C458.1 71.1 451.167 71.1667 448 71.5L449.5 75.5Z" fill="#37384F"/>
<path d="M441 89V105V136.5C443.143 139.072 447.123 140.908 451.444 141.774C457.011 142.89 463.145 142.394 466.645 139.78C466.766 139.689 466.885 139.596 467 139.5C466 135.833 464.2 126.542 465 118.71C461.446 124.649 457.518 129.362 454.5 128.5C453 124.167 450.9 113.4 454.5 105V97.5L456.5 99L460 95L463 97.5C461.962 99.3689 460.005 102.286 458 103.929V115.5C460.915 109.333 467.322 96.9 469.623 96.5C466.938 93.2316 462.798 90.5 459 90.5L458 91.0714L452 94.5V89H441Z" fill="#80EBEB"/>
<path d="M454.5 97.5V105C455.556 105.452 456.787 104.924 458 103.929C460.005 102.286 461.962 99.3689 463 97.5L460 95L456.5 99L454.5 97.5Z" fill="#F4ACC8"/>
<path d="M454.5 105C450.9 113.4 453 124.167 454.5 128.5C457.518 129.362 461.446 124.649 465 118.71C468.041 113.628 470.809 107.65 472.5 103.5C472.708 101.422 471.533 98.825 469.623 96.5C467.322 96.9 460.915 109.333 458 115.5V103.929C456.787 104.924 455.556 105.452 454.5 105Z" fill="#9CF5F5"/>
<path d="M451.444 141.774L452 159.5C452.833 159.667 454.5 161.2 454.5 166C454.5 172 457 192.5 461.5 223.5H464C465.833 210.167 468.4 182.5 464 178.5C465.763 168.187 468.761 146.004 466.645 139.78C463.145 142.394 457.011 142.89 451.444 141.774Z" fill="#4C4E6E"/>
<path d="M441 136.5C439.833 144.667 437.6 163.1 438 171.5C436.333 183.333 433 208.6 433 215L434.5 215.5C439.167 203.667 448.5 178.4 448.5 172C448.5 165.6 450.833 161 452 159.5L451.444 141.774C447.123 140.908 443.143 139.072 441 136.5Z" fill="#37384F"/>
<path d="M434.5 215.5L433 215C428 215.5 426 216.5 424 217.5C423.773 217.736 423.5 218.5 423.5 218.5H434L434.5 215.5Z" fill="#80EBEB"/>
<path d="M464 223.5H461.5C460 224.833 456.5 227.8 454.5 229V230L464 227V223.5Z" fill="#80EBEB"/>
<g filter="url(#filter1_d_749_619)">
<path d="M320.77 168.1C317.566 164.1 317.767 157.1 317.767 155.1C319.769 154.766 325.375 155.2 327.778 157.6C330.18 160 329.78 168.1 329.279 171.6C328.445 171.766 323.973 172.1 320.77 168.1Z" fill="#37384F"/>
<path d="M317.766 165.1H320.269C320.269 164.1 320.369 161.9 320.77 161.1C321.27 160.1 322.772 158.1 320.77 158.1C319.168 158.1 318.1 159.433 317.766 160.1V165.1Z" fill="#F4ACC8"/>
<path d="M342.291 165.5C339.789 165 339.789 162 340.792 161.1C342.294 160.1 342.294 158.6 341.793 158.1C341.293 157.6 340.565 158.797 339.29 157.1C337.789 155.1 337.789 149.1 337.789 145.6L347.299 149.6L348.799 164.5C348.131 164.833 344.294 165.9 342.291 165.5Z" fill="#F4ACC8"/>
<path d="M338.79 246.1C336.621 244.6 331.081 240.8 326.276 237.6L337.789 287.1H339.791L338.79 246.1Z" fill="#F4ACC8"/>
<path d="M343.795 295.6C343.962 281.766 343.996 252.9 342.794 248.1L354.307 249.6C354.641 251.766 354.908 258.4 353.306 267.6C351.704 276.8 347.633 290.433 345.798 296.1L343.795 295.6Z" fill="#F4ACC8"/>
<path d="M332.783 162.1C334.385 160.5 338.79 160.766 340.792 161.1C340.289 162 340.091 163.8 341.293 164.6C342.494 165.4 347.297 164.833 348.799 164.5C352.302 165.167 357.911 167.3 358.312 170.1C358.478 178.1 358.512 195.1 357.31 199.1C356.109 203.1 345.464 216.766 340.292 223.1L337.288 221.1C339.435 218.091 343.355 212.398 346.128 207.531C341.216 207.285 334.555 206.5 329.777 203C330.433 199.291 330.709 191.491 330.976 183.6L330.987 183.294C331.328 173.205 331.666 163.216 332.783 162.1Z" fill="#80EBEB"/>
<path d="M355.776 206C348.768 209.5 334.555 206.5 329.777 203C329.277 205.333 328.078 211.6 327.277 217.6C326.476 223.6 326.276 233.433 326.276 237.6C330.781 240.6 338.49 246.6 343.295 248.6C348.1 250.6 355.141 249.933 356.81 249.1C355.809 239.1 359.313 230.6 359.313 219.1C359.313 209.9 357.278 208.5 355.776 206Z" fill="#4C4E6E"/>
<path d="M330.987 183.294L330.976 183.6C329.91 186.766 326.776 193.1 324.774 193.1C322.772 193.1 319.435 174.433 317.766 165.1H320.269C321.771 169.933 325.075 179.6 326.276 179.6C327.778 179.6 331.281 162.1 332.783 162.1C331.666 163.216 331.328 173.205 330.987 183.294Z" fill="#78DEDE"/>
<path d="M333.784 225.1C335.386 224.7 336.788 222.266 337.288 221.1L340.292 223.1C340.292 224.266 339.391 226.7 335.787 227.1C332.183 227.5 331.615 226.6 331.782 226.1C331.782 225.933 332.183 225.5 333.784 225.1Z" fill="#F4ACC8"/>
<path d="M343.795 142.1C339.391 141.7 336.621 142.6 335.787 143.1C336.621 144.1 338.69 147 340.292 148.6C341.893 150.2 344.296 150.1 345.297 150.1C345.13 150.6 345.197 154.6 346.799 160.6C348.801 168.1 355.308 169.6 359.813 166.1C363.417 163.3 357.31 158.933 353.807 157.1V152.6C353.807 151 352.138 150.266 351.304 150.1C350.636 147.6 348.2 142.5 343.795 142.1Z" fill="#37384F"/>
<path d="M350.803 173.6C352.005 170 356.309 169.766 358.312 170.1C358.478 178.1 358.009 200 356.807 204C355.606 208 345.464 216.766 340.292 223.1L337.288 221.1C339.435 218.091 343.355 212.398 346.128 207.531C348.579 203.23 350.007 199.726 350.361 197.1C350.055 187.253 349.957 176.135 350.803 173.6Z" fill="#9CF5F5"/>
<path d="M329.78 289.6L339.791 289.1V287.1H337.789C335.119 287.433 329.78 288.4 329.78 289.6Z" fill="#9CF5F5"/>
<path d="M335.787 299.6C335.787 298.8 341.126 296.6 343.795 295.6L345.798 296.1V298.1L335.787 299.6Z" fill="#9CF5F5"/>
</g>
<g filter="url(#filter2_d_749_619)">
<path d="M369.321 277.772C373.621 281.592 381.869 281.667 385.84 279.023C386.007 278.606 386.44 277.122 386.841 274.523C387.341 271.274 381.542 271.023 381.542 267.023C381.542 263.023 379.333 262.523 378.832 257.523C378.432 253.523 370.99 252.856 367.319 253.023C367.573 253.446 368.06 254.187 368.686 255.023C369.294 255.834 370.034 256.735 370.823 257.523C372.825 259.523 371.824 265.023 370.323 269.023C369.121 272.223 369.155 276.189 369.321 277.772Z" fill="#37384F"/>
<path d="M370.323 269.023C371.824 265.023 372.825 259.523 370.823 257.523C370.034 256.735 369.294 255.834 368.686 255.023C368.686 263.023 367.319 262.023 367.319 265.523C367.319 268.323 369.321 269.023 370.323 269.023Z" fill="#F4ACC8"/>
<path d="M367.319 285.023C366.485 291.523 364.516 305.323 363.315 308.523C362.97 309.44 361.658 311.065 359.811 313.045V319.023C374.327 321.523 383.17 315.69 386.34 312.023C385.058 311.017 383.073 309.157 381.542 307.023C380.284 305.268 379.333 303.328 379.333 301.523C379.333 297.523 381.001 294.19 381.835 293.023L385.84 279.023C381.869 281.667 373.621 281.592 369.321 277.772C368.743 277.257 368.235 276.675 367.82 276.023L361.313 280.523L367.319 285.023Z" fill="#80EBEB"/>
<path d="M353.304 361.523L367.82 408.523L370.323 410.523C370.296 408.54 370.233 406.161 370.13 403.523C370.093 402.556 370.05 401.553 370.001 400.523C369.356 386.885 367.724 368.326 364.6 360.523C360.743 361.12 356.797 361.523 353.304 361.523Z" fill="#F4ACC8"/>
<path d="M382.836 356.023C381.357 356.762 376.842 358.107 371.324 359.282L374.327 401.523L376.329 404.523C378.498 393.69 382.836 368.823 382.836 356.023Z" fill="#F4ACC8"/>
<path d="M340.79 327.523L342.792 329.023C347.315 325.1 355.216 317.971 359.811 313.045C361.658 311.065 362.97 309.44 363.315 308.523C364.516 305.323 366.485 291.523 367.319 285.023L361.313 280.523L358.309 305.023L340.79 327.523Z" fill="#9CF5F5"/>
<path d="M389.844 299.523C390.645 294.323 387.508 283.69 385.84 279.023L381.835 293.023C383.308 295.356 385.312 301.423 381.542 307.023C383.073 309.157 385.058 311.017 386.34 312.023C387.175 310.023 389.043 304.723 389.844 299.523Z" fill="#78DEDE"/>
<path d="M370.323 410.523L367.82 408.523H359.811C359.31 410.023 363.415 411.523 365.818 411.523C368.22 411.523 369.822 410.69 370.323 410.523Z" fill="#80EBEB"/>
<path d="M376.329 404.523L374.327 401.523L370.001 400.523C370.05 401.553 370.093 402.556 370.13 403.523C372.197 405.023 376.329 407.323 376.329 404.523Z" fill="#80EBEB"/>
<path d="M333.782 330.023C336.185 332.023 340.79 330.19 342.792 329.023L340.79 327.523C339.622 328.023 336.585 329.223 333.782 330.023Z" fill="#F4ACC8"/>
<path d="M386.34 312.023C383.17 315.69 374.327 321.523 359.811 319.023C353.804 327.523 352.903 350.323 353.304 361.523C356.797 361.523 360.743 361.12 364.6 360.523C366.913 360.165 369.193 359.736 371.324 359.282C376.842 358.107 381.357 356.762 382.836 356.023C382.67 352.19 383.037 342.623 385.84 335.023C388.643 327.423 387.341 316.523 386.34 312.023Z" fill="#4C4E6E"/>
</g>
<g filter="url(#filter3_d_749_619)">
<path d="M429.889 215.178C431.49 216.378 431.224 237.011 430.89 247.178C430.057 247.257 429.221 247.291 428.387 247.286V248.482V249.678C432.391 253.178 445.906 254.178 453.415 246.178C452.747 244.845 451.413 238.578 451.413 224.178C451.413 209.778 449.41 202.178 448.409 200.178C445.365 199.462 440.638 201.187 435.895 204.028C434.204 205.041 432.51 206.196 430.89 207.434C426.895 210.484 423.348 214.032 421.379 217.178C424.383 213.178 427.886 213.678 429.889 215.178Z" fill="#80EBEB"/>
<path d="M453.415 246.178C445.906 254.178 432.391 253.178 428.387 249.678V248.482C423.43 249.682 415.061 251.96 408.865 254.282C405.259 255.634 402.388 257 401.357 258.178C398.153 262.578 410.033 294.345 416.374 309.678H418.376L415.71 274.178L415.373 269.678C417.956 269.876 421.487 269.966 425.384 269.792C434.571 269.383 445.789 267.515 451.413 262.178C455.017 258.178 454.249 249.845 453.415 246.178Z" fill="#4C4E6E"/>
<path d="M394.85 230.178L398.854 240.678L416.874 231.178L412.369 219.678L394.85 230.178Z" fill="#37384F"/>
<path d="M410.367 239.678L423.381 240.678L422.913 235.178L418.876 231.678L397.853 243.178L407.393 249.178L411.368 251.678L420.367 246.184C415.976 245.061 412.279 243.324 410.367 242.178C408.365 242.178 405.195 243.845 403.86 244.678C403.359 240.178 405.361 239.678 410.367 239.678Z" fill="#EAEAEA"/>
<path fill-rule="evenodd" clip-rule="evenodd" d="M412.87 217.178L392.848 229.178L397.853 243.178L418.876 231.678L412.87 217.178ZM398.854 240.678L394.85 230.178L412.369 219.678L416.874 231.178L398.854 240.678Z" fill="#C5C5C5"/>
<path d="M428.387 248.482V247.286C425.623 247.271 422.882 246.828 420.367 246.184L411.368 251.678L407.393 249.178C407.216 249.914 407.264 251.966 408.865 254.282C415.061 251.96 423.43 249.682 428.387 248.482Z" fill="#37384F"/>
<path d="M415.373 269.678L415.71 274.178L425.384 269.792C421.487 269.966 417.956 269.876 415.373 269.678Z" fill="#37384F"/>
<path d="M418.376 309.678H416.374C414.371 310.845 410.367 313.978 410.367 317.178C413.704 316.011 420.378 313.278 420.378 311.678C420.378 310.078 419.043 309.678 418.376 309.678Z" fill="#80EBEB"/>
<path d="M430.89 203.678V207.434C432.51 206.196 434.204 205.041 435.895 204.028L435.395 198.678C431.39 201.678 428.387 200.678 428.387 196.178C428.387 193.928 426.692 192.342 424.892 191.347C424.786 191.288 424.68 191.232 424.574 191.178C423.882 202.678 425.884 203.678 430.89 203.678Z" fill="#F4ACC8"/>
<path d="M428.387 196.178C428.387 200.678 431.39 201.678 435.395 198.678C435.895 197.345 436.396 193.978 434.394 191.178C431.891 187.678 424.883 186.678 421.88 190.178C422.614 190.347 423.596 190.677 424.574 191.178C424.68 191.232 424.786 191.288 424.892 191.347C426.692 192.342 428.387 193.928 428.387 196.178Z" fill="#37384F"/>
<path fill-rule="evenodd" clip-rule="evenodd" d="M410.367 239.678L423.381 240.678L422.913 235.178L421.379 217.178C424.383 213.178 427.886 213.678 429.889 215.178C431.49 216.378 431.224 237.011 430.89 247.178C430.057 247.257 429.221 247.291 428.387 247.286C425.623 247.271 422.882 246.828 420.367 246.184C415.976 245.061 412.279 243.324 410.367 242.178V239.678Z" fill="#9CF5F5"/>
<path d="M410.367 239.678C405.361 239.678 403.359 240.178 403.86 244.678C405.195 243.845 408.365 242.178 410.367 242.178V239.678Z" fill="#F4ACC8"/>
</g>
<g filter="url(#filter4_d_749_619)">
<path d="M247.186 237.063C250.189 235.063 270.211 240.063 277.719 247.063L273.214 253.563L276.218 256.563C275.217 258.063 273.214 263.363 273.214 272.563C273.214 281.763 273.882 286.952 274.716 289.118L269.711 292.563L249.688 291.063C249.855 288.542 250.289 282.613 250.689 279.063C251.357 276.896 252.592 271.563 252.191 267.563C251.791 263.563 250.356 260.563 249.688 259.563C248.52 255.396 246.385 245.063 247.186 237.063Z" fill="#80EBEB"/>
<path d="M241.68 266.563C241.68 273.763 246.852 286.063 249.688 291.063C249.855 288.542 250.289 282.613 250.689 279.063C249.522 277.229 247.186 272.163 247.186 266.563C247.186 261.763 248.854 259.896 249.688 259.563C248.52 255.396 246.385 245.063 247.186 237.063C244.182 239.063 241.68 257.563 241.68 266.563Z" fill="#78DEDE"/>
<path d="M277.719 247.063L273.214 253.563L291.235 273.563L311.257 251.063L309.255 249.063L292.236 264.563L277.719 247.063Z" fill="#9CF5F5"/>
<path d="M250.189 370L247.686 371.063C247.686 371.729 248.187 373.5 248.687 373.5C251.691 373.5 258.698 369.937 257.697 368C256.196 367.437 251.691 369 250.189 370Z" fill="#9CF5F5"/>
<path d="M287.23 375.5L277.219 375C276.718 375 275.217 375.3 275.217 376.5C275.217 377.7 276.718 379.063 277.219 379.063C279.555 379.063 286.229 378.063 287.23 375.5Z" fill="#9CF5F5"/>
<path d="M252.329 323.563C251.328 314.396 249.025 294.063 249.826 286.063C252.033 288.635 255.267 290.309 258.699 291.063C259.937 291.335 261.013 291.563 262.34 291.563C262.34 300.896 263.284 316.521 262.34 324.063C261.398 331.59 256.606 353.718 250.189 370L247.686 371.063C247.186 345.063 249.125 330.763 252.329 323.563Z" fill="#37384F"/>
<path d="M258.699 291.063C262.536 291.563 270.712 291.463 274.716 289.063C276.051 296.063 278.858 313.063 278.858 323.063C278.858 332.276 279.677 365.04 277.72 375L275.217 376.063C272.714 368.563 267.345 339.563 268.847 324.063C265.343 316.563 258.699 298.663 258.699 291.063Z" fill="#4C4E6E"/>
<path d="M311.257 251.063L309.255 249.063L312.258 245.563L317.264 242.563L317.764 243.563L314.761 245.563V248.563L311.257 251.063Z" fill="#F4ACC8"/>
<path d="M258.698 238.063C259.533 238.396 261.902 239.263 264.705 240.063V235.063C265.873 235.396 268.209 235.363 268.209 232.563C268.209 229.763 266.874 225.729 266.207 224.063C264.205 225.063 264.705 226.563 264.705 229.563C264.705 232.563 261.201 234.063 258.698 233.063V238.063Z" fill="#F4ACC8"/>
<path d="M266.207 224.063C264.705 224.563 264.705 226.563 264.705 229.563C264.705 232.063 262.202 234.063 258.698 233.063C257.197 232.063 256.696 230.563 256.696 226.563C256.696 220.563 264.705 219.729 268.71 220.063C268.376 221.229 267.408 223.663 266.207 224.063Z" fill="#37384F"/>
</g>
<defs>
<filter id="filter0_d_749_619" x="120.549" y="110" width="16.0113" height="210.5" filterUnits="userSpaceOnUse" color-interpolation-filters="sRGB">
<feFlood flood-opacity="0" result="BackgroundImageFix"/>
<feColorMatrix in="SourceAlpha" type="matrix" values="0 0 0 0 0 0 0 0 0 0 0 0 0 0 0 0 0 0 127 0" result="hardAlpha"/>
<feOffset/>
<feGaussianBlur stdDeviation="1"/>
<feComposite in2="hardAlpha" operator="out"/>
<feColorMatrix type="matrix" values="0 0 0 0 0 0 0 0 0 0 0 0 0 0 0 0 0 0 0.25 0"/>
<feBlend mode="normal" in2="BackgroundImageFix" result="effect1_dropShadow_749_619"/>
<feBlend mode="normal" in="SourceGraphic" in2="effect1_dropShadow_749_619" result="shape"/>
</filter>
<filter id="filter1_d_749_619" x="313.764" y="142" width="51.1495" height="165.6" filterUnits="userSpaceOnUse" color-interpolation-filters="sRGB">
<feFlood flood-opacity="0" result="BackgroundImageFix"/>
<feColorMatrix in="SourceAlpha" type="matrix" values="0 0 0 0 0 0 0 0 0 0 0 0 0 0 0 0 0 0 127 0" result="hardAlpha"/>
<feOffset dy="4"/>
<feGaussianBlur stdDeviation="2"/>
<feComposite in2="hardAlpha" operator="out"/>
<feColorMatrix type="matrix" values="0 0 0 0 0 0 0 0 0 0 0 0 0 0 0 0 0 0 0.25 0"/>
<feBlend mode="normal" in2="BackgroundImageFix" result="effect1_dropShadow_749_619"/>
<feBlend mode="normal" in="SourceGraphic" in2="effect1_dropShadow_749_619" result="shape"/>
</filter>
<filter id="filter2_d_749_619" x="329.782" y="253" width="64.1908" height="166.523" filterUnits="userSpaceOnUse" color-interpolation-filters="sRGB">
<feFlood flood-opacity="0" result="BackgroundImageFix"/>
<feColorMatrix in="SourceAlpha" type="matrix" values="0 0 0 0 0 0 0 0 0 0 0 0 0 0 0 0 0 0 127 0" result="hardAlpha"/>
<feOffset dy="4"/>
<feGaussianBlur stdDeviation="2"/>
<feComposite in2="hardAlpha" operator="out"/>
<feColorMatrix type="matrix" values="0 0 0 0 0 0 0 0 0 0 0 0 0 0 0 0 0 0 0.25 0"/>
<feBlend mode="normal" in2="BackgroundImageFix" result="effect1_dropShadow_749_619"/>
<feBlend mode="normal" in="SourceGraphic" in2="effect1_dropShadow_749_619" result="shape"/>
</filter>
<filter id="filter3_d_749_619" x="388.848" y="188" width="69.2644" height="137.178" filterUnits="userSpaceOnUse" color-interpolation-filters="sRGB">
<feFlood flood-opacity="0" result="BackgroundImageFix"/>
<feColorMatrix in="SourceAlpha" type="matrix" values="0 0 0 0 0 0 0 0 0 0 0 0 0 0 0 0 0 0 127 0" result="hardAlpha"/>
<feOffset dy="4"/>
<feGaussianBlur stdDeviation="2"/>
<feComposite in2="hardAlpha" operator="out"/>
<feColorMatrix type="matrix" values="0 0 0 0 0 0 0 0 0 0 0 0 0 0 0 0 0 0 0.25 0"/>
<feBlend mode="normal" in2="BackgroundImageFix" result="effect1_dropShadow_749_619"/>
<feBlend mode="normal" in="SourceGraphic" in2="effect1_dropShadow_749_619" result="shape"/>
</filter>
<filter id="filter4_d_749_619" x="237.68" y="220" width="84.0846" height="167.063" filterUnits="userSpaceOnUse" color-interpolation-filters="sRGB">
<feFlood flood-opacity="0" result="BackgroundImageFix"/>
<feColorMatrix in="SourceAlpha" type="matrix" values="0 0 0 0 0 0 0 0 0 0 0 0 0 0 0 0 0 0 127 0" result="hardAlpha"/>
<feOffset dy="4"/>
<feGaussianBlur stdDeviation="2"/>
<feComposite in2="hardAlpha" operator="out"/>
<feColorMatrix type="matrix" values="0 0 0 0 0 0 0 0 0 0 0 0 0 0 0 0 0 0 0.25 0"/>
<feBlend mode="normal" in2="BackgroundImageFix" result="effect1_dropShadow_749_619"/>
<feBlend mode="normal" in="SourceGraphic" in2="effect1_dropShadow_749_619" result="shape"/>
</filter>
<linearGradient id="paint0_linear_749_619" x1="139.566" y1="303" x2="59.5214" y2="256.923" gradientUnits="userSpaceOnUse">
<stop stop-color="#037EDB"/>
<stop offset="1" stop-color="#20BAFF"/>
</linearGradient>
<linearGradient id="paint1_linear_749_619" x1="139.566" y1="303" x2="221.111" y2="255.922" gradientUnits="userSpaceOnUse">
<stop stop-color="#20BAFF"/>
<stop offset="1" stop-color="#037EDB"/>
</linearGradient>
<linearGradient id="paint2_linear_749_619" x1="72.9537" y1="228.077" x2="209.644" y2="228.077" gradientUnits="userSpaceOnUse">
<stop stop-color="#86AFF0"/>
<stop offset="0.0001" stop-color="#86AFF0"/>
<stop offset="1" stop-color="#E9F1FD"/>
</linearGradient>
<linearGradient id="paint3_linear_749_619" x1="72.9537" y1="228.077" x2="209.644" y2="228.077" gradientUnits="userSpaceOnUse">
<stop stop-color="#86AFF0"/>
<stop offset="0.0001" stop-color="#86AFF0"/>
<stop offset="1" stop-color="#E9F1FD"/>
</linearGradient>
<linearGradient id="paint4_linear_749_619" x1="72.9537" y1="228.077" x2="209.644" y2="228.077" gradientUnits="userSpaceOnUse">
<stop stop-color="#86AFF0"/>
<stop offset="0.0001" stop-color="#86AFF0"/>
<stop offset="1" stop-color="#E9F1FD"/>
</linearGradient>
<linearGradient id="paint5_linear_749_619" x1="139.566" y1="259" x2="59.5214" y2="212.923" gradientUnits="userSpaceOnUse">
<stop stop-color="#037EDB"/>
<stop offset="1" stop-color="#20BAFF"/>
</linearGradient>
<linearGradient id="paint6_linear_749_619" x1="139.566" y1="259" x2="221.111" y2="211.922" gradientUnits="userSpaceOnUse">
<stop stop-color="#20BAFF"/>
<stop offset="1" stop-color="#037EDB"/>
</linearGradient>
<linearGradient id="paint7_linear_749_619" x1="72.9537" y1="184.077" x2="209.644" y2="184.077" gradientUnits="userSpaceOnUse">
<stop stop-color="#86AFF0"/>
<stop offset="0.0001" stop-color="#86AFF0"/>
<stop offset="1" stop-color="#E9F1FD"/>
</linearGradient>
<linearGradient id="paint8_linear_749_619" x1="72.9537" y1="184.077" x2="209.644" y2="184.077" gradientUnits="userSpaceOnUse">
<stop stop-color="#86AFF0"/>
<stop offset="0.0001" stop-color="#86AFF0"/>
<stop offset="1" stop-color="#E9F1FD"/>
</linearGradient>
<linearGradient id="paint9_linear_749_619" x1="72.9537" y1="184.077" x2="209.644" y2="184.077" gradientUnits="userSpaceOnUse">
<stop stop-color="#86AFF0"/>
<stop offset="0.0001" stop-color="#86AFF0"/>
<stop offset="1" stop-color="#E9F1FD"/>
</linearGradient>
<linearGradient id="paint10_linear_749_619" x1="48.4999" y1="162.5" x2="139.566" y2="215" gradientUnits="userSpaceOnUse">
<stop offset="0.121988" stop-color="#A63735"/>
<stop offset="0.9998" stop-color="#C85132"/>
<stop offset="0.9999" stop-color="#A63735" stop-opacity="0"/>
</linearGradient>
<linearGradient id="paint11_linear_749_619" x1="223" y1="167" x2="139.566" y2="215" gradientUnits="userSpaceOnUse">
<stop stop-color="#C85132"/>
<stop offset="1" stop-color="#F5E48C"/>
</linearGradient>
<linearGradient id="paint12_linear_749_619" x1="72.9537" y1="140.077" x2="209.644" y2="140.077" gradientUnits="userSpaceOnUse">
<stop stop-color="#86AFF0"/>
<stop offset="0.0001" stop-color="#86AFF0"/>
<stop offset="1" stop-color="#E9F1FD"/>
</linearGradient>
<linearGradient id="paint13_linear_749_619" x1="72.9537" y1="140.077" x2="209.644" y2="140.077" gradientUnits="userSpaceOnUse">
<stop stop-color="#86AFF0"/>
<stop offset="0.0001" stop-color="#86AFF0"/>
<stop offset="1" stop-color="#E9F1FD"/>
</linearGradient>
<linearGradient id="paint14_linear_749_619" x1="72.9537" y1="140.077" x2="209.644" y2="140.077" gradientUnits="userSpaceOnUse">
<stop stop-color="#86AFF0"/>
<stop offset="0.0001" stop-color="#86AFF0"/>
<stop offset="1" stop-color="#E9F1FD"/>
</linearGradient>
<linearGradient id="paint15_linear_749_619" x1="139.566" y1="171" x2="59.5214" y2="124.923" gradientUnits="userSpaceOnUse">
<stop stop-color="#037EDB"/>
<stop offset="1" stop-color="#20BAFF"/>
</linearGradient>
<linearGradient id="paint16_linear_749_619" x1="139.566" y1="171" x2="221.111" y2="123.922" gradientUnits="userSpaceOnUse">
<stop stop-color="#20BAFF"/>
<stop offset="1" stop-color="#037EDB"/>
</linearGradient>
<linearGradient id="paint17_linear_749_619" x1="72.9537" y1="96.0769" x2="209.644" y2="96.0769" gradientUnits="userSpaceOnUse">
<stop stop-color="#86AFF0"/>
<stop offset="0.0001" stop-color="#86AFF0"/>
<stop offset="1" stop-color="#E9F1FD"/>
</linearGradient>
<linearGradient id="paint18_linear_749_619" x1="72.9537" y1="96.0769" x2="209.644" y2="96.0769" gradientUnits="userSpaceOnUse">
<stop stop-color="#86AFF0"/>
<stop offset="0.0001" stop-color="#86AFF0"/>
<stop offset="1" stop-color="#E9F1FD"/>
</linearGradient>
<linearGradient id="paint19_linear_749_619" x1="72.9537" y1="96.0769" x2="209.644" y2="96.0769" gradientUnits="userSpaceOnUse">
<stop stop-color="#86AFF0"/>
<stop offset="0.0001" stop-color="#86AFF0"/>
<stop offset="1" stop-color="#E9F1FD"/>
</linearGradient>
<linearGradient id="paint20_linear_749_619" x1="139.566" y1="0" x2="139.566" y2="124" gradientUnits="userSpaceOnUse">
<stop stop-color="#0085FF"/>
<stop offset="1" stop-color="#00DDFF"/>
</linearGradient>
</defs>
</svg>
