<svg width="149" height="102" viewBox="0 0 149 102" fill="none" xmlns="http://www.w3.org/2000/svg">
<path d="M74.6176 4.44507C59.8349 4.44507 47.2814 14.3877 43.4097 27.9565C40.0073 20.8212 32.7333 15.7914 24.2861 15.7914C12.6711 15.7914 3.16797 25.2662 3.16797 36.8464C3.16797 48.4267 12.6711 57.9015 24.2861 57.9015C32.7333 57.9015 40.0073 52.8717 43.4097 45.7364C47.2814 59.3052 59.8349 69.2478 74.6176 69.2478C89.2829 69.2478 101.719 59.4221 105.708 46.0873C109.11 53.1056 116.385 58.0185 124.714 58.0185C136.329 58.0185 145.833 48.5437 145.833 36.9634C145.833 25.3831 136.329 15.9084 124.714 15.9084C116.385 15.9084 109.228 20.8212 105.708 27.8396C101.719 14.2708 89.2829 4.44507 74.6176 4.44507ZM74.6176 16.7272C85.7632 16.7272 94.6798 25.6171 94.6798 36.7295C94.6798 47.8419 85.7632 56.7318 74.6176 56.7318C63.4719 56.7318 54.5554 47.8419 54.5554 36.7295C54.5554 25.6171 63.4719 16.7272 74.6176 16.7272ZM24.2861 28.0735C29.2136 28.0735 32.968 31.9336 32.968 36.7295C32.968 41.6423 29.0963 45.3854 24.2861 45.3854C19.3585 45.3854 15.6042 41.5253 15.6042 36.7295C15.6042 31.9336 19.4758 28.0735 24.2861 28.0735ZM124.714 28.0735C129.642 28.0735 133.396 31.9336 133.396 36.7295C133.396 41.6423 129.525 45.3854 124.714 45.3854C119.787 45.3854 116.033 41.5253 116.033 36.7295C115.915 31.9336 119.787 28.0735 124.714 28.0735Z" fill="white"/>
<path d="M18.0681 78.8396C17.5988 78.8396 17.4814 79.0735 17.4814 79.5414V96.6194C17.4814 97.0873 17.7161 97.2043 18.0681 97.2043H18.5374C19.0066 97.2043 19.124 96.9703 19.124 96.6194V82.3488L28.3925 96.7364C28.3925 96.8534 28.5098 96.8534 28.5098 96.8534C28.5098 96.8534 28.6271 96.8534 28.6271 96.9703C28.6271 96.9703 28.6271 96.9703 28.7444 96.9703C28.8618 96.9703 28.8618 96.9703 28.9791 96.9703H29.4484C29.9177 96.9703 30.035 96.7364 30.035 96.3855V79.5414C30.035 79.0735 29.8003 78.8396 29.4484 78.8396H28.9791C28.5098 78.8396 28.2751 79.0735 28.2751 79.5414V93.6951L19.0066 79.3075L18.8893 79.1905C18.772 79.0735 18.6547 78.9566 18.42 78.9566L18.0681 78.8396ZM129.994 79.0735C129.525 79.0735 129.759 79.3075 129.759 79.7754V85.624C129.759 86.2089 129.759 86.6768 129.759 86.6768C129.759 86.6768 128.586 84.1034 125.536 84.1034C122.133 84.1034 119.67 86.7937 119.787 90.7708C119.787 94.7479 122.016 97.5552 125.418 97.5552C128.821 97.5552 129.877 94.8648 129.877 94.8648H129.994C129.994 94.8648 129.877 95.2157 129.877 95.6836V96.7364C129.877 97.2043 130.111 97.3212 130.581 97.3212H131.05C131.519 97.3212 131.637 97.0873 131.637 96.6194V79.7754C131.637 79.3075 130.933 79.0735 130.581 79.0735H129.994ZM84.2381 79.1905C83.7689 79.1905 84.1208 79.4245 84.1208 79.8924V94.28C84.1208 97.0873 85.998 97.4382 87.0539 97.4382C87.5232 97.4382 87.7578 97.2043 87.7578 96.7364V96.2685C87.7578 95.8006 87.5232 95.6836 87.1712 95.6836C86.5846 95.5667 85.7633 95.4497 85.7633 93.8121V79.7754C85.7633 79.3075 85.0594 79.0735 84.7074 79.0735L84.2381 79.1905ZM63.12 80.7112C62.6507 80.7112 62.4161 80.9451 62.4161 81.413V84.4543V85.9749V92.6423C62.4161 95.6836 64.1759 97.4382 66.9917 97.4382C67.5783 97.4382 67.6956 97.3213 67.6956 96.8534V96.5024C67.6956 96.0346 67.5783 95.9176 66.9917 95.8006C65.9358 95.6836 64.1759 95.3327 64.1759 92.4084V85.9749H66.8744C67.3436 85.9749 67.5783 85.8579 67.5783 85.3901V85.1561C67.5783 84.6882 67.3436 84.4543 66.8744 84.4543H64.1759V81.413C64.1759 80.9451 64.0586 80.7112 63.5893 80.7112H63.12ZM39.6555 83.9864C36.1358 83.9864 33.32 86.5598 33.2027 90.7708C33.2027 94.7479 36.1358 97.5552 40.0074 97.5552C42.1192 97.5552 43.6444 96.6194 44.3484 96.1515C44.7003 95.9176 44.7003 95.5667 44.583 95.3327L44.3484 95.0988C44.1137 94.7479 43.8791 94.6309 43.5271 94.8648C42.9405 95.3327 41.7673 96.0346 40.1248 96.0346C37.4263 96.0346 35.1972 94.163 35.0799 90.8878H44.4657C44.8177 90.8878 45.1696 90.5368 45.1696 90.1859C45.0523 86.4428 43.1751 83.9864 39.6555 83.9864ZM76.2602 83.9864C72.3885 83.9864 69.4555 86.7937 69.4555 90.7708C69.4555 94.7479 72.3885 97.5552 76.2602 97.5552C78.6066 97.5552 80.2492 96.3855 80.8358 95.9176C81.1877 95.5667 81.1877 95.3327 80.9531 94.9818L80.7185 94.7479C80.4838 94.3969 80.2492 94.28 79.8972 94.5139C79.3106 95.0988 78.1374 95.9176 76.2602 95.9176C73.4444 95.9176 71.2153 93.8121 71.2153 90.7708C71.2153 87.6125 73.4444 85.507 76.2602 85.507C77.7854 85.507 78.9586 86.3258 79.5452 86.6768C79.8972 86.9107 80.2492 86.9107 80.4838 86.5598L80.7185 86.2089C81.0704 85.8579 80.9531 85.507 80.6011 85.2731C79.8972 84.9222 78.4893 83.9864 76.2602 83.9864ZM96.0877 83.9864C92.3334 83.9864 89.283 86.9107 89.283 90.6538C89.283 94.5139 92.3334 97.4382 96.0877 97.4382C99.8421 97.4382 102.892 94.5139 102.892 90.6538C103.01 86.9107 99.8421 83.9864 96.0877 83.9864ZM58.0751 84.2203C57.9578 84.2203 57.8405 84.3373 57.6059 84.4543L55.2594 87.2616L53.4996 89.3671L50.8011 86.2089L49.2759 84.4543C49.1586 84.3373 49.0413 84.2203 48.8066 84.2203C48.6893 84.2203 48.4547 84.2203 48.3374 84.4543L47.9854 84.8052C47.6334 85.0391 47.6334 85.3901 47.9854 85.624L50.3318 88.4313L52.3263 90.7708L49.3933 94.163L47.9854 95.9176C47.7507 96.2685 47.7507 96.6194 48.1027 96.8534L48.4547 97.2043C48.8066 97.4382 49.0413 97.4382 49.2759 97.0873L51.6224 94.28L53.3822 92.1745L56.0807 95.3327L57.4885 97.0873C57.7232 97.4382 58.0751 97.4382 58.4271 97.2043L58.7791 96.8534C59.131 96.6194 59.131 96.2685 58.7791 96.0346L56.4326 93.2272L54.4381 90.8878L57.3712 87.4956L58.7791 85.741C59.0137 85.3901 59.0137 85.0391 58.6618 84.8052L58.3098 84.4543C58.3098 84.2203 58.1925 84.1034 58.0751 84.2203ZM106.412 84.2203C105.943 84.2203 105.826 84.4543 105.826 84.9222V92.5254C105.826 95.9176 108.289 97.5552 111.34 97.5552C114.39 97.5552 116.854 95.9176 116.854 92.5254V84.9222C116.971 84.4543 116.737 84.2203 116.267 84.2203H115.798C115.329 84.2203 115.094 84.4543 115.094 84.9222V92.0575C115.094 94.046 113.803 95.9176 111.222 95.9176C108.759 95.9176 107.351 94.046 107.351 92.0575V84.9222C107.351 84.4543 107.116 84.2203 106.647 84.2203H106.412ZM39.6555 85.3901C41.5326 85.3901 43.1751 86.7937 43.2925 89.4841H35.1972C35.5492 86.9107 37.4263 85.3901 39.6555 85.3901ZM96.0877 85.507C98.9035 85.507 101.133 87.7295 101.133 90.6538C101.133 93.6951 98.9035 95.9176 96.0877 95.9176C93.272 95.9176 91.0429 93.5781 91.0429 90.6538C91.0429 87.8465 93.3893 85.507 96.0877 85.507ZM125.653 85.507C128.469 85.507 129.759 88.0804 129.759 90.6538C129.759 94.3969 127.765 95.9176 125.536 95.9176C123.072 95.9176 121.429 93.8121 121.429 90.6538C121.429 87.4956 123.307 85.507 125.653 85.507Z" fill="white"/>
</svg>
