<svg width="338" height="285" viewBox="0 0 338 285" fill="none" xmlns="http://www.w3.org/2000/svg">
<path d="M12.9624 237.561C-3.91658 227.133 -4.72035 210.288 12.9624 199.86C30.6452 189.432 149.602 121.249 168.088 110.821C186.575 100.393 215.51 100.393 233.193 110.821C250.876 121.249 307.943 153.335 325.626 163.763C343.308 174.191 340.897 192.989 325.626 202.266C310.354 211.544 292.898 209.666 272 222.5C257.875 230.828 188.496 269.425 173.728 277.754C158.961 286.082 135.847 286.082 121.722 277.754C107.596 269.425 109.522 270.828 95.3971 262.5C81.2719 254.172 72.0968 249.5 55 249.5C33.2984 249.5 29.8414 247.989 12.9624 237.561Z" fill="#18183D"/>
<g filter="url(#filter0_d_749_673)">
<path d="M307.505 163L149.005 254.5L28.0054 184.5L186.005 93L307.505 163Z" fill="#20BAFF"/>
<path d="M149.005 254.5L28.0054 184.5L28 204.5L149 274.5L149.005 254.5Z" fill="#1A165D"/>
<path d="M307.505 163L149.005 254.5L149 274.5L307.5 183L307.505 163Z" fill="#27558D"/>
</g>
<path d="M154.5 265.5L302.5 180M154.5 258L219.5 220.38" stroke="white" stroke-width="2" stroke-linecap="round"/>
<path d="M246.999 72.0912C246.999 92.8523 220.136 109.682 187 109.682C153.863 109.682 127 92.8523 127 72.0912C127 51.3302 153.863 34.5 187 34.5C220.136 34.5 246.999 51.3302 246.999 72.0912Z" fill="#A4C5F6"/>
<path d="M246.999 72.0912C246.999 92.8523 220.136 109.682 187 109.682C153.863 109.682 127 92.8523 127 72.0912L127 88.8559C127.001 109.616 153.864 126.446 187 126.446C220.137 126.446 246.999 109.616 246.999 88.8547V72.0912Z" fill="url(#paint0_linear_749_673)"/>
<path d="M247 105.618C247 126.379 220.137 143.209 187 143.209C153.864 143.209 127 126.379 127 105.618L127 122.383C127.001 143.143 153.864 159.973 187 159.973C220.137 159.973 247 143.143 247 122.382L247 105.618Z" fill="url(#paint1_linear_749_673)"/>
<path d="M247 139.145C247 159.906 220.138 176.736 187.001 176.736C153.864 176.736 127.001 159.906 127.001 139.145V155.909C127.001 176.67 153.864 193.5 187.001 193.5C220.138 193.5 247 176.67 247 155.909V139.145Z" fill="url(#paint2_linear_749_673)"/>
<path d="M247 122.382C247 143.143 220.137 159.973 187 159.973C153.864 159.973 127.001 143.143 127 122.383L127.001 139.145C127.001 159.906 153.864 176.736 187.001 176.736C220.138 176.736 247 159.906 247 139.145L247 122.382Z" fill="url(#paint3_linear_749_673)"/>
<path d="M246.999 88.8547C246.999 109.616 220.137 126.446 187 126.446C153.864 126.446 127.001 109.616 127 88.8559L127 105.618C127 126.379 153.864 143.209 187 143.209C220.137 143.209 247 126.379 247 105.618L246.999 88.8547Z" fill="url(#paint4_linear_749_673)"/>
<path d="M207 70.0305C207 76.9509 198.046 82.561 187 82.561C175.954 82.561 167 76.9509 167 70.0305C167 63.1101 175.954 57.5 187 57.5C198.046 57.5 207 63.1101 207 70.0305Z" fill="white"/>
<path d="M167 70.0305C167 63.1101 175.954 57.5 187 57.5C198.046 57.5 207 63.1101 207 70.0305V0H167V70.0305Z" fill="url(#paint5_linear_749_673)"/>
<path d="M207 70.0305C207 76.9509 198.046 82.561 187 82.561C175.954 82.561 167 76.9509 167 70.0305C167 63.1101 175.954 57.5 187 57.5C198.046 57.5 207 63.1101 207 70.0305Z" fill="white"/>
<g filter="url(#filter1_d_749_673)">
<path d="M143.002 108C139.501 111.501 136.22 114.5 136.22 123L136.655 189M136.655 189V189.003M136.655 189C136.655 181 138.5 177.501 143.002 173M136.329 139.5C136.329 132 138.437 127.565 143.002 123M136.434 155.5C136.434 148 138.501 144.001 143.002 139.5M136.55 173C136.55 164.5 138 160.502 143.002 155.5" stroke="#F5E48C" stroke-width="2" stroke-linecap="round" stroke-linejoin="round"/>
</g>
<g filter="url(#filter2_d_749_673)">
<path d="M231 106C234.614 109.587 238 112.66 238 121.37L237.55 188.997M237.55 188.997V189M237.55 188.997C237.55 180.8 235.646 177.215 231 172.603M237.888 138.277C237.888 130.592 235.712 126.048 231 121.37M237.779 154.671C237.779 146.986 235.646 142.889 231 138.277M237.659 172.603C237.659 163.893 236.163 159.796 231 154.671" stroke="#F5E48C" stroke-width="2" stroke-linecap="round" stroke-linejoin="round"/>
</g>
<path d="M226.5 179C204 191 171.5 192 147.5 179M226.5 173C204 185 171.5 186 147.5 173M226.5 162C220.297 165.308 213.335 167.78 206 169.353M147.5 156C150.697 157.732 154.045 159.215 157.5 160.457M226.5 146C219.903 149.518 212.446 152.091 204.597 153.643M147.5 146C149.129 146.883 150.798 147.701 152.5 148.455M226.5 140C221.854 142.478 216.782 144.487 211.446 146M147.5 140C149.913 141.307 152.413 142.473 154.979 143.5M226.5 129C220.297 132.308 213.335 134.78 206 136.353M147.5 129C152.965 131.96 158.872 134.195 165 135.739M226.5 123C220.864 126.006 214.6 128.322 208 129.9M147.5 123C150.232 124.48 153.075 125.779 156 126.9M226.5 112C217.259 116.928 206.332 120.001 195 121.011M147.5 112C151.647 114.246 156.047 116.074 160.606 117.5M226.5 106C220.297 109.308 213.335 111.78 206 113.353M147.5 106C150.697 107.732 154.045 109.215 157.5 110.457M162.268 112C167.055 113.384 172.002 114.333 177 114.865M181.5 121.231C178.509 121.062 175.525 120.747 172.57 120.281M171.5 131.106C173.982 131.529 176.486 131.844 179 132.056M199.5 137.499C193.597 138.318 187.535 138.573 181.5 138.231M169 153.643C174.415 154.729 179.963 155.298 185.5 155.371M189.5 149.337C180.33 149.61 171.032 148.534 162.268 146M152.5 164.455C159.714 167.653 167.527 169.708 175.5 170.693M169 163.643C173.111 164.468 177.299 164.994 181.5 165.231M208 162.9C210.035 162.413 212.038 161.857 214 161.231" stroke="white" stroke-width="2" stroke-linecap="round" stroke-dasharray="3 3"/>
<path d="M74.25 40.5C71.45 42.1 74.0833 48.8333 75.75 52H77.25C76.9167 50.6667 76.85 47.4 79.25 45C80.9161 43.3339 82.8393 42.8565 84.25 42.8319C84.8713 42.8211 85.3933 42.8981 85.75 43V40C83.0833 39.5 77.05 38.9 74.25 40.5Z" fill="#80EBEB"/>
<path d="M74.25 40.5C71.45 42.1 74.0833 48.8333 75.75 52H77.25C76.9167 50.6667 76.85 47.4 79.25 45C80.9161 43.3339 82.8393 42.8565 84.25 42.8319C84.8713 42.8211 85.3933 42.8981 85.75 43V40C83.0833 39.5 77.05 38.9 74.25 40.5Z" fill="#37384F"/>
<path d="M92.75 105.5C90.35 107.9 85.0833 109.833 82.7499 110.5C82.5542 114.48 82.2206 120.339 81.791 126.5C83.3321 128.5 85.75 136.5 86.75 145C87.55 151.8 96.4167 173.5 100.75 183.5L102.25 183C100.701 175.695 99.2491 159.081 97.8522 143.092L97.8508 143.076C97.6872 141.203 97.5243 139.339 97.3621 137.5C95.7818 119.575 94.2659 103.984 92.75 105.5Z" fill="#37384F"/>
<path d="M82.7499 110.5C79.7499 111.333 72.4499 112.2 67.2499 109C66.4499 118.6 68.2499 137.667 69.2499 146C68.5832 146 67.2499 148 67.2499 156C67.2499 164 69.2499 183.333 70.2499 192H72.2499C73.9166 182 77.6499 159.9 79.2499 151.5C80.2236 146.388 81.1232 136.079 81.791 126.5C82.2206 120.339 82.5542 114.48 82.7499 110.5Z" fill="#4C4E6E"/>
<path d="M64.75 66C60.75 67.5 61.75 72 63.75 76C64.627 77.7539 67.1462 82.0914 69.7929 86.5591C71.975 90.2426 74.2437 94.0146 75.75 96.5H92.785H99.25V94C97.5211 93.6758 95.1686 93.257 92.6968 92.8527C87.5437 92.0098 81.872 91.2296 80.25 91.5C76.25 82 67.55 63.6001 64.75 66Z" fill="#9CF5F5"/>
<path d="M75.75 58.5L82.7499 62.5V56.5C81.1498 56.5 81.0833 54.8333 81.25 54H84.25V42.8319C82.8393 42.8565 80.9161 43.3339 79.25 45C76.85 47.4 76.9167 50.6667 77.25 52H75.75V58.5Z" fill="#F4ACC8"/>
<path d="M137.25 20L131.25 13V19.8182L137.25 20Z" fill="#F5E48C"/>
<path d="M137.25 20L131.25 13V19.8182L137.25 20Z" fill="#433E27"/>
<path fill-rule="evenodd" clip-rule="evenodd" d="M137.25 29L104.25 30V19L131.25 19.8182L137.25 20L131.25 13L174.25 19L137.25 22V29Z" fill="#F5E48C"/>
<path d="M104.25 92.375L103.25 92.5V96.6883C103.586 96.6667 103.922 96.6335 104.25 96.5858V92.375Z" fill="#F4ACC8"/>
<path d="M103.25 68.2527C103.582 68.4213 103.925 68.5666 104.25 68.6872V64.8128C103.925 64.7707 103.582 64.7449 103.25 64.7473V68.2527Z" fill="#F4ACC8"/>
<path d="M103.25 71.5L104.25 70.25V68.6872C103.925 68.5666 103.582 68.4213 103.25 68.2527V71.5Z" fill="white"/>
<path d="M104.25 70.25L103.25 71.5V75.5278V79.5555L104.25 77.4444V70.25Z" fill="white"/>
<path d="M103.25 90V92.5L104.25 92.375V77.4444L103.25 79.5555V90Z" fill="white"/>
<path d="M104.25 18H103.25V64.7473C103.582 64.7449 103.925 64.7707 104.25 64.8128V62.5V30V19V18Z" fill="white"/>
<path d="M103.25 183.432C103.525 183.452 103.855 183.469 104.25 183.48V96.5858C103.922 96.6335 103.586 96.6667 103.25 96.6883V183.432Z" fill="white"/>
<path d="M104.25 183.48C103.855 183.469 103.525 183.452 103.25 183.432V186H104.25V183.48Z" fill="white"/>
<path d="M103.25 190H104.25V186H103.25V190Z" fill="white"/>
<path d="M99.25 94V96.5C100.01 96.6266 101.636 96.7917 103.25 96.6883V92.5V90L99.25 94Z" fill="#F4ACC8"/>
<path d="M104.75 96.5C106.75 96.1 107.25 93.3333 107.25 92L104.25 92.375V96.5858C104.419 96.5612 104.586 96.5327 104.75 96.5Z" fill="#F4ACC8"/>
<path d="M103.25 64.7473C102.2 64.7549 101.25 65.0449 101.25 66C101.25 66.9552 102.2 67.7203 103.25 68.2527V64.7473Z" fill="#F4ACC8"/>
<path d="M105.25 69H108.25C108.583 68.3333 108.95 66.6 107.75 65C106.55 63.4 104.917 62.6667 104.25 62.5L105.25 65C104.965 64.9286 104.618 64.8604 104.25 64.8128V68.6872C104.618 68.8237 104.965 68.9286 105.25 69Z" fill="#F4ACC8"/>
<path d="M93.0328 78C94.0591 81.2 97.6052 86 99.25 88L103.25 79.5555V75.5278V71.5L99.25 76.5L94.4029 57.1117C94.5506 58.6082 94.2351 62.4779 93.8223 67.5391C93.5675 70.6645 93.2756 74.2442 93.0328 78Z" fill="#78DEDE"/>
<path fill-rule="evenodd" clip-rule="evenodd" d="M92.75 105.5C90.35 107.9 85.0833 109.833 82.7499 110.5C79.7499 111.333 72.4499 112.2 67.2499 109C68.2821 102.944 69.3996 94.4222 69.7929 86.5591C71.975 90.2426 74.2437 94.0146 75.75 96.5H92.785C92.865 99.8057 92.9174 102.878 92.75 105.5ZM92.6968 92.8527C92.6269 89.645 92.593 86.3025 92.75 83C92.8301 81.3152 92.9268 79.6408 93.0328 78C93.2756 74.2442 93.5675 70.6645 93.8223 67.5391C94.2351 62.4779 94.5506 58.6082 94.4029 57.1117C94.3726 56.8042 94.3226 56.5969 94.25 56.5C93.05 54.9 86.0833 55.8333 82.7499 56.5V62.5L75.75 58.5C72.9501 58.9 67.25 63.6667 64.75 66C67.55 63.6001 76.25 82 80.25 91.5C81.872 91.2296 87.5437 92.0098 92.6968 92.8527ZM72.2499 192L77.7037 194.517C78.3772 194.828 78.9117 195.377 79.204 196.059L80.25 198.5L70.2499 195.5V192H72.2499ZM100.75 183.5V186H103.25V183.432C101.789 183.326 101.89 183.12 102.25 183L100.75 183.5ZM104.25 186V183.48C104.673 183.493 105.169 183.5 105.75 183.5C109.75 183.5 110.75 185.167 110.75 186H104.25Z" fill="#80EBEB"/>
<path d="M108.25 69H105.25L104.25 70.25V77.4444L108.25 69Z" fill="#78DEDE"/>
<defs>
<filter id="filter0_d_749_673" x="18" y="83" width="299.505" height="201.5" filterUnits="userSpaceOnUse" color-interpolation-filters="sRGB">
<feFlood flood-opacity="0" result="BackgroundImageFix"/>
<feColorMatrix in="SourceAlpha" type="matrix" values="0 0 0 0 0 0 0 0 0 0 0 0 0 0 0 0 0 0 127 0" result="hardAlpha"/>
<feOffset/>
<feGaussianBlur stdDeviation="5"/>
<feComposite in2="hardAlpha" operator="out"/>
<feColorMatrix type="matrix" values="0 0 0 0 0 0 0 0 0 0 0 0 0 0 0 0 0 0 0.25 0"/>
<feBlend mode="normal" in2="BackgroundImageFix" result="effect1_dropShadow_749_673"/>
<feBlend mode="normal" in="SourceGraphic" in2="effect1_dropShadow_749_673" result="shape"/>
</filter>
<filter id="filter1_d_749_673" x="133.22" y="105" width="12.7821" height="87.0027" filterUnits="userSpaceOnUse" color-interpolation-filters="sRGB">
<feFlood flood-opacity="0" result="BackgroundImageFix"/>
<feColorMatrix in="SourceAlpha" type="matrix" values="0 0 0 0 0 0 0 0 0 0 0 0 0 0 0 0 0 0 127 0" result="hardAlpha"/>
<feOffset/>
<feGaussianBlur stdDeviation="1"/>
<feComposite in2="hardAlpha" operator="out"/>
<feColorMatrix type="matrix" values="0 0 0 0 0 0 0 0 0 0 0 0 0 0 0 0 0 0 0.25 0"/>
<feBlend mode="normal" in2="BackgroundImageFix" result="effect1_dropShadow_749_673"/>
<feBlend mode="normal" in="SourceGraphic" in2="effect1_dropShadow_749_673" result="shape"/>
</filter>
<filter id="filter2_d_749_673" x="228" y="103" width="13" height="89" filterUnits="userSpaceOnUse" color-interpolation-filters="sRGB">
<feFlood flood-opacity="0" result="BackgroundImageFix"/>
<feColorMatrix in="SourceAlpha" type="matrix" values="0 0 0 0 0 0 0 0 0 0 0 0 0 0 0 0 0 0 127 0" result="hardAlpha"/>
<feOffset/>
<feGaussianBlur stdDeviation="1"/>
<feComposite in2="hardAlpha" operator="out"/>
<feColorMatrix type="matrix" values="0 0 0 0 0 0 0 0 0 0 0 0 0 0 0 0 0 0 0.25 0"/>
<feBlend mode="normal" in2="BackgroundImageFix" result="effect1_dropShadow_749_673"/>
<feBlend mode="normal" in="SourceGraphic" in2="effect1_dropShadow_749_673" result="shape"/>
</filter>
<linearGradient id="paint0_linear_749_673" x1="127" y1="110.343" x2="247" y2="110.343" gradientUnits="userSpaceOnUse">
<stop offset="0.332951" stop-color="#043E9A"/>
<stop offset="0.974667" stop-color="#048AEB"/>
</linearGradient>
<linearGradient id="paint1_linear_749_673" x1="127" y1="110.343" x2="247" y2="110.343" gradientUnits="userSpaceOnUse">
<stop offset="0.332951" stop-color="#043E9A"/>
<stop offset="0.974667" stop-color="#048AEB"/>
</linearGradient>
<linearGradient id="paint2_linear_749_673" x1="127" y1="110.343" x2="247" y2="110.343" gradientUnits="userSpaceOnUse">
<stop offset="0.332951" stop-color="#043E9A"/>
<stop offset="0.974667" stop-color="#048AEB"/>
</linearGradient>
<linearGradient id="paint3_linear_749_673" x1="127.001" y1="119.268" x2="247" y2="119.268" gradientUnits="userSpaceOnUse">
<stop stop-color="#20BAFF"/>
<stop offset="0.703125" stop-color="white"/>
</linearGradient>
<linearGradient id="paint4_linear_749_673" x1="127.001" y1="91.7061" x2="247" y2="91.7061" gradientUnits="userSpaceOnUse">
<stop stop-color="#C85132"/>
<stop offset="0.494792" stop-color="#F5E48C"/>
</linearGradient>
<linearGradient id="paint5_linear_749_673" x1="187" y1="0" x2="187" y2="96.5" gradientUnits="userSpaceOnUse">
<stop stop-color="white" stop-opacity="0"/>
<stop offset="1" stop-color="white"/>
</linearGradient>
</defs>
</svg>
