<svg width="374" height="354" viewBox="0 0 374 354" fill="none" xmlns="http://www.w3.org/2000/svg">
<g clip-path="url(#clip0_780_1193)">
<g filter="url(#filter0_d_780_1193)">
<path d="M50.0636 281C39.0636 287 39.5636 298.5 50.0636 304.5C53.2303 306.333 61.7636 311.2 70.5636 316C81.5636 322 120.564 322 131.064 327.5C141.564 333 138.064 332 151.064 339C164.064 346 180.564 346 192.064 339C203.564 332 321.064 265 333.564 258C346.064 251 345.564 241.5 333.564 234.5C321.564 227.5 224.064 171.5 212.064 164.5C200.064 157.5 182.064 158.5 171.564 164.5C161.064 170.5 122.064 193 110.564 199.5C99.0636 206 90.5636 222.5 90.5636 234.5C90.5636 246.5 80.0636 264 70.5636 269.5C61.0637 275 61.0636 275 50.064 281L50.0636 281Z" fill="#18183D"/>
<path d="M192.064 181L101.064 233.5V252.5L117.53 243L192.064 200V181Z" fill="#20BAFF"/>
<path d="M283.064 233.5L192.064 181V200L266.597 243L283.064 252.5V233.5Z" fill="#037EDB"/>
<path d="M101.064 252.5L192.064 305V286L117.53 243L101.064 252.5Z" fill="url(#paint0_linear_780_1193)"/>
<path fill-rule="evenodd" clip-rule="evenodd" d="M192.064 286L117.53 243L192.064 200L266.597 243L192.064 286Z" fill="#0C9BF9"/>
<path d="M192.064 305L283.064 252.5L266.597 243L192.064 286V305Z" fill="url(#paint1_linear_780_1193)"/>
<path d="M262.064 217.385L192.064 257.769L122.064 217.385L192.064 177L262.064 217.385Z" fill="url(#paint2_linear_780_1193)"/>
<path d="M192.064 257.769L122.064 217.385V232L192.064 272.385V257.769Z" fill="url(#paint3_linear_780_1193)"/>
<path d="M262.064 217.385L192.064 257.769V272.385L262.064 232V217.385Z" fill="url(#paint4_linear_780_1193)"/>
<path d="M192.064 137L101.064 189.5V208.5L117.53 199L192.064 156V137Z" fill="#20BAFF"/>
<path d="M283.064 189.5L192.064 137V156L266.597 199L283.064 208.5V189.5Z" fill="#037EDB"/>
<path d="M101.064 208.5L192.064 261V242L117.53 199L101.064 208.5Z" fill="url(#paint5_linear_780_1193)"/>
<path fill-rule="evenodd" clip-rule="evenodd" d="M192.064 242L117.53 199L192.064 156L266.597 199L192.064 242Z" fill="#0C9BF9"/>
<path d="M192.064 261L283.064 208.5L266.597 199L192.064 242V261Z" fill="url(#paint6_linear_780_1193)"/>
<path d="M262.064 173.385L192.064 213.769L122.064 173.385L192.064 133L262.064 173.385Z" fill="url(#paint7_linear_780_1193)"/>
<path d="M192.064 213.769L122.064 173.385V188L192.064 228.385V213.769Z" fill="url(#paint8_linear_780_1193)"/>
<path d="M262.064 173.385L192.064 213.769V228.385L262.064 188V173.385Z" fill="url(#paint9_linear_780_1193)"/>
<path d="M192.064 93L101.064 145.5V164.5L117.53 155L192.064 112V93Z" fill="#20BAFF"/>
<path d="M283.064 145.5L192.064 93V112L266.597 155L283.064 164.5V145.5Z" fill="#037EDB"/>
<path d="M101.064 164.5L192.064 217V198L117.53 155L101.064 164.5Z" fill="url(#paint10_linear_780_1193)"/>
<path fill-rule="evenodd" clip-rule="evenodd" d="M192.064 198L117.53 155L192.064 112L266.597 155L192.064 198Z" fill="#0C9BF9"/>
<path d="M192.064 217L283.064 164.5L266.597 155L192.064 198V217Z" fill="url(#paint11_linear_780_1193)"/>
<path d="M262.064 129.385L192.064 169.769L122.064 129.385L192.064 89L262.064 129.385Z" fill="url(#paint12_linear_780_1193)"/>
<path d="M192.064 169.769L122.064 129.385V144L192.064 184.385V169.769Z" fill="url(#paint13_linear_780_1193)"/>
<path d="M262.064 129.385L192.064 169.769V184.385L262.064 144V129.385Z" fill="url(#paint14_linear_780_1193)"/>
<path d="M192.064 49L101.064 101.5V120.5L117.53 111L192.064 68V49Z" fill="#20BAFF"/>
<path d="M283.064 101.5L192.064 49V68L266.597 111L283.064 120.5V101.5Z" fill="#037EDB"/>
<path d="M101.064 120.5L192.064 173V154L117.53 111L101.064 120.5Z" fill="url(#paint15_linear_780_1193)"/>
<path fill-rule="evenodd" clip-rule="evenodd" d="M192.064 154L117.53 111L192.064 68L266.597 111L192.064 154Z" fill="#0C9BF9"/>
<path d="M192.064 173L283.064 120.5L266.597 111L192.064 154V173Z" fill="url(#paint16_linear_780_1193)"/>
<path d="M262.064 85.3846L192.064 125.769L122.064 85.3846L192.064 45L262.064 85.3846Z" fill="url(#paint17_linear_780_1193)"/>
<path d="M192.064 125.769L122.064 85.3846V100L192.064 140.385V125.769Z" fill="url(#paint18_linear_780_1193)"/>
<path d="M262.064 85.3846L192.064 125.769V140.385L262.064 100V85.3846Z" fill="url(#paint19_linear_780_1193)"/>
<path d="M101.064 73.5L192.064 126V107L101.064 54.5V73.5Z" fill="#37384F"/>
<path d="M192.064 126L283.064 73.5V54.5L192.064 107V126Z" fill="#90909D"/>
<path d="M283.064 54.5L192.064 2L101.064 54.5L192.064 107L283.064 54.5Z" fill="url(#paint20_linear_780_1193)"/>
<path d="M201.564 250L274.064 208M201.064 294.5L273.564 252.5M201.564 162L274.064 120M201.564 115L274.064 73M201.064 206.5L273.564 164.5M201.064 243L218.064 233.152M200.564 287.5L218.064 277.362M201.064 155L218.064 145.152M201.064 108L218.064 98.1517M200.564 199.5L218.064 189.362" stroke="white" stroke-width="2" stroke-linecap="round"/>
<g filter="url(#filter1_d_780_1193)">
<path d="M186.064 115C176.064 120.5 176.064 131.5 176.064 144L176.064 319.497M176.064 319.497V319.5M176.064 319.497C176.064 306.998 176.064 296.499 186.064 291M176.064 188.5C176.064 176 176.064 165.5 186.064 160M176.064 234.003V234C176.064 221.501 176.064 211.002 186.064 205.503M176.064 277.503V277.5C176.064 265.001 176.064 254.502 186.064 249.003" stroke="#F5E48C" stroke-width="2" stroke-linecap="round" stroke-linejoin="round"/>
</g>
<g filter="url(#filter2_d_780_1193)">
<path d="M129.827 124.549C126.627 126.546 125.73 129.789 126.064 130.954L122.912 134.947L135.063 105L137.063 105.998L129.827 124.549Z" fill="white"/>
<path d="M96.859 208.718C96.6226 208.727 94.8968 213.112 94.0635 215.304L109.656 224.288C109.521 225.191 109.393 226.105 109.271 227.024L92.564 217.3V213.058L94.5635 208.79C95.2813 208.773 96.0514 208.749 96.859 208.718Z" fill="white"/>
<path d="M65.0636 289.672L63.0636 288.673L75.9659 256.73C75.4786 259.688 75.0226 262.669 74.6096 265.527L72.5636 270.206L73.8884 270.705C73.7736 271.561 73.6641 272.395 73.5602 273.201L72.0636 272.38L65.0636 289.672Z" fill="white"/>
<path d="M107.629 245.541C107.602 246.142 107.581 246.712 107.564 247.247C107.372 247.438 107.279 247.703 107.283 247.984L91.2728 238.263L92.0635 236.429L107.629 245.541Z" fill="white"/>
<path d="M100.064 151.917C97.5639 153.414 94.064 151.917 92.564 149.92L94.0639 147.425C99.0639 148.423 100.064 147.425 100.064 139.938C100.064 139.037 101.085 137.459 102.063 136.444C104.025 144.475 104.756 147.68 102.564 148.582C101.962 148.829 101.141 148.922 100.064 148.922V151.917Z" fill="#F4ACC8"/>
<path d="M127.564 131.952L126.064 130.954C125.73 129.789 126.627 126.546 129.827 124.549C132.063 123.467 134.451 124.893 135.063 125.963C134.909 125.808 134.095 125.769 132.063 126.719C131.488 127.006 130.486 127.59 130.051 127.959C128.217 129.515 127.564 131.549 127.564 131.952Z" fill="#F4ACC8"/>
<path d="M98.5637 191.346C91.5635 195.339 82.564 196.837 75.064 193.343C73.8181 181.364 78.564 157.906 86.064 149.92H92.564C94.064 151.917 97.5639 153.414 100.064 151.917C101.064 151.917 103.022 153.164 105.064 154.724C107.106 156.284 109.231 158.155 110.564 159.403C108.738 161.53 106.037 164.835 103.564 168.179C100.619 172.161 97.9986 176.199 97.5639 178.369C96.7641 182.362 97.8972 188.684 98.5637 191.346Z" fill="#80EBEB"/>
<path d="M118.064 182.362L132.064 175.375L133.564 176.872C130.591 179.497 125.249 183.923 121.284 186.444C120.265 187.092 119.337 187.613 118.563 187.947C117.959 188.207 117.449 188.352 117.064 188.352C116.131 188.352 114.692 186.86 113.064 184.621C111.276 182.163 109.26 178.803 107.437 175.531C105.937 172.838 104.568 170.204 103.564 168.179C106.037 164.835 108.738 161.53 110.564 159.403L111.814 162.897L113.064 166.391L118.064 182.362Z" fill="#9CF5F5"/>
<path d="M105.064 154.724C103.022 153.164 101.064 151.917 100.064 151.917V148.922C101.141 148.922 101.962 148.829 102.564 148.582L113.064 147.425L122.912 134.947L126.064 130.954L127.564 131.952C126.277 134.6 124.208 138.666 122.096 142.433C120.378 145.497 118.632 148.364 117.257 150.113C116.817 150.672 116.415 151.117 116.064 151.417C113.264 153.813 107.564 154.62 105.064 154.724Z" fill="#78DEDE"/>
<path d="M109.564 246.748H118.564C117.366 247.944 115.479 248.91 113.564 249.428C112.159 249.808 110.739 249.946 109.564 249.756C108.997 249.665 108.487 249.497 108.064 249.243C107.55 248.936 107.289 248.438 107.283 247.984C107.279 247.703 107.372 247.438 107.564 247.247L109.564 246.748Z" fill="#80EBEB"/>
<path d="M73.064 277.194L75.564 274.698L82.5635 275.931L84.064 276.195C83.9266 276.274 83.7591 276.364 83.564 276.464C82.9663 276.77 82.1095 277.164 81.064 277.571C79.5536 278.159 77.6494 278.774 75.564 279.19C71.564 279.989 72.2307 278.192 73.064 277.194Z" fill="#80EBEB"/>
<path d="M109.564 246.748L107.564 247.247C107.581 246.712 107.602 246.142 107.629 245.541C107.845 240.641 108.388 233.699 109.271 227.024C109.393 226.105 109.521 225.191 109.656 224.288C110.808 216.554 112.437 209.634 114.564 207.318C110.436 207.917 102.676 208.495 96.859 208.718C96.0514 208.749 95.2813 208.773 94.5635 208.79C93.8385 208.807 93.1668 208.815 92.564 208.815C87.064 208.815 78.564 206.32 76.564 202.826C74.564 199.831 74.7373 194.865 75.064 193.343C82.564 196.837 91.5635 195.339 98.5637 191.346C99.1837 191.41 99.8537 191.483 100.563 191.567C101.43 191.67 102.355 191.788 103.321 191.921C111.985 193.114 123.901 195.513 125.564 198.833C126.229 200.161 125.364 204.323 123.686 209.814L123.568 210.202C123.4 210.753 123.293 211.104 123.063 211.81C121.44 216.805 119.135 223.107 116.926 228.78C116.639 229.515 116.352 230.249 116.064 230.978C113.738 236.871 111.4 242.488 109.564 246.748Z" fill="#4C4E6E"/>
<path d="M76.564 202.826C78.564 206.32 87.064 208.815 92.564 208.815V213.058V217.3V235.268L92.0635 236.429L91.2728 238.263L84.3868 254.235L83.564 256.143L76.5635 272.38L75.564 274.698L73.064 277.194C73.2104 275.967 73.3765 274.627 73.5602 273.201C73.6641 272.395 73.7736 271.561 73.8884 270.705C74.1101 269.051 74.3515 267.313 74.6096 265.527C75.0226 262.669 75.4786 259.688 75.9659 256.73C77.9117 244.92 80.3569 233.488 82.564 231.774C79.8562 222.957 75.1147 206.02 76.564 202.826Z" fill="#37384F"/>
<path d="M100.064 139.938C100.064 147.425 99.0639 148.423 94.0639 147.425C92.2306 145.927 89.464 141.834 93.0639 137.442C96.6639 133.05 101.897 133.948 104.064 134.947C103.879 135.085 103.685 135.208 103.483 135.336C103.051 135.61 102.579 135.909 102.063 136.444C101.085 137.459 100.064 139.037 100.064 139.938Z" fill="#37384F"/>
<path fill-rule="evenodd" clip-rule="evenodd" d="M83.564 256.143L84.3868 254.235L114.064 271.204L120.064 255.732L109.564 249.756C110.739 249.946 112.159 249.808 113.564 249.428L121.064 253.735L127.564 236.766L116.064 230.978C116.352 230.249 116.639 229.515 116.926 228.78L128.564 234.27L134.563 217.799L123.063 211.81C123.293 211.104 123.4 210.753 123.568 210.202L123.686 209.814L135.563 215.803L141.063 200.83L118.563 187.947C119.337 187.613 120.265 187.092 121.284 186.444L142.063 198.833L148.563 182.862L136.064 175.84C137.169 175.352 138.29 174.81 139.063 174.332L149.563 180.366L155.563 164.893L121.563 144.929L115.563 160.901L134.512 171.881C133.928 172.453 133.38 173.185 132.929 173.877L114.563 162.897L113.064 166.391L111.814 162.897L117.257 150.113C118.632 148.364 120.378 145.497 122.096 142.433L156.563 162.897L162.563 146.426L130.051 127.959C130.486 127.59 131.488 127.006 132.063 126.719L163.563 144.43L171.063 125.464L173.064 126.462L100.564 310.135L99.0639 309.137L106.064 291.668L81.064 277.571C82.1095 277.164 82.9663 276.77 83.564 276.464L107.064 289.672L113.064 273.7L83.564 256.143Z" fill="white"/>
<path d="M133.564 176.872L132.064 175.375C132.266 174.972 132.565 174.438 132.929 173.877C133.38 173.185 133.928 172.453 134.512 171.881C135.016 171.387 135.547 171.012 136.064 170.883C138.064 170.384 140.064 172.38 140.064 173.378C140.064 173.619 139.671 173.956 139.063 174.332C138.29 174.81 137.169 175.352 136.064 175.84C135.151 176.243 134.249 176.609 133.564 176.872Z" fill="#F4ACC8"/>
<path d="M113.064 184.621L107.563 181.364L103.321 191.921C102.355 191.788 101.43 191.67 100.563 191.567C100.563 190.991 105.146 180.637 107.437 175.531C109.26 178.803 111.276 182.163 113.064 184.621Z" fill="white"/>
</g>
</g>
</g>
<defs>
<filter id="filter0_d_780_1193" x="32" y="-4" width="320.752" height="362.25" filterUnits="userSpaceOnUse" color-interpolation-filters="sRGB">
<feFlood flood-opacity="0" result="BackgroundImageFix"/>
<feColorMatrix in="SourceAlpha" type="matrix" values="0 0 0 0 0 0 0 0 0 0 0 0 0 0 0 0 0 0 127 0" result="hardAlpha"/>
<feOffset dy="4"/>
<feGaussianBlur stdDeviation="5"/>
<feComposite in2="hardAlpha" operator="out"/>
<feColorMatrix type="matrix" values="0 0 0 0 0 0 0 0 0 0 0 0 0 0 0 0 0 0 0.25 0"/>
<feBlend mode="normal" in2="BackgroundImageFix" result="effect1_dropShadow_780_1193"/>
<feBlend mode="normal" in="SourceGraphic" in2="effect1_dropShadow_780_1193" result="shape"/>
</filter>
<filter id="filter1_d_780_1193" x="173.064" y="112" width="16.0002" height="210.5" filterUnits="userSpaceOnUse" color-interpolation-filters="sRGB">
<feFlood flood-opacity="0" result="BackgroundImageFix"/>
<feColorMatrix in="SourceAlpha" type="matrix" values="0 0 0 0 0 0 0 0 0 0 0 0 0 0 0 0 0 0 127 0" result="hardAlpha"/>
<feOffset/>
<feGaussianBlur stdDeviation="1"/>
<feComposite in2="hardAlpha" operator="out"/>
<feColorMatrix type="matrix" values="0 0 0 0 0 0 0 0 0 0 0 0 0 0 0 0 0 0 0.25 0"/>
<feBlend mode="normal" in2="BackgroundImageFix" result="effect1_dropShadow_780_1193"/>
<feBlend mode="normal" in="SourceGraphic" in2="effect1_dropShadow_780_1193" result="shape"/>
</filter>
<filter id="filter2_d_780_1193" x="59.0636" y="105" width="118" height="213.135" filterUnits="userSpaceOnUse" color-interpolation-filters="sRGB">
<feFlood flood-opacity="0" result="BackgroundImageFix"/>
<feColorMatrix in="SourceAlpha" type="matrix" values="0 0 0 0 0 0 0 0 0 0 0 0 0 0 0 0 0 0 127 0" result="hardAlpha"/>
<feOffset dy="4"/>
<feGaussianBlur stdDeviation="2"/>
<feComposite in2="hardAlpha" operator="out"/>
<feColorMatrix type="matrix" values="0 0 0 0 0 0 0 0 0 0 0 0 0 0 0 0 0 0 0.25 0"/>
<feBlend mode="normal" in2="BackgroundImageFix" result="effect1_dropShadow_780_1193"/>
<feBlend mode="normal" in="SourceGraphic" in2="effect1_dropShadow_780_1193" result="shape"/>
</filter>
<linearGradient id="paint0_linear_780_1193" x1="192.064" y1="305" x2="112.064" y2="259" gradientUnits="userSpaceOnUse">
<stop stop-color="#037EDB"/>
<stop offset="1" stop-color="#20BAFF"/>
</linearGradient>
<linearGradient id="paint1_linear_780_1193" x1="192.064" y1="305" x2="273.564" y2="258" gradientUnits="userSpaceOnUse">
<stop stop-color="#20BAFF"/>
<stop offset="1" stop-color="#037EDB"/>
</linearGradient>
<linearGradient id="paint2_linear_780_1193" x1="125.525" y1="230.077" x2="262.064" y2="230.077" gradientUnits="userSpaceOnUse">
<stop stop-color="#86AFF0"/>
<stop offset="0.0001" stop-color="#86AFF0"/>
<stop offset="1" stop-color="#E9F1FD"/>
</linearGradient>
<linearGradient id="paint3_linear_780_1193" x1="125.525" y1="230.077" x2="262.064" y2="230.077" gradientUnits="userSpaceOnUse">
<stop stop-color="#86AFF0"/>
<stop offset="0.0001" stop-color="#86AFF0"/>
<stop offset="1" stop-color="#E9F1FD"/>
</linearGradient>
<linearGradient id="paint4_linear_780_1193" x1="125.525" y1="230.077" x2="262.064" y2="230.077" gradientUnits="userSpaceOnUse">
<stop stop-color="#86AFF0"/>
<stop offset="0.0001" stop-color="#86AFF0"/>
<stop offset="1" stop-color="#E9F1FD"/>
</linearGradient>
<linearGradient id="paint5_linear_780_1193" x1="192.064" y1="261" x2="112.064" y2="215" gradientUnits="userSpaceOnUse">
<stop stop-color="#037EDB"/>
<stop offset="1" stop-color="#20BAFF"/>
</linearGradient>
<linearGradient id="paint6_linear_780_1193" x1="192.064" y1="261" x2="273.564" y2="214" gradientUnits="userSpaceOnUse">
<stop stop-color="#20BAFF"/>
<stop offset="1" stop-color="#037EDB"/>
</linearGradient>
<linearGradient id="paint7_linear_780_1193" x1="125.525" y1="186.077" x2="262.064" y2="186.077" gradientUnits="userSpaceOnUse">
<stop stop-color="#86AFF0"/>
<stop offset="0.0001" stop-color="#86AFF0"/>
<stop offset="1" stop-color="#E9F1FD"/>
</linearGradient>
<linearGradient id="paint8_linear_780_1193" x1="125.525" y1="186.077" x2="262.064" y2="186.077" gradientUnits="userSpaceOnUse">
<stop stop-color="#86AFF0"/>
<stop offset="0.0001" stop-color="#86AFF0"/>
<stop offset="1" stop-color="#E9F1FD"/>
</linearGradient>
<linearGradient id="paint9_linear_780_1193" x1="125.525" y1="186.077" x2="262.064" y2="186.077" gradientUnits="userSpaceOnUse">
<stop stop-color="#86AFF0"/>
<stop offset="0.0001" stop-color="#86AFF0"/>
<stop offset="1" stop-color="#E9F1FD"/>
</linearGradient>
<linearGradient id="paint10_linear_780_1193" x1="192.064" y1="217" x2="112.064" y2="171" gradientUnits="userSpaceOnUse">
<stop stop-color="#037EDB"/>
<stop offset="1" stop-color="#20BAFF"/>
</linearGradient>
<linearGradient id="paint11_linear_780_1193" x1="192.064" y1="217" x2="273.564" y2="170" gradientUnits="userSpaceOnUse">
<stop stop-color="#20BAFF"/>
<stop offset="1" stop-color="#037EDB"/>
</linearGradient>
<linearGradient id="paint12_linear_780_1193" x1="125.525" y1="142.077" x2="262.064" y2="142.077" gradientUnits="userSpaceOnUse">
<stop stop-color="#86AFF0"/>
<stop offset="0.0001" stop-color="#86AFF0"/>
<stop offset="1" stop-color="#E9F1FD"/>
</linearGradient>
<linearGradient id="paint13_linear_780_1193" x1="125.525" y1="142.077" x2="262.064" y2="142.077" gradientUnits="userSpaceOnUse">
<stop stop-color="#86AFF0"/>
<stop offset="0.0001" stop-color="#86AFF0"/>
<stop offset="1" stop-color="#E9F1FD"/>
</linearGradient>
<linearGradient id="paint14_linear_780_1193" x1="125.525" y1="142.077" x2="262.064" y2="142.077" gradientUnits="userSpaceOnUse">
<stop stop-color="#86AFF0"/>
<stop offset="0.0001" stop-color="#86AFF0"/>
<stop offset="1" stop-color="#E9F1FD"/>
</linearGradient>
<linearGradient id="paint15_linear_780_1193" x1="192.064" y1="173" x2="112.064" y2="127" gradientUnits="userSpaceOnUse">
<stop stop-color="#037EDB"/>
<stop offset="1" stop-color="#20BAFF"/>
</linearGradient>
<linearGradient id="paint16_linear_780_1193" x1="192.064" y1="173" x2="273.564" y2="126" gradientUnits="userSpaceOnUse">
<stop stop-color="#20BAFF"/>
<stop offset="1" stop-color="#037EDB"/>
</linearGradient>
<linearGradient id="paint17_linear_780_1193" x1="125.525" y1="98.0769" x2="262.064" y2="98.0769" gradientUnits="userSpaceOnUse">
<stop stop-color="#86AFF0"/>
<stop offset="0.0001" stop-color="#86AFF0"/>
<stop offset="1" stop-color="#E9F1FD"/>
</linearGradient>
<linearGradient id="paint18_linear_780_1193" x1="125.525" y1="98.0769" x2="262.064" y2="98.0769" gradientUnits="userSpaceOnUse">
<stop stop-color="#86AFF0"/>
<stop offset="0.0001" stop-color="#86AFF0"/>
<stop offset="1" stop-color="#E9F1FD"/>
</linearGradient>
<linearGradient id="paint19_linear_780_1193" x1="125.525" y1="98.0769" x2="262.064" y2="98.0769" gradientUnits="userSpaceOnUse">
<stop stop-color="#86AFF0"/>
<stop offset="0.0001" stop-color="#86AFF0"/>
<stop offset="1" stop-color="#E9F1FD"/>
</linearGradient>
<linearGradient id="paint20_linear_780_1193" x1="192.064" y1="2" x2="192.064" y2="126" gradientUnits="userSpaceOnUse">
<stop stop-color="#0085FF"/>
<stop offset="1" stop-color="#00DDFF"/>
</linearGradient>
<clipPath id="clip0_780_1193">
<rect width="375" height="354" fill="white"/>
</clipPath>
</defs>
</svg>
