<svg width="322" height="363" viewBox="0 0 322 363" fill="none" xmlns="http://www.w3.org/2000/svg">
<g filter="url(#filter0_d_1007_1584)">
<path d="M18.5636 285C7.56359 291 8.06359 302.5 18.5636 308.5C21.7303 310.333 30.2636 315.2 39.0636 320C50.0636 326 89.0636 326 99.5636 331.5C110.064 337 106.564 336 119.564 343C132.564 350 149.064 350 160.564 343C172.064 336 289.564 269 302.064 262C314.564 255 314.064 245.5 302.064 238.5C290.064 231.5 192.564 175.5 180.564 168.5C168.564 161.5 150.564 162.5 140.064 168.5C129.564 174.5 90.5636 197 79.0636 203.5C67.5636 210 59.0636 226.5 59.0636 238.5C59.0636 250.5 48.5636 268 39.0636 273.5C29.5637 279 29.5636 279 18.564 285L18.5636 285Z" fill="#18183D"/>
<path d="M160.564 185L69.5636 237.5V256.5L86.0303 247L160.564 204V185Z" fill="#20BAFF"/>
<path d="M251.564 237.5L160.564 185V204L235.097 247L251.564 256.5V237.5Z" fill="#037EDB"/>
<path d="M69.5636 256.5L160.564 309V290L86.0303 247L69.5636 256.5Z" fill="url(#paint0_linear_1007_1584)"/>
<path fill-rule="evenodd" clip-rule="evenodd" d="M160.564 290L86.0303 247L160.564 204L235.097 247L160.564 290Z" fill="#0C9BF9"/>
<path d="M160.564 309L251.564 256.5L235.097 247L160.564 290V309Z" fill="url(#paint1_linear_1007_1584)"/>
<path d="M230.564 221.385L160.564 261.769L90.5636 221.385L160.564 181L230.564 221.385Z" fill="url(#paint2_linear_1007_1584)"/>
<path d="M160.564 261.769L90.5636 221.385V236L160.564 276.385V261.769Z" fill="url(#paint3_linear_1007_1584)"/>
<path d="M230.564 221.385L160.564 261.769V276.385L230.564 236V221.385Z" fill="url(#paint4_linear_1007_1584)"/>
<path d="M160.564 141L69.5636 193.5V212.5L86.0303 203L160.564 160V141Z" fill="#20BAFF"/>
<path d="M251.564 193.5L160.564 141V160L235.097 203L251.564 212.5V193.5Z" fill="#037EDB"/>
<path d="M69.5636 212.5L160.564 265V246L86.0303 203L69.5636 212.5Z" fill="url(#paint5_linear_1007_1584)"/>
<path fill-rule="evenodd" clip-rule="evenodd" d="M160.564 246L86.0303 203L160.564 160L235.097 203L160.564 246Z" fill="#0C9BF9"/>
<path d="M160.564 265L251.564 212.5L235.097 203L160.564 246V265Z" fill="url(#paint6_linear_1007_1584)"/>
<path d="M230.564 177.385L160.564 217.769L90.5636 177.385L160.564 137L230.564 177.385Z" fill="url(#paint7_linear_1007_1584)"/>
<path d="M160.564 217.769L90.5636 177.385V192L160.564 232.385V217.769Z" fill="url(#paint8_linear_1007_1584)"/>
<path d="M230.564 177.385L160.564 217.769V232.385L230.564 192V177.385Z" fill="url(#paint9_linear_1007_1584)"/>
<path d="M160.564 97L69.5636 149.5V168.5L86.0303 159L160.564 116V97Z" fill="#20BAFF"/>
<path d="M251.564 149.5L160.564 97V116L235.097 159L251.564 168.5V149.5Z" fill="#037EDB"/>
<path d="M69.5636 168.5L160.564 221V202L86.0303 159L69.5636 168.5Z" fill="url(#paint10_linear_1007_1584)"/>
<path fill-rule="evenodd" clip-rule="evenodd" d="M160.564 202L86.0303 159L160.564 116L235.097 159L160.564 202Z" fill="#0C9BF9"/>
<path d="M160.564 221L251.564 168.5L235.097 159L160.564 202V221Z" fill="url(#paint11_linear_1007_1584)"/>
<path d="M230.564 133.385L160.564 173.769L90.5636 133.385L160.564 93L230.564 133.385Z" fill="url(#paint12_linear_1007_1584)"/>
<path d="M160.564 173.769L90.5636 133.385V148L160.564 188.385V173.769Z" fill="url(#paint13_linear_1007_1584)"/>
<path d="M230.564 133.385L160.564 173.769V188.385L230.564 148V133.385Z" fill="url(#paint14_linear_1007_1584)"/>
<path d="M160.564 53L69.5636 105.5V124.5L86.0303 115L160.564 72V53Z" fill="#20BAFF"/>
<path d="M251.564 105.5L160.564 53V72L235.097 115L251.564 124.5V105.5Z" fill="#037EDB"/>
<path d="M69.5636 124.5L160.564 177V158L86.0303 115L69.5636 124.5Z" fill="url(#paint15_linear_1007_1584)"/>
<path fill-rule="evenodd" clip-rule="evenodd" d="M160.564 158L86.0303 115L160.564 72L235.097 115L160.564 158Z" fill="#0C9BF9"/>
<path d="M160.564 177L251.564 124.5L235.097 115L160.564 158V177Z" fill="url(#paint16_linear_1007_1584)"/>
<path d="M230.564 89.3846L160.564 129.769L90.5636 89.3846L160.564 49L230.564 89.3846Z" fill="url(#paint17_linear_1007_1584)"/>
<path d="M160.564 129.769L90.5636 89.3846V104L160.564 144.385V129.769Z" fill="url(#paint18_linear_1007_1584)"/>
<path d="M230.564 89.3846L160.564 129.769V144.385L230.564 104V89.3846Z" fill="url(#paint19_linear_1007_1584)"/>
<path d="M69.5636 77.5L160.564 130V111L69.5636 58.5V77.5Z" fill="#37384F"/>
<path d="M160.564 130L251.564 77.5V58.5L160.564 111V130Z" fill="#90909D"/>
<path d="M251.564 58.5L160.564 6L69.5636 58.5L160.564 111L251.564 58.5Z" fill="url(#paint20_linear_1007_1584)"/>
<path d="M170.064 254L242.564 212M169.564 298.5L242.064 256.5M170.064 166L242.564 124M170.064 119L242.564 77M169.564 210.5L242.064 168.5M169.564 247L186.564 237.152M169.064 291.5L186.564 281.362M169.564 159L186.564 149.152M169.564 112L186.564 102.152M169.064 203.5L186.564 193.362" stroke="white" stroke-width="2" stroke-linecap="round"/>
<g filter="url(#filter1_d_1007_1584)">
<path d="M154.564 119C144.564 124.5 144.564 135.5 144.564 148L144.564 323.497M144.564 323.497V323.5M144.564 323.497C144.564 310.998 144.564 300.499 154.564 295M144.564 192.5C144.564 180 144.564 169.5 154.564 164M144.564 238.003V238C144.564 225.501 144.564 215.002 154.564 209.503M144.564 281.503V281.5C144.564 269.001 144.564 258.502 154.564 253.003" stroke="#F5E48C" stroke-width="2" stroke-linecap="round" stroke-linejoin="round"/>
</g>
<g filter="url(#filter2_d_1007_1584)">
<path d="M98.3265 128.549C95.1265 130.546 94.2303 133.789 94.5638 134.954L91.4123 138.947L103.563 109L105.563 109.998L98.3265 128.549Z" fill="white"/>
<path d="M65.359 212.718C65.1226 212.727 63.3968 217.112 62.5635 219.304L78.1558 228.288C78.0212 229.191 77.8931 230.105 77.7715 231.024L61.064 221.3V217.058L63.0635 212.79C63.7813 212.773 64.5514 212.749 65.359 212.718Z" fill="white"/>
<path d="M33.5636 293.672L31.5636 292.673L44.4659 260.73C43.9786 263.688 43.5226 266.669 43.1096 269.527L41.0636 274.206L42.3884 274.705C42.2736 275.561 42.1641 276.395 42.0602 277.201L40.5636 276.38L33.5636 293.672Z" fill="white"/>
<path d="M76.1288 249.541C76.1023 250.142 76.0806 250.712 76.0639 251.247C75.8723 251.438 75.7786 251.703 75.7828 251.984L59.7728 242.263L60.5635 240.429L76.1288 249.541Z" fill="white"/>
<path d="M68.5639 155.917C66.0639 157.414 62.5639 155.917 61.064 153.92L62.5639 151.425C67.5639 152.423 68.5639 151.425 68.5639 143.938C68.5639 143.037 69.5847 141.459 70.5634 140.444C72.525 148.475 73.2558 151.68 71.0639 152.582C70.4623 152.829 69.6407 152.922 68.5639 152.922V155.917Z" fill="#F4ACC8"/>
<path d="M96.0638 135.952L94.5638 134.954C94.2303 133.789 95.1265 130.546 98.3265 128.549C100.563 127.467 102.951 128.893 103.563 129.963C103.409 129.808 102.595 129.769 100.563 130.719C99.9881 131.006 98.9865 131.59 98.5513 131.959C96.7168 133.515 96.0638 135.549 96.0638 135.952Z" fill="#F4ACC8"/>
<path d="M67.0637 195.346C60.0635 199.339 51.064 200.837 43.564 197.343C42.3181 185.364 47.064 161.906 54.564 153.92H61.064C62.5639 155.917 66.0639 157.414 68.5639 155.917C69.5639 155.917 71.5222 157.164 73.5639 158.724C75.6056 160.284 77.7305 162.155 79.0639 163.403C77.2379 165.53 74.5368 168.835 72.0639 172.179C69.1195 176.161 66.4986 180.199 66.0639 182.37C65.2641 186.362 66.3972 192.685 67.0637 195.346Z" fill="#80EBEB"/>
<path d="M86.5638 186.362L100.564 179.375L102.064 180.872C99.0909 183.497 93.7491 187.924 89.7838 190.444C88.7649 191.092 87.8369 191.613 87.0634 191.947C86.4592 192.207 85.9493 192.352 85.5638 192.352C84.6312 192.352 83.192 190.86 81.5639 188.621C79.7757 186.163 77.7597 182.803 75.937 179.531C74.4368 176.838 73.0675 174.204 72.0639 172.179C74.5368 168.835 77.2379 165.53 79.0639 163.403L80.3139 166.897L81.5639 170.391L86.5638 186.362Z" fill="#9CF5F5"/>
<path d="M73.5639 158.724C71.5222 157.164 69.5639 155.917 68.5639 155.917V152.922C69.6407 152.922 70.4623 152.829 71.0639 152.582L81.5639 151.425L91.4123 138.947L94.5638 134.954L96.0638 135.952C94.7775 138.6 92.7078 142.666 90.5955 146.433C88.8779 149.497 87.1322 152.364 85.7566 154.113C85.3168 154.672 84.9149 155.117 84.5639 155.417C81.7639 157.813 76.0639 158.62 73.5639 158.724Z" fill="#78DEDE"/>
<path d="M78.0636 250.748H87.0638C85.8659 251.944 83.9793 252.91 82.0639 253.428C80.6591 253.808 79.2389 253.946 78.0636 253.756C77.4971 253.665 76.9874 253.497 76.5639 253.243C76.0498 252.936 75.7894 252.438 75.7828 251.984C75.7786 251.703 75.8723 251.438 76.0639 251.247L78.0636 250.748Z" fill="#80EBEB"/>
<path d="M41.564 281.194L44.064 278.698L51.0635 279.931L52.564 280.196C52.4266 280.274 52.2591 280.364 52.064 280.464C51.4663 280.77 50.6095 281.164 49.564 281.571C48.0536 282.159 46.1494 282.774 44.064 283.19C40.064 283.989 40.7307 282.192 41.564 281.194Z" fill="#80EBEB"/>
<path d="M78.0636 250.748L76.0639 251.247C76.0806 250.712 76.1023 250.142 76.1288 249.541C76.3453 244.642 76.8883 237.699 77.7715 231.024C77.8931 230.105 78.0212 229.191 78.1558 228.288C79.3083 220.554 80.9368 213.634 83.0639 211.318C78.9356 211.917 71.1765 212.495 65.359 212.718C64.5514 212.749 63.7813 212.773 63.0635 212.79C62.3385 212.807 61.6668 212.815 61.064 212.815C55.564 212.815 47.064 210.32 45.064 206.826C43.064 203.831 43.2373 198.865 43.564 197.343C51.064 200.837 60.0635 199.339 67.0637 195.346C67.6837 195.41 68.3537 195.483 69.0634 195.567C69.9297 195.67 70.8551 195.788 71.8209 195.921C80.4849 197.114 92.4008 199.513 94.0636 202.833C94.7287 204.161 93.8637 208.323 92.186 213.814L92.0676 214.202C91.8997 214.753 91.7927 215.104 91.5633 215.81C89.9398 220.805 87.6347 227.107 85.4257 232.78C85.1393 233.515 84.8517 234.249 84.5639 234.978C82.2379 240.871 79.8996 246.488 78.0636 250.748Z" fill="#4C4E6E"/>
<path d="M45.064 206.826C47.064 210.32 55.564 212.815 61.064 212.815V217.058V221.3V239.268L60.5635 240.429L59.7728 242.263L52.8868 258.235L52.064 260.143L45.0635 276.38L44.064 278.698L41.564 281.194C41.7104 279.967 41.8765 278.627 42.0602 277.201C42.1641 276.395 42.2736 275.561 42.3884 274.705C42.6101 273.051 42.8515 271.313 43.1096 269.527C43.5226 266.669 43.9786 263.688 44.4659 260.73C46.4117 248.92 48.8569 237.488 51.064 235.775C48.3562 226.957 43.6147 210.02 45.064 206.826Z" fill="#37384F"/>
<path d="M68.5639 143.938C68.5639 151.425 67.5639 152.423 62.5639 151.425C60.7306 149.927 57.964 145.834 61.5639 141.442C65.1639 137.05 70.3972 137.949 72.5639 138.947C72.3787 139.085 72.1852 139.208 71.9831 139.336C71.5509 139.61 71.0791 139.909 70.5634 140.444C69.5847 141.459 68.5639 143.037 68.5639 143.938Z" fill="#37384F"/>
<path fill-rule="evenodd" clip-rule="evenodd" d="M52.064 260.143L52.8868 258.235L82.5639 275.204L88.5638 259.732L78.0636 253.756C79.2389 253.946 80.6591 253.808 82.0639 253.428L89.5638 257.735L96.0638 240.766L84.5639 234.978C84.8517 234.249 85.1393 233.515 85.4257 232.78L97.0638 238.27L103.063 221.799L91.5633 215.81C91.7927 215.104 91.8997 214.753 92.0676 214.202L92.186 213.814L104.063 219.803L109.563 204.83L87.0634 191.947C87.8369 191.613 88.7649 191.092 89.7838 190.444L110.563 202.833L117.063 186.862L104.564 179.84C105.669 179.352 106.79 178.81 107.563 178.332L118.063 184.366L124.063 168.893L90.0633 148.929L84.0634 164.901L103.012 175.881C102.428 176.453 101.88 177.185 101.429 177.878L83.0634 166.897L81.5639 170.391L80.3139 166.897L85.7566 154.113C87.1322 152.364 88.8779 149.497 90.5955 146.433L125.063 166.897L131.063 150.426L98.5513 131.959C98.9865 131.59 99.9881 131.006 100.563 130.719L132.063 148.43L139.563 129.464L141.564 130.462L69.0639 314.135L67.5639 313.137L74.5639 295.668L49.564 281.571C50.6095 281.164 51.4663 280.77 52.064 280.464L75.5639 293.672L81.5639 277.7L52.064 260.143Z" fill="white"/>
<path d="M102.064 180.872L100.564 179.375C100.766 178.972 101.065 178.438 101.429 177.878C101.88 177.185 102.428 176.453 103.012 175.881C103.516 175.387 104.047 175.012 104.564 174.883C106.564 174.384 108.564 176.38 108.564 177.378C108.564 177.619 108.171 177.956 107.563 178.332C106.79 178.81 105.669 179.352 104.564 179.84C103.651 180.243 102.749 180.609 102.064 180.872Z" fill="#F4ACC8"/>
<path d="M81.5639 188.621L76.0634 185.364L71.8209 195.921C70.8551 195.788 69.9297 195.67 69.0634 195.567C69.0634 194.991 73.6458 184.637 75.937 179.531C77.7597 182.803 79.7757 186.163 81.5639 188.621Z" fill="white"/>
</g>
</g>
<defs>
<filter id="filter0_d_1007_1584" x="0.5" y="0" width="320.752" height="362.25" filterUnits="userSpaceOnUse" color-interpolation-filters="sRGB">
<feFlood flood-opacity="0" result="BackgroundImageFix"/>
<feColorMatrix in="SourceAlpha" type="matrix" values="0 0 0 0 0 0 0 0 0 0 0 0 0 0 0 0 0 0 127 0" result="hardAlpha"/>
<feOffset dy="4"/>
<feGaussianBlur stdDeviation="5"/>
<feComposite in2="hardAlpha" operator="out"/>
<feColorMatrix type="matrix" values="0 0 0 0 0 0 0 0 0 0 0 0 0 0 0 0 0 0 0.25 0"/>
<feBlend mode="normal" in2="BackgroundImageFix" result="effect1_dropShadow_1007_1584"/>
<feBlend mode="normal" in="SourceGraphic" in2="effect1_dropShadow_1007_1584" result="shape"/>
</filter>
<filter id="filter1_d_1007_1584" x="141.564" y="116" width="16.0002" height="210.5" filterUnits="userSpaceOnUse" color-interpolation-filters="sRGB">
<feFlood flood-opacity="0" result="BackgroundImageFix"/>
<feColorMatrix in="SourceAlpha" type="matrix" values="0 0 0 0 0 0 0 0 0 0 0 0 0 0 0 0 0 0 127 0" result="hardAlpha"/>
<feOffset/>
<feGaussianBlur stdDeviation="1"/>
<feComposite in2="hardAlpha" operator="out"/>
<feColorMatrix type="matrix" values="0 0 0 0 0 0 0 0 0 0 0 0 0 0 0 0 0 0 0.25 0"/>
<feBlend mode="normal" in2="BackgroundImageFix" result="effect1_dropShadow_1007_1584"/>
<feBlend mode="normal" in="SourceGraphic" in2="effect1_dropShadow_1007_1584" result="shape"/>
</filter>
<filter id="filter2_d_1007_1584" x="27.5636" y="109" width="118" height="213.135" filterUnits="userSpaceOnUse" color-interpolation-filters="sRGB">
<feFlood flood-opacity="0" result="BackgroundImageFix"/>
<feColorMatrix in="SourceAlpha" type="matrix" values="0 0 0 0 0 0 0 0 0 0 0 0 0 0 0 0 0 0 127 0" result="hardAlpha"/>
<feOffset dy="4"/>
<feGaussianBlur stdDeviation="2"/>
<feComposite in2="hardAlpha" operator="out"/>
<feColorMatrix type="matrix" values="0 0 0 0 0 0 0 0 0 0 0 0 0 0 0 0 0 0 0.25 0"/>
<feBlend mode="normal" in2="BackgroundImageFix" result="effect1_dropShadow_1007_1584"/>
<feBlend mode="normal" in="SourceGraphic" in2="effect1_dropShadow_1007_1584" result="shape"/>
</filter>
<linearGradient id="paint0_linear_1007_1584" x1="160.564" y1="309" x2="80.5636" y2="263" gradientUnits="userSpaceOnUse">
<stop stop-color="#037EDB"/>
<stop offset="1" stop-color="#20BAFF"/>
</linearGradient>
<linearGradient id="paint1_linear_1007_1584" x1="160.564" y1="309" x2="242.064" y2="262" gradientUnits="userSpaceOnUse">
<stop stop-color="#20BAFF"/>
<stop offset="1" stop-color="#037EDB"/>
</linearGradient>
<linearGradient id="paint2_linear_1007_1584" x1="94.0251" y1="234.077" x2="230.564" y2="234.077" gradientUnits="userSpaceOnUse">
<stop stop-color="#86AFF0"/>
<stop offset="0.0001" stop-color="#86AFF0"/>
<stop offset="1" stop-color="#E9F1FD"/>
</linearGradient>
<linearGradient id="paint3_linear_1007_1584" x1="94.0251" y1="234.077" x2="230.564" y2="234.077" gradientUnits="userSpaceOnUse">
<stop stop-color="#86AFF0"/>
<stop offset="0.0001" stop-color="#86AFF0"/>
<stop offset="1" stop-color="#E9F1FD"/>
</linearGradient>
<linearGradient id="paint4_linear_1007_1584" x1="94.0251" y1="234.077" x2="230.564" y2="234.077" gradientUnits="userSpaceOnUse">
<stop stop-color="#86AFF0"/>
<stop offset="0.0001" stop-color="#86AFF0"/>
<stop offset="1" stop-color="#E9F1FD"/>
</linearGradient>
<linearGradient id="paint5_linear_1007_1584" x1="160.564" y1="265" x2="80.5636" y2="219" gradientUnits="userSpaceOnUse">
<stop stop-color="#037EDB"/>
<stop offset="1" stop-color="#20BAFF"/>
</linearGradient>
<linearGradient id="paint6_linear_1007_1584" x1="160.564" y1="265" x2="242.064" y2="218" gradientUnits="userSpaceOnUse">
<stop stop-color="#20BAFF"/>
<stop offset="1" stop-color="#037EDB"/>
</linearGradient>
<linearGradient id="paint7_linear_1007_1584" x1="94.0251" y1="190.077" x2="230.564" y2="190.077" gradientUnits="userSpaceOnUse">
<stop stop-color="#86AFF0"/>
<stop offset="0.0001" stop-color="#86AFF0"/>
<stop offset="1" stop-color="#E9F1FD"/>
</linearGradient>
<linearGradient id="paint8_linear_1007_1584" x1="94.0251" y1="190.077" x2="230.564" y2="190.077" gradientUnits="userSpaceOnUse">
<stop stop-color="#86AFF0"/>
<stop offset="0.0001" stop-color="#86AFF0"/>
<stop offset="1" stop-color="#E9F1FD"/>
</linearGradient>
<linearGradient id="paint9_linear_1007_1584" x1="94.0251" y1="190.077" x2="230.564" y2="190.077" gradientUnits="userSpaceOnUse">
<stop stop-color="#86AFF0"/>
<stop offset="0.0001" stop-color="#86AFF0"/>
<stop offset="1" stop-color="#E9F1FD"/>
</linearGradient>
<linearGradient id="paint10_linear_1007_1584" x1="160.564" y1="221" x2="80.5636" y2="175" gradientUnits="userSpaceOnUse">
<stop stop-color="#037EDB"/>
<stop offset="1" stop-color="#20BAFF"/>
</linearGradient>
<linearGradient id="paint11_linear_1007_1584" x1="160.564" y1="221" x2="242.064" y2="174" gradientUnits="userSpaceOnUse">
<stop stop-color="#20BAFF"/>
<stop offset="1" stop-color="#037EDB"/>
</linearGradient>
<linearGradient id="paint12_linear_1007_1584" x1="94.0251" y1="146.077" x2="230.564" y2="146.077" gradientUnits="userSpaceOnUse">
<stop stop-color="#86AFF0"/>
<stop offset="0.0001" stop-color="#86AFF0"/>
<stop offset="1" stop-color="#E9F1FD"/>
</linearGradient>
<linearGradient id="paint13_linear_1007_1584" x1="94.0251" y1="146.077" x2="230.564" y2="146.077" gradientUnits="userSpaceOnUse">
<stop stop-color="#86AFF0"/>
<stop offset="0.0001" stop-color="#86AFF0"/>
<stop offset="1" stop-color="#E9F1FD"/>
</linearGradient>
<linearGradient id="paint14_linear_1007_1584" x1="94.0251" y1="146.077" x2="230.564" y2="146.077" gradientUnits="userSpaceOnUse">
<stop stop-color="#86AFF0"/>
<stop offset="0.0001" stop-color="#86AFF0"/>
<stop offset="1" stop-color="#E9F1FD"/>
</linearGradient>
<linearGradient id="paint15_linear_1007_1584" x1="160.564" y1="177" x2="80.5636" y2="131" gradientUnits="userSpaceOnUse">
<stop stop-color="#037EDB"/>
<stop offset="1" stop-color="#20BAFF"/>
</linearGradient>
<linearGradient id="paint16_linear_1007_1584" x1="160.564" y1="177" x2="242.064" y2="130" gradientUnits="userSpaceOnUse">
<stop stop-color="#20BAFF"/>
<stop offset="1" stop-color="#037EDB"/>
</linearGradient>
<linearGradient id="paint17_linear_1007_1584" x1="94.0251" y1="102.077" x2="230.564" y2="102.077" gradientUnits="userSpaceOnUse">
<stop stop-color="#86AFF0"/>
<stop offset="0.0001" stop-color="#86AFF0"/>
<stop offset="1" stop-color="#E9F1FD"/>
</linearGradient>
<linearGradient id="paint18_linear_1007_1584" x1="94.0251" y1="102.077" x2="230.564" y2="102.077" gradientUnits="userSpaceOnUse">
<stop stop-color="#86AFF0"/>
<stop offset="0.0001" stop-color="#86AFF0"/>
<stop offset="1" stop-color="#E9F1FD"/>
</linearGradient>
<linearGradient id="paint19_linear_1007_1584" x1="94.0251" y1="102.077" x2="230.564" y2="102.077" gradientUnits="userSpaceOnUse">
<stop stop-color="#86AFF0"/>
<stop offset="0.0001" stop-color="#86AFF0"/>
<stop offset="1" stop-color="#E9F1FD"/>
</linearGradient>
<linearGradient id="paint20_linear_1007_1584" x1="160.564" y1="6" x2="160.564" y2="130" gradientUnits="userSpaceOnUse">
<stop stop-color="#0085FF"/>
<stop offset="1" stop-color="#00DDFF"/>
</linearGradient>
</defs>
</svg>
