<svg width="276" height="297" viewBox="0 0 276 297" fill="none" xmlns="http://www.w3.org/2000/svg">
<path d="M265.2 245.658C279.518 254.127 278.867 267.806 265.2 276.275C251.532 284.743 241.591 286.5 223.545 288C205.5 289.5 137.5 294.5 120.5 296C103.5 297.5 89.2185 292.049 71.0356 282.275C52.8528 272.5 22.8661 256.302 10.5 248.768C-1.86609 241.234 -3.81863 225.968 10.5 217.5C24.8186 209.032 72.5489 181.82 86.8676 173.351C101.186 164.883 124.617 164.883 139.586 173.351C154.556 181.82 250.881 237.19 265.2 245.658Z" fill="#18183D"/>
<path fill-rule="evenodd" clip-rule="evenodd" d="M155.33 202.53L194.786 179.75L155.33 156.97L116.319 179.75L155.33 202.53ZM145.84 208.009L106.883 185.26L67.9268 208.009L106.883 230.5L145.84 208.009ZM58.4373 202.53L97.4476 179.75L58.4373 156.97L18.9811 179.75L58.4373 202.53ZM67.9268 151.491L106.883 174.24L145.84 151.491L106.883 129L67.9268 151.491Z" fill="#C2DAFD"/>
<path d="M145.84 208.009L155.33 202.53L116.319 179.75L155.33 156.97L145.84 151.491L106.883 174.24L67.9268 151.491L58.4373 156.97L97.4476 179.75L58.4373 202.53L67.9268 208.009L106.883 185.26L145.84 208.009Z" fill="#00F0FF"/>
<path fill-rule="evenodd" clip-rule="evenodd" d="M155.33 202.53L194.786 179.75V224.5L155.33 247.28V202.53ZM145.84 208.009L106.883 230.5V275.25L145.84 252.759V208.009Z" fill="#0299ED"/>
<path d="M145.84 208.009V252.759L155.33 247.28V202.53L145.84 208.009Z" fill="url(#paint0_linear_1007_1534)"/>
<path fill-rule="evenodd" clip-rule="evenodd" d="M67.9268 208.009L106.883 230.5V275.25L67.9268 252.759L67.9268 208.009ZM58.4373 202.53L18.9811 179.75V224.5L58.4373 247.28V202.53Z" fill="#0B64E8"/>
<path d="M67.9268 252.759L67.9268 208.009L58.4373 202.53V247.28L67.9268 252.759Z" fill="#0299ED"/>
<path d="M164.819 154L106.883 187.25L48.9478 154L106.883 120.75L164.819 154Z" fill="#C2DAFD"/>
<path d="M106.883 187.25L48.9478 154V180.75L106.883 214V187.25Z" fill="#114EB8"/>
<path d="M164.819 154L106.883 187.25V214L164.819 180.75V154Z" fill="url(#paint1_linear_1007_1534)"/>
<path d="M153.831 142.743L106.883 169.485L59.9356 142.743L106.883 116L153.831 142.743Z" fill="#C2DAFD"/>
<path d="M106.883 169.485L59.9356 142.743V155.258L106.883 182V169.485Z" fill="url(#paint2_linear_1007_1534)"/>
<path d="M153.831 142.743L106.883 169.485V182L153.831 155.258V142.743Z" fill="url(#paint3_linear_1007_1534)"/>
<path d="M164.819 110.25L106.883 143.5L48.9478 110.25L106.883 77L164.819 110.25Z" fill="#C2DAFD"/>
<path d="M106.883 143.5L48.9478 110.25V137L106.883 170.25V143.5Z" fill="#114EB8"/>
<path d="M164.819 110.25L106.883 143.5V170.25L164.819 137V110.25Z" fill="#00F0FF"/>
<path d="M112.377 153.5L160.324 126M112.377 145.5L129.358 135.652M112.377 161L160.324 133.5" stroke="white" stroke-width="2" stroke-linecap="round"/>
<path d="M111.878 173.5L149.836 151.5M101.889 174L63.9312 152" stroke="url(#paint4_linear_1007_1534)" stroke-width="2" stroke-linecap="square" stroke-dasharray="2 2"/>
<path d="M111.878 197.5L159.825 170M111.878 189.5L128.859 179.652M111.878 205L159.825 177.5" stroke="white" stroke-width="2" stroke-linecap="round"/>
<path d="M164.819 33.4615L106.883 66.9231L48.9478 33.4615L106.883 0L164.819 33.4615Z" fill="#F5E48C"/>
<path d="M106.883 66.9231L48.9478 33.4615V100.385L106.883 133.846V66.9231Z" fill="#114EB8"/>
<path d="M164.819 33.4615L106.883 66.9231V133.846L164.819 100.385V33.4615Z" fill="url(#paint5_linear_1007_1534)"/>
<path d="M111.879 118L159.826 90.4995M111.879 125.5L159.826 97.9995M111.879 103L159.826 75.4995M111.879 110.5L159.826 82.9995M111.879 87.9996L159.825 60.4996M111.879 95.4996L159.825 67.9996M111.879 72.9996L159.825 45.4996M111.879 80.4996L159.825 52.9996M111.878 114.5L159.825 86.9999M111.878 122L159.825 94.4999M111.878 99.4999L159.825 71.9999M111.878 107L159.825 79.4999M111.878 84.5L159.825 57M111.878 92L159.825 64.5M111.878 69.5L159.825 42M111.878 77L159.825 49.5" stroke="white" stroke-width="2" stroke-linecap="round"/>
<g filter="url(#filter0_d_1007_1534)">
<path d="M65.4287 96.5C55.4398 102 55.4398 104.5 55.4398 117L55.4406 193M38.9589 251.497V251.5M38.9589 251.497C38.9589 238.998 38.9589 228.499 48.947 223M38.9589 251.497C38.9589 251.497 37.7093 229.449 42.455 217C45.6224 208.692 55.4406 198.204 55.4406 193M55.4398 161.5C55.4398 149 55.4398 141 65.4287 135.5M55.4406 177.503V177.5M55.4406 193C55.4406 180.502 55.4405 179.503 65.4287 174.003" stroke="#F5E48C" stroke-width="2" stroke-linecap="round" stroke-linejoin="round"/>
</g>
<path d="M227.749 161.333L211.233 170.667L194.786 161.333L211.233 152L227.749 161.333Z" fill="#F5E48C"/>
<path d="M211.233 170.667L194.786 161.333V170.667L211.233 180V170.667Z" fill="#114EB8"/>
<path d="M227.749 161.333L211.233 170.667V180L227.749 170.667V161.333Z" fill="#048AEB"/>
<path d="M225.252 142C229.542 145.821 238.771 147.667 242.733 145.023C242.899 144.606 243.332 143.122 243.731 140.523C244.231 137.274 238.444 137.023 238.444 133.023C238.444 129.023 236.24 128.523 235.74 123.523C235.341 119.523 227.916 118.856 224.253 119.023C224.507 119.446 224.992 120.187 225.617 121.023C226.224 121.834 226.962 122.735 227.749 123.523C229.747 125.523 228.748 131.023 227.25 135.023C226.051 138.223 225.085 140.417 225.252 142Z" fill="#37384F"/>
<path d="M227.25 135.023C228.748 131.023 229.747 125.523 227.749 123.523C226.962 122.735 226.224 121.834 225.617 121.023C225.617 129.023 224.253 128.023 224.253 131.523C224.253 134.323 226.251 135.023 227.25 135.023Z" fill="#F4ACC8"/>
<path d="M224.253 151.023C223.421 157.523 223.254 165.977 222.755 169C222.255 172.023 220.757 178.5 216.262 178.5L216.761 185.023C231.245 187.523 240.069 181.69 243.232 178.023C241.953 177.017 239.972 175.157 238.444 173.023C237.189 171.268 236.24 169.328 236.24 167.523C236.24 163.523 237.905 160.19 238.737 159.023L242.733 145.023C238.771 147.667 229.542 145.821 225.252 142C222.198 143.04 220.694 144.092 218.26 146.523L224.253 151.023Z" fill="#80EBEB"/>
<path d="M210.269 227.523L224.753 274.523L227.25 276.523C227.223 274.54 227.161 272.161 227.058 269.523C227.02 268.556 226.977 267.553 226.929 266.523C226.285 252.885 224.657 234.326 221.54 226.523C217.692 227.12 213.754 227.523 210.269 227.523Z" fill="#F4ACC8"/>
<path d="M239.736 222.023C238.26 222.762 233.754 224.107 228.249 225.282L231.245 267.523L233.243 270.523C235.407 259.69 239.736 234.823 239.736 222.023Z" fill="#F4ACC8"/>
<path d="M202.777 175L202.777 176.5C205.274 177.477 211.767 178.5 216.262 178.5C220.757 178.5 222.255 172.023 222.755 169C223.254 165.977 223.421 157.523 224.253 151.023L218.26 146.523L215.263 171.023L202.777 175Z" fill="#9CF5F5"/>
<path d="M246.728 165.523C247.527 160.323 244.397 149.69 242.733 145.023L238.737 159.023C240.207 161.356 242.206 167.423 238.444 173.023C239.972 175.157 241.953 177.017 243.232 178.023C244.064 176.023 245.929 170.723 246.728 165.523Z" fill="#78DEDE"/>
<path d="M227.25 276.523L224.753 274.523H216.761C216.262 276.023 220.357 277.523 222.755 277.523C225.152 277.523 226.75 276.69 227.25 276.523Z" fill="#80EBEB"/>
<path d="M233.243 270.523L231.245 267.523L226.929 266.523C226.977 267.553 227.02 268.556 227.058 269.523C229.12 271.023 233.243 273.323 233.243 270.523Z" fill="#80EBEB"/>
<path d="M197.283 172C196.784 174.5 200.28 176 202.777 176.5L202.777 175C201.279 174.023 199.78 173.5 197.283 172Z" fill="#F4ACC8"/>
<path d="M243.232 178.023C240.069 181.69 231.245 187.523 216.761 185.023C210.768 193.523 209.869 216.323 210.269 227.523C213.754 227.523 217.692 227.12 221.54 226.523C223.847 226.165 226.123 225.736 228.249 225.282C233.754 224.107 238.26 222.762 239.736 222.023C239.569 218.19 239.936 208.623 242.733 201.023C245.529 193.423 244.231 182.523 243.232 178.023Z" fill="#4C4E6E"/>
<defs>
<filter id="filter0_d_1007_1534" x="35.8102" y="93.4998" width="32.6187" height="161" filterUnits="userSpaceOnUse" color-interpolation-filters="sRGB">
<feFlood flood-opacity="0" result="BackgroundImageFix"/>
<feColorMatrix in="SourceAlpha" type="matrix" values="0 0 0 0 0 0 0 0 0 0 0 0 0 0 0 0 0 0 127 0" result="hardAlpha"/>
<feOffset/>
<feGaussianBlur stdDeviation="1"/>
<feComposite in2="hardAlpha" operator="out"/>
<feColorMatrix type="matrix" values="0 0 0 0 0 0 0 0 0 0 0 0 0 0 0 0 0 0 0.25 0"/>
<feBlend mode="normal" in2="BackgroundImageFix" result="effect1_dropShadow_1007_1534"/>
<feBlend mode="normal" in="SourceGraphic" in2="effect1_dropShadow_1007_1534" result="shape"/>
</filter>
<linearGradient id="paint0_linear_1007_1534" x1="106.883" y1="188.797" x2="106.883" y2="275.25" gradientUnits="userSpaceOnUse">
<stop stop-color="#00F0FF"/>
<stop offset="1" stop-color="#008BFF"/>
</linearGradient>
<linearGradient id="paint1_linear_1007_1534" x1="106.883" y1="185.5" x2="116.89" y2="205.991" gradientUnits="userSpaceOnUse">
<stop stop-color="#01DAFF"/>
<stop offset="1" stop-color="#048AEB"/>
</linearGradient>
<linearGradient id="paint2_linear_1007_1534" x1="59.9356" y1="159.56" x2="103.993" y2="186.693" gradientUnits="userSpaceOnUse">
<stop stop-color="#477FD8"/>
<stop offset="1" stop-color="#6998E2"/>
</linearGradient>
<linearGradient id="paint3_linear_1007_1534" x1="106.883" y1="182" x2="153.861" y2="152.547" gradientUnits="userSpaceOnUse">
<stop stop-color="#9ABDF3"/>
<stop offset="1" stop-color="#6B99E7"/>
</linearGradient>
<linearGradient id="paint4_linear_1007_1534" x1="106.883" y1="143.5" x2="106.883" y2="189" gradientUnits="userSpaceOnUse">
<stop stop-color="#20205B"/>
<stop offset="1" stop-color="#0B64E8"/>
</linearGradient>
<linearGradient id="paint5_linear_1007_1534" x1="106.883" y1="67" x2="106.883" y2="133.846" gradientUnits="userSpaceOnUse">
<stop stop-color="#048AEB"/>
<stop offset="1" stop-color="#01D9FF"/>
</linearGradient>
</defs>
</svg>
