<?xml version="1.0" encoding="utf-8"?>
<!-- Generator: Adobe Illustrator 24.1.2, SVG Export Plug-In . SVG Version: 6.00 Build 0)  -->
<svg version="1.1" id="Layer_1" xmlns="http://www.w3.org/2000/svg" xmlns:xlink="http://www.w3.org/1999/xlink" x="0px" y="0px"
	 viewBox="0 0 1920 3505" style="enable-background:new 0 0 1920 3505;" xml:space="preserve">
<style type="text/css">
	.st0{clip-path:url(#SVGID_2_);fill:url(#SVGID_3_);}
	.st1{clip-path:url(#SVGID_5_);fill:url(#SVGID_6_);}
	.st2{clip-path:url(#SVGID_8_);fill:url(#SVGID_9_);}
	.st3{clip-path:url(#SVGID_11_);fill:url(#SVGID_12_);}
	.st4{clip-path:url(#SVGID_14_);fill:url(#SVGID_15_);}
	.st5{clip-path:url(#SVGID_17_);fill:url(#SVGID_18_);}
	.st6{clip-path:url(#SVGID_20_);fill:url(#SVGID_21_);}
	.st7{clip-path:url(#SVGID_23_);fill:url(#SVGID_24_);}
	.st8{clip-path:url(#SVGID_26_);fill:url(#SVGID_27_);}
</style>
<g>
	<g>
		<g>
			<g>
				<defs>
					<rect id="SVGID_1_" width="1920" height="3500"/>
				</defs>
				<clipPath id="SVGID_2_">
					<use xlink:href="#SVGID_1_"  style="overflow:visible;"/>
				</clipPath>
				
					<linearGradient id="SVGID_3_" gradientUnits="userSpaceOnUse" x1="961.8" y1="-2879.0063" x2="961.8" y2="620.7935" gradientTransform="matrix(1 0 0 1 0 2879.1064)">
					<stop  offset="0.6675" style="stop-color:#20205B"/>
					<stop  offset="1" style="stop-color:#2F2F79"/>
				</linearGradient>
				<path class="st0" d="M-834.4,3499.9V0.1H2758V1761c0,0-741.9,428.7-779.6,450.3s35.9,63.5,72.4,41.9s33.5-19.2,72.4-41.9
					c38.9-22.8,107.7,21.6,72.4,41.9l-6,3.5c-58.9,34-394.5,227.3-429.6,248c-36.7,21.6-178.5,19.2-217.5,41.9
					c-38.9,22.7-196.8,113.6-218,125.7c-32.3,18.5-39.5,61.1,0,83.9c39.5,22.8,39.5,61.7,0.5,83.9c-38.9,22.1,32.9,64.7,71.9,41.9
					c38.9-22.8,105.3-60.5,145.5-83.9s184.4,61.7,145.5,83.9c-38.9,22.1-463.5,267.6-508.3,293.3s-112-19.2-72.4-41.9
					c39.5-22.8,108.9-62.9,144.9-83.9c35.9-20.9-34.1-64-72.4-41.9s-542.4,313.2-580.8,335.3c-38.3,22.1-109.6-20.9-73.1-41.9
					c36.5-20.9,250.9-144.1,290.4-167.6s-33.5-64.7-73.1-41.9c-39.5,22.8-106,61.7-144.3,83.9c-38.3,22.1-109.6-20.9-72.4-41.9
					c37.1-20.9,36.5-21.6,72.4-41.9c35.9-20.4,38.3-61.7,0-83.9c-38.3-22.1-34.7-20.4-72.4-42.1c-38.3-22-106.5-22.4-145.5,0
					c-24.5,14.1-51.1,29.5-73.1,42.1c-35.3,20.4-106.5,22-144.9,0c-39.5-22.8-103.6-24-144.9,0L-834.4,3499.9z"/>
			</g>
		</g>
	</g>
	<g>
		<g>
			<g>
				<defs>
					<rect id="SVGID_4_" width="1920" height="3500"/>
				</defs>
				<clipPath id="SVGID_5_">
					<use xlink:href="#SVGID_4_"  style="overflow:visible;"/>
				</clipPath>
				
					<linearGradient id="SVGID_6_" gradientUnits="userSpaceOnUse" x1="707.5635" y1="-2878.9219" x2="707.5635" y2="620.709" gradientTransform="matrix(1 0 0 1 0 2879.1064)">
					<stop  offset="0.6675" style="stop-color:#20205B"/>
					<stop  offset="1" style="stop-color:#2F2F79"/>
				</linearGradient>
				<path class="st1" d="M816.3,3384.8c38.3-22.1-32.9-64.7-72.4-41.9c-35.3,20.4-113.7,65.6-144.9,83.9
					c-38.9,22.8,33.5,64,72.4,41.9C710.3,3446.5,778,3407.1,816.3,3384.8z"/>
			</g>
		</g>
	</g>
	<g>
		<g>
			<g>
				<defs>
					<rect id="SVGID_7_" width="1920" height="3500"/>
				</defs>
				<clipPath id="SVGID_8_">
					<use xlink:href="#SVGID_7_"  style="overflow:visible;"/>
				</clipPath>
				
					<linearGradient id="SVGID_9_" gradientUnits="userSpaceOnUse" x1="1396.266" y1="-2878.9219" x2="1396.266" y2="620.709" gradientTransform="matrix(1 0 0 1 0 2879.1064)">
					<stop  offset="0.6675" style="stop-color:#20205B"/>
					<stop  offset="1" style="stop-color:#2F2F79"/>
				</linearGradient>
				<path class="st2" d="M1324.7,3426.8c-41.3,24-119.2-14.9-72.4-41.9c41.9-24,34.7-103.6,72.4-125.7c37.7-22.1,104.1,24,145.5,0
					s113.2,18.5,72.4,41.9C1501.9,3324.4,1366,3402.8,1324.7,3426.8z"/>
			</g>
		</g>
	</g>
	<g>
		<g>
			<g>
				<defs>
					<rect id="SVGID_10_" width="1920" height="3500"/>
				</defs>
				<clipPath id="SVGID_11_">
					<use xlink:href="#SVGID_10_"  style="overflow:visible;"/>
				</clipPath>
				
					<linearGradient id="SVGID_12_" gradientUnits="userSpaceOnUse" x1="1760.0529" y1="-2878.9219" x2="1760.0529" y2="620.709" gradientTransform="matrix(1 0 0 1 0 2879.1064)">
					<stop  offset="0.6675" style="stop-color:#20205B"/>
					<stop  offset="1" style="stop-color:#2F2F79"/>
				</linearGradient>
				<path class="st3" d="M1688.1,2965.7c-37.7,22.1,32.9,64.7,72.4,41.9c11.6-6.8,42.1-24.7,71.9-41.9
					c37.1-21.6-34.7-63.5-71.9-41.9C1723.3,2945.3,1725.7,2943.6,1688.1,2965.7z"/>
			</g>
		</g>
	</g>
	<g>
		<g>
			<g>
				<defs>
					<rect id="SVGID_13_" width="1920" height="3500"/>
				</defs>
				<clipPath id="SVGID_14_">
					<use xlink:href="#SVGID_13_"  style="overflow:visible;"/>
				</clipPath>
				
					<linearGradient id="SVGID_15_" gradientUnits="userSpaceOnUse" x1="214.54" y1="-2756.4028" x2="214.54" y2="-1056.6348" gradientTransform="matrix(1 0 0 1 0 2879.1064)">
					<stop  offset="0" style="stop-color:#048AEB"/>
					<stop  offset="1" style="stop-color:#20BAFF"/>
				</linearGradient>
				<path class="st4" d="M138.3,1804.4c-42.9,25.2,33.5,68.8,76.4,44.1c42.9-24.7,33.5-19.6,76.4-44.1
					c42.9-24.7-36.7-67.6-76.4-44.1C182.8,1778.8,150.4,1797.5,138.3,1804.4z"/>
			</g>
		</g>
	</g>
	<g>
		<g>
			<g>
				<defs>
					<rect id="SVGID_16_" width="1920" height="3500"/>
				</defs>
				<clipPath id="SVGID_17_">
					<use xlink:href="#SVGID_16_"  style="overflow:visible;"/>
				</clipPath>
				
					<linearGradient id="SVGID_18_" gradientUnits="userSpaceOnUse" x1="1899.6665" y1="-2756.4028" x2="1899.6665" y2="-1056.6348" gradientTransform="matrix(1 0 0 1 0 2879.1064)">
					<stop  offset="0" style="stop-color:#048AEB"/>
					<stop  offset="1" style="stop-color:#20BAFF"/>
				</linearGradient>
				<path class="st5" d="M1900.5,1230c41.1-24,115.1,22.1,76.4,44.1c-38.5,22.1-37.9,21.5-77.1,44.1s-118.1-20.3-76.4-44.1
					C1856.8,1254.9,1888.8,1236.7,1900.5,1230z"/>
			</g>
		</g>
	</g>
	<g>
		<g>
			<g>
				<defs>
					<rect id="SVGID_19_" width="1920" height="3500"/>
				</defs>
				<clipPath id="SVGID_20_">
					<use xlink:href="#SVGID_19_"  style="overflow:visible;"/>
				</clipPath>
				
					<linearGradient id="SVGID_21_" gradientUnits="userSpaceOnUse" x1="1939.5459" y1="-2756.4028" x2="1939.5459" y2="-1056.6348" gradientTransform="matrix(1 0 0 1 0 2879.1064)">
					<stop  offset="0" style="stop-color:#048AEB"/>
					<stop  offset="1" style="stop-color:#20BAFF"/>
				</linearGradient>
				<path class="st6" d="M1823.5,920.7c36.8-21.2,119.2-68.7,153.6-88.4c42.9-24.7,118.1,20.1,76.4,44.1s-111.2,64.4-152.9,88.4
					C1858.8,988.8,1786.8,941.7,1823.5,920.7z"/>
			</g>
		</g>
	</g>
	<g>
		<g>
			<g>
				<defs>
					<rect id="SVGID_22_" width="1920" height="3500"/>
				</defs>
				<clipPath id="SVGID_23_">
					<use xlink:href="#SVGID_22_"  style="overflow:visible;"/>
				</clipPath>
				
					<linearGradient id="SVGID_24_" gradientUnits="userSpaceOnUse" x1="1625.6851" y1="-2813.6667" x2="1625.6851" y2="-1906.1224" gradientTransform="matrix(1 0 0 1 0 2879.1064)">
					<stop  offset="0" style="stop-color:#20205B"/>
					<stop  offset="1" style="stop-color:#2F2F79"/>
				</linearGradient>
				<path class="st7" d="M1625.9,232c23.3-13.5,62.1,11.1,40.8,23.6c-21.2,12.5-21.6,12.5-40.8,23.6c-19.2,11.1-63.7-10.4-41.2-23.6
					C1602.8,245.1,1619.6,235.5,1625.9,232z"/>
			</g>
		</g>
	</g>
	<g>
		<g>
			<g>
				<defs>
					<rect id="SVGID_25_" width="1920" height="3500"/>
				</defs>
				<clipPath id="SVGID_26_">
					<use xlink:href="#SVGID_25_"  style="overflow:visible;"/>
				</clipPath>
				
					<linearGradient id="SVGID_27_" gradientUnits="userSpaceOnUse" x1="960" y1="-2757.4875" x2="960" y2="-1056.1553" gradientTransform="matrix(1 0 0 1 0 2879.1064)">
					<stop  offset="0" style="stop-color:#048AEB"/>
					<stop  offset="1" style="stop-color:#20BAFF"/>
				</linearGradient>
				<path class="st8" d="M-838,2014c0,0,936.8-539.6,977.2-562.9c40.5-23.3,118.3,20.1,76.5,44.3l-153.1,88.4
					c-38.5,22.3,39.3,65.7,76.5,44.3c37.2-21.5,190.9-110,230.3-132.7c39.3-22.8,115.7,21.3,76.5,44.3
					c-39.2,22.8-116.4,66.9-153.7,88.4c-37.3,21.6,36.1,68.1,77.2,44.3s103.7-60,153.2-88.4c0,0,55.5-32.3,76.4-32.3
					s56.3,20.8,77.2,20.8s76.5-32.8,76.5-32.8s186-107.9,229.6-132.7c43.6-24.8-105.6-116-153.1-88.4s-40.5,23.3-76.5,44.3
					c-36,20.8-112-24-76.5-44.3s2.5-1.5,76.5-44.3c44.4-25.6,36.7-25.2,36.7-67.6c0-42.3,40.1-65.1,40.1-65.1s42-22.8,113.6-22.8
					c71.5,0,71.6,4.1,116.1-21.5c74.4-42.8,343.7-197.7,384.1-221.2c40.5-23.3,118.3,20.1,76.5,44.3
					c-41.7,24.1-192.3,111.5-229.6,132.7c-37.3,21.2,39.2,65.7,76.5,44.3c37.3-21.6,495.2-285.9,536.4-309.6
					c41.1-23.7-32.3-69.9-76.5-44.3c-44.3,25.6-38.9,22.1-77.2,44.3c-38.3,22.1-114.5-22.3-76.5-44.3c38-21.9,263.7-152,306.8-176.9
					c43.1-24.8-32.9-69.5-76.5-44.3S1710.9,633.1,1672.9,655s-112.7-23.3-76.5-44.3c36.1-20.8,497.7-287.1,537.1-309.7
					c39.2-22.7,72.8-22.7,114.5-22.7s77.9,0,115.3-21.5C2400.8,235.3,2758,0.1,2758,0.1H-838V2014L-838,2014z"/>
			</g>
		</g>
	</g>
</g>
</svg>
