<?xml version="1.0" encoding="utf-8"?>
<!-- Generator: Adobe Illustrator 24.1.2, SVG Export Plug-In . SVG Version: 6.00 Build 0)  -->
<svg version="1.1" id="Layer_1" xmlns="http://www.w3.org/2000/svg" xmlns:xlink="http://www.w3.org/1999/xlink" x="0px" y="0px"
	 viewBox="0 0 2560 4673.33" style="enable-background:new 0 0 2560 4673.33;" xml:space="preserve">
<style type="text/css">
	.st0{clip-path:url(#SVGID_2_);fill:url(#SVGID_3_);}
	.st1{clip-path:url(#SVGID_5_);fill:url(#SVGID_6_);}
	.st2{clip-path:url(#SVGID_8_);fill:url(#SVGID_9_);}
	.st3{clip-path:url(#SVGID_11_);fill:url(#SVGID_12_);}
	.st4{clip-path:url(#SVGID_14_);fill:url(#SVGID_15_);}
	.st5{clip-path:url(#SVGID_17_);fill:url(#SVGID_18_);}
	.st6{clip-path:url(#SVGID_20_);fill:url(#SVGID_21_);}
	.st7{clip-path:url(#SVGID_23_);fill:url(#SVGID_24_);}
	.st8{clip-path:url(#SVGID_26_);fill:url(#SVGID_27_);}
</style>
<g>
	<g>
		<g>
			<g>
				<defs>
					<rect id="SVGID_1_" x="-0.44" y="-0.13" width="2560.91" height="4668.33"/>
				</defs>
				<clipPath id="SVGID_2_">
					<use xlink:href="#SVGID_1_"  style="overflow:visible;"/>
				</clipPath>
				
					<linearGradient id="SVGID_3_" gradientUnits="userSpaceOnUse" x1="1282.4199" y1="-2879.1064" x2="1282.42" y2="1788.9634" gradientTransform="matrix(1 0 0 1 0 2879.1064)">
					<stop  offset="0.6675" style="stop-color:#20205B"/>
					<stop  offset="1" style="stop-color:#2F2F79"/>
				</linearGradient>
				<path class="st0" d="M-1113.37,4668.07V0h4791.58v2348.71c0,0-989.55,571.8-1039.84,600.61c-50.28,28.81,47.88,84.7,96.57,55.89
					c48.68-28.81,44.68-25.61,96.57-55.89c51.89-30.41,143.65,28.81,96.57,55.89l-8,4.67c-78.56,45.35-526.19,303.18-573,330.78
					c-48.95,28.81-238.08,25.61-290.1,55.89c-51.89,30.28-262.49,151.52-290.77,167.66c-43.08,24.68-52.69,81.5,0,111.91
					s52.69,82.3,0.67,111.91c-51.89,29.48,43.88,86.3,95.9,55.89c51.89-30.41,140.45-80.7,194.07-111.91s245.95,82.3,194.07,111.91
					c-51.89,29.48-618.22,356.93-677.98,391.21c-59.75,34.28-149.39-25.61-96.57-55.89c52.69-30.41,145.25-83.9,193.27-111.91
					c47.88-27.88-45.48-85.36-96.57-55.89s-723.46,417.75-774.68,447.23c-51.08,29.48-146.19-27.88-97.5-55.89
					c48.68-27.88,334.65-192.2,387.34-223.55c52.69-31.34-44.68-86.3-97.5-55.89c-52.69,30.41-141.38,82.3-192.47,111.91
					c-51.08,29.48-146.19-27.88-96.57-55.89c49.48-27.88,48.68-28.81,96.57-55.89c47.88-27.21,51.08-82.3,0-111.91
					c-51.08-29.48-46.28-27.21-96.57-56.15c-51.08-29.34-142.05-29.88-194.07,0c-32.68,18.81-68.16,39.35-97.5,56.15
					c-47.08,27.21-142.05,29.34-193.27,0c-52.69-30.41-138.18-32.01-193.27,0L-1113.37,4668.07z"/>
			</g>
		</g>
	</g>
	<g>
		<g>
			<g>
				<defs>
					<rect id="SVGID_4_" x="-0.44" y="-0.13" width="2560.91" height="4668.33"/>
				</defs>
				<clipPath id="SVGID_5_">
					<use xlink:href="#SVGID_4_"  style="overflow:visible;"/>
				</clipPath>
				
					<linearGradient id="SVGID_6_" gradientUnits="userSpaceOnUse" x1="943.3128" y1="-2878.9924" x2="943.3128" y2="1788.8484" gradientTransform="matrix(1 0 0 1 0 2879.1064)">
					<stop  offset="0.6675" style="stop-color:#20205B"/>
					<stop  offset="1" style="stop-color:#2F2F79"/>
				</linearGradient>
				<path class="st1" d="M1088.35,4514.55c51.08-29.48-43.88-86.3-96.57-55.89c-47.08,27.21-151.65,87.5-193.27,111.91
					c-51.89,30.41,44.68,85.36,96.57,55.89C946.97,4596.84,1037.27,4544.29,1088.35,4514.55z"/>
			</g>
		</g>
	</g>
	<g>
		<g>
			<g>
				<defs>
					<rect id="SVGID_7_" x="-0.44" y="-0.13" width="2560.91" height="4668.33"/>
				</defs>
				<clipPath id="SVGID_8_">
					<use xlink:href="#SVGID_7_"  style="overflow:visible;"/>
				</clipPath>
				
					<linearGradient id="SVGID_9_" gradientUnits="userSpaceOnUse" x1="1861.9161" y1="-2878.9924" x2="1861.9161" y2="1788.8484" gradientTransform="matrix(1 0 0 1 0 2879.1064)">
					<stop  offset="0.6675" style="stop-color:#20205B"/>
					<stop  offset="1" style="stop-color:#2F2F79"/>
				</linearGradient>
				<path class="st2" d="M1766.46,4570.57c-55.09,32.01-158.99-19.87-96.57-55.89c55.89-32.01,46.28-138.18,96.57-167.66
					c50.28-29.48,138.85,32.01,194.07,0c55.22-32.01,150.99,24.68,96.57,55.89C2002.81,4433.98,1821.55,4538.56,1766.46,4570.57z"/>
			</g>
		</g>
	</g>
	<g>
		<g>
			<g>
				<defs>
					<rect id="SVGID_10_" x="-0.44" y="-0.13" width="2560.91" height="4668.33"/>
				</defs>
				<clipPath id="SVGID_11_">
					<use xlink:href="#SVGID_10_"  style="overflow:visible;"/>
				</clipPath>
				
					<linearGradient id="SVGID_12_" gradientUnits="userSpaceOnUse" x1="2347.1421" y1="-2878.9924" x2="2347.1421" y2="1788.8484" gradientTransform="matrix(1 0 0 1 0 2879.1064)">
					<stop  offset="0.6675" style="stop-color:#20205B"/>
					<stop  offset="1" style="stop-color:#2F2F79"/>
				</linearGradient>
				<path class="st3" d="M2251.17,3955.55c-50.28,29.48,43.88,86.3,96.57,55.89c15.47-9.07,56.15-32.95,95.9-55.89
					c49.48-28.81-46.28-84.7-95.9-55.89C2298.12,3928.34,2301.32,3926.07,2251.17,3955.55z"/>
			</g>
		</g>
	</g>
	<g>
		<g>
			<g>
				<defs>
					<rect id="SVGID_13_" x="-0.44" y="-0.13" width="2560.91" height="4668.33"/>
				</defs>
				<clipPath id="SVGID_14_">
					<use xlink:href="#SVGID_13_"  style="overflow:visible;"/>
				</clipPath>
				
					<linearGradient id="SVGID_15_" gradientUnits="userSpaceOnUse" x1="285.7165" y1="-2715.5754" x2="285.7165" y2="-448.4084" gradientTransform="matrix(1 0 0 1 0 2879.1064)">
					<stop  offset="0" style="stop-color:#048AEB"/>
					<stop  offset="1" style="stop-color:#20BAFF"/>
				</linearGradient>
				<path class="st4" d="M184.03,2406.59c-57.22,33.61,44.68,91.77,101.9,58.82s44.68-26.14,101.9-58.82
					c57.22-32.95-48.95-90.17-101.9-58.82C243.38,2372.45,200.17,2397.39,184.03,2406.59z"/>
			</g>
		</g>
	</g>
	<g>
		<g>
			<g>
				<defs>
					<rect id="SVGID_16_" x="-0.44" y="-0.13" width="2560.91" height="4668.33"/>
				</defs>
				<clipPath id="SVGID_17_">
					<use xlink:href="#SVGID_16_"  style="overflow:visible;"/>
				</clipPath>
				
					<linearGradient id="SVGID_18_" gradientUnits="userSpaceOnUse" x1="2533.355" y1="-2715.5754" x2="2533.355" y2="-448.4084" gradientTransform="matrix(1 0 0 1 0 2879.1064)">
					<stop  offset="0" style="stop-color:#048AEB"/>
					<stop  offset="1" style="stop-color:#20BAFF"/>
				</linearGradient>
				<path class="st5" d="M2534.47,1640.45c54.82-32.01,153.52,29.48,101.9,58.82c-51.35,29.48-50.55,28.68-102.84,58.82
					c-52.29,30.14-157.52-27.08-101.9-58.82C2476.18,1673.67,2518.86,1649.39,2534.47,1640.45z"/>
			</g>
		</g>
	</g>
	<g>
		<g>
			<g>
				<defs>
					<rect id="SVGID_19_" x="-0.44" y="-0.13" width="2560.91" height="4668.33"/>
				</defs>
				<clipPath id="SVGID_20_">
					<use xlink:href="#SVGID_19_"  style="overflow:visible;"/>
				</clipPath>
				
					<linearGradient id="SVGID_21_" gradientUnits="userSpaceOnUse" x1="2586.5405" y1="-2715.5754" x2="2586.5405" y2="-448.4084" gradientTransform="matrix(1 0 0 1 0 2879.1064)">
					<stop  offset="0" style="stop-color:#048AEB"/>
					<stop  offset="1" style="stop-color:#20BAFF"/>
				</linearGradient>
				<path class="st6" d="M2431.76,1227.91c49.08-28.28,158.99-91.63,204.87-117.91c57.22-32.95,157.52,26.81,101.9,58.82
					c-55.62,32.01-148.32,85.9-203.94,117.91C2478.85,1318.74,2382.81,1255.92,2431.76,1227.91z"/>
			</g>
		</g>
	</g>
	<g>
		<g>
			<g>
				<defs>
					<rect id="SVGID_22_" x="-0.44" y="-0.13" width="2560.91" height="4668.33"/>
				</defs>
				<clipPath id="SVGID_23_">
					<use xlink:href="#SVGID_22_"  style="overflow:visible;"/>
				</clipPath>
				
					<linearGradient id="SVGID_24_" gradientUnits="userSpaceOnUse" x1="2167.915" y1="-2791.978" x2="2167.915" y2="-1581.4868" gradientTransform="matrix(1 0 0 1 0 2879.1064)">
					<stop  offset="0" style="stop-color:#20205B"/>
					<stop  offset="1" style="stop-color:#2F2F79"/>
				</linearGradient>
				<path class="st7" d="M2168.2,309.31c31.08-18.01,82.83,14.81,54.42,31.48c-28.28,16.67-28.81,16.67-54.42,31.48
					c-25.61,14.81-84.96-13.87-54.95-31.48C2137.39,326.78,2159.8,313.98,2168.2,309.31z"/>
			</g>
		</g>
	</g>
	<g>
		<g>
			<g>
				<defs>
					<rect id="SVGID_25_" x="-0.44" y="-0.13" width="2560.91" height="4668.33"/>
				</defs>
				<clipPath id="SVGID_26_">
					<use xlink:href="#SVGID_25_"  style="overflow:visible;"/>
				</clipPath>
				
					<linearGradient id="SVGID_27_" gradientUnits="userSpaceOnUse" x1="1280.02" y1="-2717.0222" x2="1280.02" y2="-447.7688" gradientTransform="matrix(1 0 0 1 0 2879.1064)">
					<stop  offset="0" style="stop-color:#048AEB"/>
					<stop  offset="1" style="stop-color:#20BAFF"/>
				</linearGradient>
				<path class="st8" d="M-1118.17,2686.16c0,0,1249.51-719.72,1303.4-750.8c54.02-31.08,157.79,26.81,102.04,59.09L83.06,2112.36
					c-51.35,29.74,52.42,87.63,102.04,59.09c49.62-28.68,254.62-146.72,307.18-177c52.42-30.41,154.32,28.41,102.04,59.09
					c-52.29,30.41-155.26,89.23-205.01,117.91c-49.75,28.81,48.15,90.83,102.97,59.09s138.32-80.03,204.34-117.91
					c0,0,74.03-43.08,101.9-43.08s75.09,27.74,102.97,27.74s102.04-43.75,102.04-43.75s248.09-143.92,306.24-177
					s-140.85-154.72-204.21-117.91s-54.02,31.08-102.04,59.09c-48.02,27.74-149.39-32.01-102.04-59.09s3.33-2,102.04-59.09
					c59.22-34.15,48.95-33.61,48.95-90.17c0-56.42,53.49-86.83,53.49-86.83s56.02-30.41,151.52-30.41
					c95.37,0,95.5,5.47,154.86-28.68c99.24-57.09,458.43-263.69,512.32-295.04c54.02-31.08,157.79,26.81,102.04,59.09
					c-55.62,32.14-256.49,148.72-306.24,177s52.29,87.63,102.04,59.09c49.75-28.81,660.5-381.34,715.46-412.95
					c54.82-31.61-43.08-93.23-102.04-59.09c-59.09,34.15-51.89,29.48-102.97,59.09c-51.08,29.48-152.72-29.74-102.04-59.09
					c50.68-29.21,351.73-202.74,409.21-235.95c57.49-33.08-43.88-92.7-102.04-59.09s-256.49,147.79-307.18,177
					c-50.68,29.21-150.32-31.08-102.04-59.09c48.15-27.74,663.84-382.94,716.39-413.08c52.29-30.28,97.1-30.28,152.72-30.28
					c55.62,0,103.9,0,153.79-28.68C3201.77,313.71,3678.21,0,3678.21,0h-4796.38L-1118.17,2686.16L-1118.17,2686.16z"/>
			</g>
		</g>
	</g>
</g>
</svg>
