<svg width="3000" height="3000" viewBox="0 0 3000 3000" fill="none" xmlns="http://www.w3.org/2000/svg">
<path d="M2.99707 3000V0H3000V1509.49C3000 1509.49 2381.12 1876.99 2349.65 1895.47C2318.18 1913.94 2379.62 1949.87 2410.09 1931.39C2440.56 1912.92 2438.06 1914.97 2470.53 1895.47C2503 1875.96 2560.44 1913.94 2530.97 1931.39L2525.85 1934.43C2476.49 1963.65 2196.8 2129.26 2167.48 2146.96C2136.86 2165.44 2018.48 2163.39 1986.01 2182.84C1953.55 2202.29 1821.85 2280.26 1804.2 2290.68C1777.22 2306.59 1771.23 2343.03 1804.2 2362.53C1837.16 2382.04 1837.16 2415.4 1804.7 2434.39C1772.23 2453.38 1832.17 2489.82 1864.64 2470.32C1897.1 2450.81 1952.55 2418.48 1986.01 2398.46C2019.48 2378.44 2139.86 2451.33 2107.39 2470.32C2074.93 2489.31 1720.78 2699.74 1683.32 2721.81C1645.85 2743.88 1589.91 2705.39 1622.88 2685.89C1655.84 2666.38 1713.79 2631.99 1743.76 2614.03C1773.73 2596.07 1715.28 2559.11 1683.32 2578.1C1651.35 2597.09 1230.77 2846.54 1198.8 2865.53C1166.83 2884.52 1107.39 2847.56 1137.86 2829.6C1168.33 2811.63 1347.15 2706 1380.12 2685.89C1413.09 2665.77 1352.15 2630.45 1319.18 2649.96C1286.21 2669.46 1230.77 2702.82 1198.8 2721.81C1166.83 2740.8 1107.39 2703.85 1138.36 2685.89C1169.33 2667.92 1168.83 2667.41 1198.8 2649.96C1228.77 2632.51 1230.77 2597.09 1198.8 2578.1C1166.83 2559.11 1169.83 2560.65 1138.36 2542.02C1106.39 2523.18 1049.51 2522.77 1016.98 2542.02C996.562 2554.11 974.326 2567.28 956.044 2578.1C926.573 2595.55 867.133 2597.01 835.165 2578.1C802.198 2558.6 748.751 2557.57 714.286 2578.1L2.99707 3000Z" fill="url(#paint0_linear_3264_1629)"/>
<path d="M2349.65 2326.6C2319.18 2345.08 2257.24 2309.15 2288.71 2290.68C2320.18 2272.2 2319.18 2200.86 2349.65 2182.89C2380.12 2164.93 2379.12 2165.44 2409.59 2146.96C2440.06 2128.49 2565.43 2198.29 2530.97 2218.82C2496.5 2239.35 2380.12 2308.13 2349.65 2326.6Z" fill="url(#paint1_linear_3264_1629)"/>
<path d="M1380.12 2901.45C1412.09 2882.46 1352.65 2846.02 1319.68 2865.53C1290.21 2882.98 1224.78 2921.78 1198.8 2937.38C1166.33 2956.89 1226.77 2992.3 1259.24 2973.31C1291.71 2954.32 1348.15 2920.44 1380.12 2901.45Z" fill="url(#paint2_linear_3264_1629)"/>
<path d="M1804.2 2937.38C1769.73 2957.91 1704.8 2924.55 1743.76 2901.45C1778.72 2880.92 1772.73 2812.66 1804.2 2793.67C1835.66 2774.68 1891.11 2814.2 1925.57 2793.67C1960.04 2773.14 2019.98 2809.58 1986.01 2829.6C1952.05 2849.61 1838.66 2916.85 1804.2 2937.38Z" fill="url(#paint3_linear_3264_1629)"/>
<path d="M2107.39 2542.17C2075.92 2561.16 2134.87 2597.6 2167.83 2578.1C2177.49 2572.28 2203 2556.95 2227.77 2542.17C2258.74 2523.7 2198.8 2487.77 2167.83 2506.24C2136.86 2524.72 2138.86 2523.18 2107.39 2542.17Z" fill="url(#paint4_linear_3264_1629)"/>
<path d="M0 1725.58C0 1725.58 780.711 1263.51 814.449 1243.48C848.186 1223.45 913.026 1260.7 878.234 1281.36L750.663 1357.11C718.507 1376.2 783.467 1413.38 814.449 1394.98C845.43 1376.59 973.528 1300.84 1006.33 1281.36C1039.14 1261.88 1102.8 1299.66 1070.12 1319.23C1037.43 1338.8 973.121 1376.51 942.019 1394.98C910.917 1413.45 972.089 1453.31 1006.33 1432.86C1040.58 1412.4 1092.75 1381.52 1134.06 1357.11C1134.06 1357.11 1180.29 1329.51 1197.69 1329.51C1215.08 1329.51 1244.6 1347.37 1262 1347.37C1279.4 1347.37 1325.79 1319.23 1325.79 1319.23C1325.79 1319.23 1480.77 1226.85 1517.14 1205.61C1553.51 1184.36 1429.11 1106.24 1389.57 1129.86C1350.03 1153.47 1355.83 1149.89 1325.79 1167.73C1295.74 1185.57 1232.48 1147.24 1262 1129.86C1291.52 1112.47 1264.07 1128.6 1325.79 1091.98C1362.74 1070.06 1356.36 1070.35 1356.36 1034.1C1356.36 997.851 1389.83 978.373 1389.83 978.373C1389.83 978.373 1424.89 958.894 1484.46 958.894C1544.03 958.894 1544.14 962.43 1581.26 940.498C1643.24 903.878 1867.7 771.139 1901.43 751.106C1935.17 731.073 2000.01 768.322 1965.22 788.981C1930.43 809.64 1804.97 884.455 1773.86 902.622C1742.76 920.79 1806.55 958.966 1837.65 940.498C1868.75 922.03 2250.41 695.702 2284.67 675.356C2318.94 655.01 2257.79 615.569 2220.89 637.481C2183.99 659.392 2188.47 656.418 2156.58 675.356C2124.68 694.293 2061.16 656.262 2092.79 637.481C2124.42 618.7 2312.61 507.266 2348.46 485.98C2384.31 464.695 2321.05 426.507 2284.67 448.105C2248.3 469.703 2124.42 542.949 2092.79 561.731C2061.16 580.512 1998.94 541.711 2029.01 523.855C2059.08 506 2443.87 278.032 2476.56 258.642C2509.24 239.251 2537.18 239.251 2571.97 239.251C2606.76 239.251 2636.81 239.251 2668.04 220.855C2699.27 202.458 2997 1.02661 2997 1.02661H0V1725.58Z" fill="url(#paint5_linear_3264_1629)"/>
<path d="M814.449 1546.48C778.602 1568.13 842.388 1605.46 878.234 1584.36C914.08 1563.26 906.173 1567.58 942.019 1546.48C977.866 1525.38 911.445 1488.59 878.234 1508.61C851.666 1524.62 824.64 1540.53 814.449 1546.48Z" fill="url(#paint6_linear_3264_1629)"/>
<path d="M2284.67 1054.11C2318.94 1033.55 2380.62 1073.04 2348.46 1091.98C2316.3 1110.92 2316.83 1110.38 2284.15 1129.86C2251.46 1149.34 2185.57 1112.54 2220.36 1091.98C2248.19 1075.53 2274.83 1059.88 2284.67 1054.11Z" fill="url(#paint7_linear_3264_1629)"/>
<path d="M2220.36 788.981C2251.11 770.765 2319.78 730.112 2348.46 713.231C2384.31 692.129 2447.04 730.545 2412.24 751.106C2377.45 771.667 2319.47 806.295 2284.67 826.856C2249.88 847.417 2189.79 807.086 2220.36 788.981Z" fill="url(#paint8_linear_3264_1629)"/>
<path d="M2540.34 372.355C2576.72 350.712 2637.34 390.211 2604.13 410.23C2570.92 430.25 2570.39 430.25 2540.34 448.105C2510.29 465.961 2440.71 431.332 2476.03 410.23C2504.28 393.349 2530.68 377.946 2540.34 372.355Z" fill="url(#paint9_linear_3264_1629)"/>
<defs>
<linearGradient id="paint0_linear_3264_1629" x1="1501.5" y1="0" x2="1501.5" y2="3000" gradientUnits="userSpaceOnUse">
<stop offset="0.667482" stop-color="#20205B"/>
<stop offset="1" stop-color="#2F2F79"/>
</linearGradient>
<linearGradient id="paint1_linear_3264_1629" x1="1501.5" y1="0" x2="1501.5" y2="3000" gradientUnits="userSpaceOnUse">
<stop offset="0.667482" stop-color="#20205B"/>
<stop offset="1" stop-color="#2F2F79"/>
</linearGradient>
<linearGradient id="paint2_linear_3264_1629" x1="1501.5" y1="0" x2="1501.5" y2="3000" gradientUnits="userSpaceOnUse">
<stop offset="0.667482" stop-color="#20205B"/>
<stop offset="1" stop-color="#2F2F79"/>
</linearGradient>
<linearGradient id="paint3_linear_3264_1629" x1="1501.5" y1="0" x2="1501.5" y2="3000" gradientUnits="userSpaceOnUse">
<stop offset="0.667482" stop-color="#20205B"/>
<stop offset="1" stop-color="#2F2F79"/>
</linearGradient>
<linearGradient id="paint4_linear_3264_1629" x1="1501.5" y1="0" x2="1501.5" y2="3000" gradientUnits="userSpaceOnUse">
<stop offset="0.667482" stop-color="#20205B"/>
<stop offset="1" stop-color="#2F2F79"/>
</linearGradient>
<linearGradient id="paint5_linear_3264_1629" x1="1498.16" y1="105.02" x2="1498.16" y2="1562" gradientUnits="userSpaceOnUse">
<stop stop-color="#048AEB"/>
<stop offset="1" stop-color="#20BAFF"/>
</linearGradient>
<linearGradient id="paint6_linear_3264_1629" x1="1498.16" y1="105.02" x2="1498.16" y2="1562" gradientUnits="userSpaceOnUse">
<stop stop-color="#048AEB"/>
<stop offset="1" stop-color="#20BAFF"/>
</linearGradient>
<linearGradient id="paint7_linear_3264_1629" x1="1498.16" y1="105.02" x2="1498.16" y2="1562" gradientUnits="userSpaceOnUse">
<stop stop-color="#048AEB"/>
<stop offset="1" stop-color="#20BAFF"/>
</linearGradient>
<linearGradient id="paint8_linear_3264_1629" x1="1498.16" y1="105.02" x2="1498.16" y2="1562" gradientUnits="userSpaceOnUse">
<stop stop-color="#048AEB"/>
<stop offset="1" stop-color="#20BAFF"/>
</linearGradient>
<linearGradient id="paint9_linear_3264_1629" x1="1498.16" y1="105.02" x2="1498.16" y2="1562" gradientUnits="userSpaceOnUse">
<stop stop-color="#048AEB"/>
<stop offset="1" stop-color="#20BAFF"/>
</linearGradient>
</defs>
</svg>
