<?xml version="1.0" encoding="utf-8"?>
<!-- Generator: Adobe Illustrator 24.1.2, SVG Export Plug-In . SVG Version: 6.00 Build 0)  -->
<svg version="1.1" id="Layer_1" xmlns="http://www.w3.org/2000/svg" xmlns:xlink="http://www.w3.org/1999/xlink" x="0px" y="0px"
	 viewBox="0 0 1280 2336.67" style="enable-background:new 0 0 1280 2336.67;" xml:space="preserve">
<style type="text/css">
	.st0{clip-path:url(#SVGID_2_);fill:url(#SVGID_3_);}
	.st1{clip-path:url(#SVGID_5_);fill:url(#SVGID_6_);}
	.st2{clip-path:url(#SVGID_8_);fill:url(#SVGID_9_);}
	.st3{clip-path:url(#SVGID_11_);fill:url(#SVGID_12_);}
	.st4{clip-path:url(#SVGID_14_);fill:url(#SVGID_15_);}
	.st5{clip-path:url(#SVGID_17_);fill:url(#SVGID_18_);}
	.st6{clip-path:url(#SVGID_20_);fill:url(#SVGID_21_);}
	.st7{clip-path:url(#SVGID_23_);fill:url(#SVGID_24_);}
	.st8{clip-path:url(#SVGID_26_);fill:url(#SVGID_27_);}
</style>
<g>
	<g>
		<g>
			<g>
				<defs>
					<rect id="SVGID_1_" y="0.06" width="1280" height="2333.33"/>
				</defs>
				<clipPath id="SVGID_2_">
					<use xlink:href="#SVGID_1_"  style="overflow:visible;"/>
				</clipPath>
				
					<linearGradient id="SVGID_3_" gradientUnits="userSpaceOnUse" x1="641.1949" y1="-2878.9766" x2="641.1949" y2="-545.7764" gradientTransform="matrix(1 0 0 1 0 2879.1064)">
					<stop  offset="0.6675" style="stop-color:#20205B"/>
					<stop  offset="1" style="stop-color:#2F2F79"/>
				</linearGradient>
				<path class="st0" d="M-556.27,2333.33V0.13h2394.93v1173.93c0,0-494.6,285.8-519.73,300.2c-25.13,14.4,23.93,42.33,48.27,27.93
					c24.33-14.4,22.33-12.8,48.27-27.93c25.93-15.2,71.8,14.4,48.27,27.93l-4,2.33c-39.27,22.67-263,151.53-286.4,165.33
					c-24.47,14.4-119,12.8-145,27.93c-25.93,15.13-131.2,75.73-145.33,83.8c-21.53,12.33-26.33,40.73,0,55.93
					c26.33,15.2,26.33,41.13,0.33,55.93c-25.93,14.73,21.93,43.13,47.93,27.93c25.93-15.2,70.2-40.33,97-55.93
					c26.8-15.6,122.93,41.13,97,55.93c-25.93,14.73-309,178.4-338.87,195.53s-74.67-12.8-48.27-27.93
					c26.33-15.2,72.6-41.93,96.6-55.93c23.93-13.93-22.73-42.67-48.27-27.93s-361.6,208.8-387.2,223.53
					c-25.53,14.73-73.07-13.93-48.73-27.93c24.33-13.93,167.27-96.07,193.6-111.73c26.33-15.67-22.33-43.13-48.73-27.93
					c-26.33,15.2-70.67,41.13-96.2,55.93c-25.53,14.73-73.07-13.93-48.27-27.93c24.73-13.93,24.33-14.4,48.27-27.93
					c23.93-13.6,25.53-41.13,0-55.93c-25.53-14.73-23.13-13.6-48.27-28.07c-25.53-14.67-71-14.93-97,0
					c-16.33,9.4-34.07,19.67-48.73,28.07c-23.53,13.6-71,14.67-96.6,0c-26.33-15.2-69.07-16-96.6,0L-556.27,2333.33z"/>
			</g>
		</g>
	</g>
	<g>
		<g>
			<g>
				<defs>
					<rect id="SVGID_4_" y="0.06" width="1280" height="2333.33"/>
				</defs>
				<clipPath id="SVGID_5_">
					<use xlink:href="#SVGID_4_"  style="overflow:visible;"/>
				</clipPath>
				
					<linearGradient id="SVGID_6_" gradientUnits="userSpaceOnUse" x1="471.7074" y1="-2878.9231" x2="471.7074" y2="-545.8357" gradientTransform="matrix(1 0 0 1 0 2879.1064)">
					<stop  offset="0.6675" style="stop-color:#20205B"/>
					<stop  offset="1" style="stop-color:#2F2F79"/>
				</linearGradient>
				<path class="st1" d="M544.2,2256.59c25.53-14.73-21.93-43.13-48.27-27.93c-23.53,13.6-75.8,43.73-96.6,55.93
					c-25.93,15.2,22.33,42.67,48.27,27.93C473.53,2297.73,518.67,2271.46,544.2,2256.59z"/>
			</g>
		</g>
	</g>
	<g>
		<g>
			<g>
				<defs>
					<rect id="SVGID_7_" y="0.06" width="1280" height="2333.33"/>
				</defs>
				<clipPath id="SVGID_8_">
					<use xlink:href="#SVGID_7_"  style="overflow:visible;"/>
				</clipPath>
				
					<linearGradient id="SVGID_9_" gradientUnits="userSpaceOnUse" x1="930.8409" y1="-2878.9231" x2="930.8409" y2="-545.8357" gradientTransform="matrix(1 0 0 1 0 2879.1064)">
					<stop  offset="0.6675" style="stop-color:#20205B"/>
					<stop  offset="1" style="stop-color:#2F2F79"/>
				</linearGradient>
				<path class="st2" d="M883.13,2284.59c-27.53,16-79.47-9.93-48.27-27.93c27.93-16,23.13-69.07,48.27-83.8
					c25.13-14.73,69.4,16,97,0s75.47,12.33,48.27,27.93C1001.27,2216.33,910.67,2268.59,883.13,2284.59z"/>
			</g>
		</g>
	</g>
	<g>
		<g>
			<g>
				<defs>
					<rect id="SVGID_10_" y="0.06" width="1280" height="2333.33"/>
				</defs>
				<clipPath id="SVGID_11_">
					<use xlink:href="#SVGID_10_"  style="overflow:visible;"/>
				</clipPath>
				
					<linearGradient id="SVGID_12_" gradientUnits="userSpaceOnUse" x1="1173.3687" y1="-2878.9231" x2="1173.3687" y2="-545.8357" gradientTransform="matrix(1 0 0 1 0 2879.1064)">
					<stop  offset="0.6675" style="stop-color:#20205B"/>
					<stop  offset="1" style="stop-color:#2F2F79"/>
				</linearGradient>
				<path class="st3" d="M1125.4,1977.19c-25.13,14.73,21.93,43.13,48.27,27.93c7.73-4.53,28.07-16.47,47.93-27.93
					c24.73-14.4-23.13-42.33-47.93-27.93C1148.87,1963.59,1150.47,1962.46,1125.4,1977.19z"/>
			</g>
		</g>
	</g>
	<g>
		<g>
			<g>
				<defs>
					<rect id="SVGID_13_" y="0.06" width="1280" height="2333.33"/>
				</defs>
				<clipPath id="SVGID_14_">
					<use xlink:href="#SVGID_13_"  style="overflow:visible;"/>
				</clipPath>
				
					<linearGradient id="SVGID_15_" gradientUnits="userSpaceOnUse" x1="143.023" y1="-2797.2437" x2="143.023" y2="-1664.0649" gradientTransform="matrix(1 0 0 1 0 2879.1064)">
					<stop  offset="0" style="stop-color:#048AEB"/>
					<stop  offset="1" style="stop-color:#20BAFF"/>
				</linearGradient>
				<path class="st4" d="M92.2,1202.99c-28.6,16.8,22.33,45.87,50.93,29.4s22.33-13.07,50.93-29.4
					c28.6-16.47-24.47-45.07-50.93-29.4C121.87,1185.93,100.27,1198.39,92.2,1202.99z"/>
			</g>
		</g>
	</g>
	<g>
		<g>
			<g>
				<defs>
					<rect id="SVGID_16_" y="0.06" width="1280" height="2333.33"/>
				</defs>
				<clipPath id="SVGID_17_">
					<use xlink:href="#SVGID_16_"  style="overflow:visible;"/>
				</clipPath>
				
					<linearGradient id="SVGID_18_" gradientUnits="userSpaceOnUse" x1="1266.4429" y1="-2797.2437" x2="1266.4429" y2="-1664.0649" gradientTransform="matrix(1 0 0 1 0 2879.1064)">
					<stop  offset="0" style="stop-color:#048AEB"/>
					<stop  offset="1" style="stop-color:#20BAFF"/>
				</linearGradient>
				<path class="st5" d="M1267,820.06c27.4-16,76.73,14.73,50.93,29.4c-25.67,14.73-25.27,14.33-51.4,29.4s-78.73-13.53-50.93-29.4
					C1237.87,836.66,1259.2,824.53,1267,820.06z"/>
			</g>
		</g>
	</g>
	<g>
		<g>
			<g>
				<defs>
					<rect id="SVGID_19_" y="0.06" width="1280" height="2333.33"/>
				</defs>
				<clipPath id="SVGID_20_">
					<use xlink:href="#SVGID_19_"  style="overflow:visible;"/>
				</clipPath>
				
					<linearGradient id="SVGID_21_" gradientUnits="userSpaceOnUse" x1="1293.0317" y1="-2797.2437" x2="1293.0317" y2="-1664.0649" gradientTransform="matrix(1 0 0 1 0 2879.1064)">
					<stop  offset="0" style="stop-color:#048AEB"/>
					<stop  offset="1" style="stop-color:#20BAFF"/>
				</linearGradient>
				<path class="st6" d="M1215.67,613.86c24.53-14.13,79.47-45.8,102.4-58.93c28.6-16.47,78.73,13.4,50.93,29.4
					s-74.13,42.93-101.93,58.93C1239.2,659.26,1191.2,627.86,1215.67,613.86z"/>
			</g>
		</g>
	</g>
	<g>
		<g>
			<g>
				<defs>
					<rect id="SVGID_22_" y="0.06" width="1280" height="2333.33"/>
				</defs>
				<clipPath id="SVGID_23_">
					<use xlink:href="#SVGID_22_"  style="overflow:visible;"/>
				</clipPath>
				
					<linearGradient id="SVGID_24_" gradientUnits="userSpaceOnUse" x1="1083.785" y1="-2835.3977" x2="1083.785" y2="-2230.3682" gradientTransform="matrix(1 0 0 1 0 2879.1064)">
					<stop  offset="0" style="stop-color:#20205B"/>
					<stop  offset="1" style="stop-color:#2F2F79"/>
				</linearGradient>
				<path class="st7" d="M1083.93,154.73c15.53-9,41.4,7.4,27.2,15.73c-14.13,8.33-14.4,8.33-27.2,15.73
					c-12.8,7.4-42.47-6.93-27.47-15.73C1068.53,163.46,1079.73,157.06,1083.93,154.73z"/>
			</g>
		</g>
	</g>
	<g>
		<g>
			<g>
				<defs>
					<rect id="SVGID_25_" y="0.06" width="1280" height="2333.33"/>
				</defs>
				<clipPath id="SVGID_26_">
					<use xlink:href="#SVGID_25_"  style="overflow:visible;"/>
				</clipPath>
				
					<linearGradient id="SVGID_27_" gradientUnits="userSpaceOnUse" x1="639.99" y1="-2797.9668" x2="639.9901" y2="-1663.7454" gradientTransform="matrix(1 0 0 1 0 2879.1064)">
					<stop  offset="0" style="stop-color:#048AEB"/>
					<stop  offset="1" style="stop-color:#20BAFF"/>
				</linearGradient>
				<path class="st8" d="M-558.67,1342.73c0,0,624.53-359.73,651.47-375.27c27-15.53,78.87,13.4,51,29.53l-102.07,58.93
					c-25.67,14.87,26.2,43.8,51,29.53c24.8-14.33,127.27-73.33,153.53-88.47c26.2-15.2,77.13,14.2,51,29.53
					c-26.13,15.2-77.6,44.6-102.47,58.93c-24.87,14.4,24.07,45.4,51.47,29.53s69.13-40,102.13-58.93c0,0,37-21.53,50.93-21.53
					s37.53,13.87,51.47,13.87s51-21.87,51-21.87s124-71.93,153.07-88.47s-70.4-77.33-102.07-58.93s-27,15.53-51,29.53
					c-24,13.87-74.67-16-51-29.53c23.67-13.53,1.67-1,51-29.53c29.6-17.07,24.47-16.8,24.47-45.07c0-28.2,26.73-43.4,26.73-43.4
					s28-15.2,75.73-15.2c47.67,0,47.73,2.73,77.4-14.33c49.6-28.53,229.13-131.8,256.07-147.47c27-15.53,78.87,13.4,51,29.53
					c-27.8,16.07-128.2,74.33-153.07,88.47c-24.87,14.13,26.13,43.8,51,29.53c24.87-14.4,330.13-190.6,357.6-206.4
					c27.4-15.8-21.53-46.6-51-29.53c-29.53,17.07-25.93,14.73-51.47,29.53c-25.53,14.73-76.33-14.87-51-29.53
					c25.33-14.6,175.8-101.33,204.53-117.93c28.73-16.53-21.93-46.33-51-29.53s-128.2,73.87-153.53,88.47
					c-25.33,14.6-75.13-15.53-51-29.53c24.07-13.87,331.8-191.4,358.07-206.47c26.13-15.13,48.53-15.13,76.33-15.13
					c27.8,0,51.93,0,76.87-14.33c25-14.33,263.13-171.13,263.13-171.13H-558.67V1342.73L-558.67,1342.73z"/>
			</g>
		</g>
	</g>
</g>
</svg>
