<?xml version="1.0" encoding="utf-8"?>
<!-- Generator: Adobe Illustrator 24.1.2, SVG Export Plug-In . SVG Version: 6.00 Build 0)  -->
<svg version="1.1" id="Layer_1" xmlns="http://www.w3.org/2000/svg" xmlns:xlink="http://www.w3.org/1999/xlink" x="0px" y="0px"
	 viewBox="0 0 768 1402" style="enable-background:new 0 0 768 1402;" xml:space="preserve">
<style type="text/css">
	.st0{clip-path:url(#SVGID_2_);fill:url(#SVGID_3_);}
	.st1{clip-path:url(#SVGID_5_);fill:url(#SVGID_6_);}
	.st2{clip-path:url(#SVGID_8_);fill:url(#SVGID_9_);}
	.st3{clip-path:url(#SVGID_11_);fill:url(#SVGID_12_);}
	.st4{clip-path:url(#SVGID_14_);fill:url(#SVGID_15_);}
	.st5{clip-path:url(#SVGID_17_);fill:url(#SVGID_18_);}
	.st6{clip-path:url(#SVGID_20_);fill:url(#SVGID_21_);}
	.st7{clip-path:url(#SVGID_23_);fill:url(#SVGID_24_);}
	.st8{clip-path:url(#SVGID_26_);fill:url(#SVGID_27_);}
</style>
<g>
	<g>
		<g>
			<g>
				<defs>
					<rect id="SVGID_1_" width="768" height="1400"/>
				</defs>
				<clipPath id="SVGID_2_">
					<use xlink:href="#SVGID_1_"  style="overflow:visible;"/>
				</clipPath>
				
					<linearGradient id="SVGID_3_" gradientUnits="userSpaceOnUse" x1="384.72" y1="-2879.0664" x2="384.72" y2="-1479.1465" gradientTransform="matrix(1 0 0 1 0 2879.1064)">
					<stop  offset="0.6675" style="stop-color:#20205B"/>
					<stop  offset="1" style="stop-color:#2F2F79"/>
				</linearGradient>
				<path class="st0" d="M-333.76,1399.96V0.04H1103.2V704.4c0,0-296.76,171.48-311.84,180.12c-15.08,8.64,14.36,25.4,28.96,16.76
					c14.6-8.64,13.4-7.68,28.96-16.76c15.56-9.12,43.08,8.64,28.96,16.76l-2.4,1.4c-23.56,13.6-157.8,90.92-171.84,99.2
					c-14.68,8.64-71.4,7.68-87,16.76c-15.56,9.08-78.72,45.44-87.2,50.28c-12.92,7.4-15.8,24.44,0,33.56
					c15.8,9.12,15.8,24.68,0.2,33.56c-15.56,8.84,13.16,25.88,28.76,16.76c15.56-9.12,42.12-24.2,58.2-33.56s73.76,24.68,58.2,33.56
					c-15.56,8.84-185.4,107.04-203.32,117.32c-17.92,10.28-44.8-7.68-28.96-16.76c15.8-9.12,43.56-25.16,57.96-33.56
					c14.36-8.36-13.64-25.6-28.96-16.76c-15.32,8.84-216.96,125.28-232.32,134.12c-15.32,8.84-43.84-8.36-29.24-16.76
					c14.6-8.36,100.36-57.64,116.16-67.04c15.8-9.4-13.4-25.88-29.24-16.76c-15.8,9.12-42.4,24.68-57.72,33.56
					c-15.32,8.84-43.84-8.36-28.96-16.76c14.84-8.36,14.6-8.64,28.96-16.76c14.36-8.16,15.32-24.68,0-33.56
					c-15.32-8.84-13.88-8.16-28.96-16.84c-15.32-8.8-42.6-8.96-58.2,0c-9.8,5.64-20.44,11.8-29.24,16.84
					c-14.12,8.16-42.6,8.8-57.96,0c-15.8-9.12-41.44-9.6-57.96,0L-333.76,1399.96z"/>
			</g>
		</g>
	</g>
	<g>
		<g>
			<g>
				<defs>
					<rect id="SVGID_4_" width="768" height="1400"/>
				</defs>
				<clipPath id="SVGID_5_">
					<use xlink:href="#SVGID_4_"  style="overflow:visible;"/>
				</clipPath>
				
					<linearGradient id="SVGID_6_" gradientUnits="userSpaceOnUse" x1="283.0254" y1="-2879.0325" x2="283.0254" y2="-1479.1802" gradientTransform="matrix(1 0 0 1 0 2879.1064)">
					<stop  offset="0.6675" style="stop-color:#20205B"/>
					<stop  offset="1" style="stop-color:#2F2F79"/>
				</linearGradient>
				<path class="st1" d="M326.52,1353.92c15.32-8.84-13.16-25.88-28.96-16.76c-14.12,8.16-45.48,26.24-57.96,33.56
					c-15.56,9.12,13.4,25.6,28.96,16.76C284.12,1378.6,311.2,1362.84,326.52,1353.92z"/>
			</g>
		</g>
	</g>
	<g>
		<g>
			<g>
				<defs>
					<rect id="SVGID_7_" width="768" height="1400"/>
				</defs>
				<clipPath id="SVGID_8_">
					<use xlink:href="#SVGID_7_"  style="overflow:visible;"/>
				</clipPath>
				
					<linearGradient id="SVGID_9_" gradientUnits="userSpaceOnUse" x1="558.5064" y1="-2879.0325" x2="558.5064" y2="-1479.1802" gradientTransform="matrix(1 0 0 1 0 2879.1064)">
					<stop  offset="0.6675" style="stop-color:#20205B"/>
					<stop  offset="1" style="stop-color:#2F2F79"/>
				</linearGradient>
				<path class="st2" d="M529.88,1370.72c-16.52,9.6-47.68-5.96-28.96-16.76c16.76-9.6,13.88-41.44,28.96-50.28
					c15.08-8.84,41.64,9.6,58.2,0s45.28,7.4,28.96,16.76C600.76,1329.76,546.4,1361.12,529.88,1370.72z"/>
			</g>
		</g>
	</g>
	<g>
		<g>
			<g>
				<defs>
					<rect id="SVGID_10_" width="768" height="1400"/>
				</defs>
				<clipPath id="SVGID_11_">
					<use xlink:href="#SVGID_10_"  style="overflow:visible;"/>
				</clipPath>
				
					<linearGradient id="SVGID_12_" gradientUnits="userSpaceOnUse" x1="704.0211" y1="-2879.0325" x2="704.0211" y2="-1479.1802" gradientTransform="matrix(1 0 0 1 0 2879.1064)">
					<stop  offset="0.6675" style="stop-color:#20205B"/>
					<stop  offset="1" style="stop-color:#2F2F79"/>
				</linearGradient>
				<path class="st3" d="M675.24,1186.28c-15.08,8.84,13.16,25.88,28.96,16.76c4.64-2.72,16.84-9.88,28.76-16.76
					c14.84-8.64-13.88-25.4-28.76-16.76C689.32,1178.12,690.28,1177.44,675.24,1186.28z"/>
			</g>
		</g>
	</g>
	<g>
		<g>
			<g>
				<defs>
					<rect id="SVGID_13_" width="768" height="1400"/>
				</defs>
				<clipPath id="SVGID_14_">
					<use xlink:href="#SVGID_13_"  style="overflow:visible;"/>
				</clipPath>
				
					<linearGradient id="SVGID_15_" gradientUnits="userSpaceOnUse" x1="85.816" y1="-2830.0249" x2="85.816" y2="-2150.1177" gradientTransform="matrix(1 0 0 1 0 2879.1064)">
					<stop  offset="0" style="stop-color:#048AEB"/>
					<stop  offset="1" style="stop-color:#20BAFF"/>
				</linearGradient>
				<path class="st4" d="M55.32,721.76c-17.16,10.08,13.4,27.52,30.56,17.64s13.4-7.84,30.56-17.64
					c17.16-9.88-14.68-27.04-30.56-17.64C73.12,711.52,60.16,719,55.32,721.76z"/>
			</g>
		</g>
	</g>
	<g>
		<g>
			<g>
				<defs>
					<rect id="SVGID_16_" width="768" height="1400"/>
				</defs>
				<clipPath id="SVGID_17_">
					<use xlink:href="#SVGID_16_"  style="overflow:visible;"/>
				</clipPath>
				
					<linearGradient id="SVGID_18_" gradientUnits="userSpaceOnUse" x1="759.8666" y1="-2830.0249" x2="759.8666" y2="-2150.1177" gradientTransform="matrix(1 0 0 1 0 2879.1064)">
					<stop  offset="0" style="stop-color:#048AEB"/>
					<stop  offset="1" style="stop-color:#20BAFF"/>
				</linearGradient>
				<path class="st5" d="M760.2,492c16.44-9.6,46.04,8.84,30.56,17.64c-15.4,8.84-15.16,8.6-30.84,17.64
					c-15.68,9.04-47.24-8.12-30.56-17.64C742.72,501.96,755.52,494.68,760.2,492z"/>
			</g>
		</g>
	</g>
	<g>
		<g>
			<g>
				<defs>
					<rect id="SVGID_19_" width="768" height="1400"/>
				</defs>
				<clipPath id="SVGID_20_">
					<use xlink:href="#SVGID_19_"  style="overflow:visible;"/>
				</clipPath>
				
					<linearGradient id="SVGID_21_" gradientUnits="userSpaceOnUse" x1="775.8184" y1="-2830.0249" x2="775.8184" y2="-2150.1177" gradientTransform="matrix(1 0 0 1 0 2879.1064)">
					<stop  offset="0" style="stop-color:#048AEB"/>
					<stop  offset="1" style="stop-color:#20BAFF"/>
				</linearGradient>
				<path class="st6" d="M729.4,368.28c14.72-8.48,47.68-27.48,61.44-35.36c17.16-9.88,47.24,8.04,30.56,17.64
					s-44.48,25.76-61.16,35.36C743.52,395.52,714.72,376.68,729.4,368.28z"/>
			</g>
		</g>
	</g>
	<g>
		<g>
			<g>
				<defs>
					<rect id="SVGID_22_" width="768" height="1400"/>
				</defs>
				<clipPath id="SVGID_23_">
					<use xlink:href="#SVGID_22_"  style="overflow:visible;"/>
				</clipPath>
				
					<linearGradient id="SVGID_24_" gradientUnits="userSpaceOnUse" x1="650.274" y1="-2852.9304" x2="650.274" y2="-2489.9128" gradientTransform="matrix(1 0 0 1 0 2879.1064)">
					<stop  offset="0" style="stop-color:#20205B"/>
					<stop  offset="1" style="stop-color:#2F2F79"/>
				</linearGradient>
				<path class="st7" d="M650.36,92.8c9.32-5.4,24.84,4.44,16.32,9.44c-8.48,5-8.64,5-16.32,9.44s-25.48-4.16-16.48-9.44
					C641.12,98.04,647.84,94.2,650.36,92.8z"/>
			</g>
		</g>
	</g>
	<g>
		<g>
			<g>
				<defs>
					<rect id="SVGID_25_" width="768" height="1400"/>
				</defs>
				<clipPath id="SVGID_26_">
					<use xlink:href="#SVGID_25_"  style="overflow:visible;"/>
				</clipPath>
				
					<linearGradient id="SVGID_27_" gradientUnits="userSpaceOnUse" x1="384" y1="-2830.459" x2="384" y2="-2149.926" gradientTransform="matrix(1 0 0 1 0 2879.1064)">
					<stop  offset="0" style="stop-color:#048AEB"/>
					<stop  offset="1" style="stop-color:#20BAFF"/>
				</linearGradient>
				<path class="st8" d="M-335.2,805.6c0,0,374.72-215.84,390.88-225.16c16.2-9.32,47.32,8.04,30.6,17.72l-61.24,35.36
					c-15.4,8.92,15.72,26.28,30.6,17.72c14.88-8.6,76.36-44,92.12-53.08c15.72-9.12,46.28,8.52,30.6,17.72
					c-15.68,9.12-46.56,26.76-61.48,35.36c-14.92,8.64,14.44,27.24,30.88,17.72s41.48-24,61.28-35.36c0,0,22.2-12.92,30.56-12.92
					s22.52,8.32,30.88,8.32c8.36,0,30.6-13.12,30.6-13.12s74.4-43.16,91.84-53.08c17.44-9.92-42.24-46.4-61.24-35.36
					c-19,11.04-16.2,9.32-30.6,17.72c-14.4,8.32-44.8-9.6-30.6-17.72c14.2-8.12,1-0.6,30.6-17.72
					c17.76-10.24,14.68-10.08,14.68-27.04c0-16.92,16.04-26.04,16.04-26.04s16.8-9.12,45.44-9.12c28.6,0,28.64,1.64,46.44-8.6
					c29.76-17.12,137.48-79.08,153.64-88.48c16.2-9.32,47.32,8.04,30.6,17.72c-16.68,9.64-76.92,44.6-91.84,53.08
					c-14.92,8.48,15.68,26.28,30.6,17.72c14.92-8.64,198.08-114.36,214.56-123.84c16.44-9.48-12.92-27.96-30.6-17.72
					c-17.72,10.24-15.56,8.84-30.88,17.72c-15.32,8.84-45.8-8.92-30.6-17.72c15.2-8.76,105.48-60.8,122.72-70.76
					c17.24-9.92-13.16-27.8-30.6-17.72s-76.92,44.32-92.12,53.08s-45.08-9.32-30.6-17.72C653,235.96,837.64,129.44,853.4,120.4
					c15.68-9.08,29.12-9.08,45.8-9.08s31.16,0,46.12-8.6c15-8.6,157.88-102.68,157.88-102.68H-335.2V805.6L-335.2,805.6z"/>
			</g>
		</g>
	</g>
</g>
</svg>
