<?xml version="1.0" encoding="utf-8"?>
<!-- Generator: Adobe Illustrator 24.1.2, SVG Export Plug-In . SVG Version: 6.00 Build 0)  -->
<svg version="1.1" id="Layer_1" xmlns="http://www.w3.org/2000/svg" xmlns:xlink="http://www.w3.org/1999/xlink" x="0px" y="0px"
	 viewBox="0 0 390 711.95" style="enable-background:new 0 0 390 711.95;" xml:space="preserve">
<style type="text/css">
	.st0{clip-path:url(#SVGID_2_);fill:url(#SVGID_3_);}
	.st1{clip-path:url(#SVGID_5_);fill:url(#SVGID_6_);}
	.st2{clip-path:url(#SVGID_8_);fill:url(#SVGID_9_);}
	.st3{clip-path:url(#SVGID_11_);fill:url(#SVGID_12_);}
	.st4{clip-path:url(#SVGID_14_);fill:url(#SVGID_15_);}
	.st5{clip-path:url(#SVGID_17_);fill:url(#SVGID_18_);}
	.st6{clip-path:url(#SVGID_20_);fill:url(#SVGID_21_);}
	.st7{clip-path:url(#SVGID_23_);fill:url(#SVGID_24_);}
	.st8{clip-path:url(#SVGID_26_);fill:url(#SVGID_27_);}
</style>
<g>
	<g>
		<g>
			<g>
				<defs>
					<rect id="SVGID_1_" width="390" height="710.94"/>
				</defs>
				<clipPath id="SVGID_2_">
					<use xlink:href="#SVGID_1_"  style="overflow:visible;"/>
				</clipPath>
				
					<linearGradient id="SVGID_3_" gradientUnits="userSpaceOnUse" x1="195.365" y1="-2900.9927" x2="195.365" y2="-2190.0928" gradientTransform="matrix(1 0 0 1 0 2901.0127)">
					<stop  offset="0.6675" style="stop-color:#20205B"/>
					<stop  offset="1" style="stop-color:#2F2F79"/>
				</linearGradient>
				<path class="st0" d="M-169.49,710.92V0.02h729.71V357.7c0,0-150.7,87.08-158.36,91.47c-7.66,4.39,7.29,12.9,14.71,8.51
					s6.8-3.9,14.71-8.51c7.9-4.63,21.88,4.39,14.71,8.51l-1.22,0.71c-11.96,6.91-80.13,46.17-87.26,50.38
					c-7.45,4.39-36.26,3.9-44.18,8.51c-7.9,4.61-39.98,23.08-44.28,25.53c-6.56,3.76-8.02,12.41,0,17.04s8.02,12.53,0.1,17.04
					c-7.9,4.49,6.68,13.14,14.6,8.51c7.9-4.63,21.39-12.29,29.55-17.04c8.17-4.75,37.46,12.53,29.55,17.04
					c-7.9,4.49-94.15,54.36-103.25,59.58s-22.75-3.9-14.71-8.51c8.02-4.63,22.12-12.78,29.43-17.04c7.29-4.25-6.93-13-14.71-8.51
					s-110.18,63.62-117.97,68.11c-7.78,4.49-22.26-4.25-14.85-8.51c7.41-4.25,50.96-29.27,58.99-34.04s-6.8-13.14-14.85-8.51
					c-8.02,4.63-21.53,12.53-29.31,17.04c-7.78,4.49-22.26-4.25-14.71-8.51c7.54-4.25,7.41-4.39,14.71-8.51
					c7.29-4.14,7.78-12.53,0-17.04c-7.78-4.49-7.05-4.14-14.71-8.55c-7.78-4.47-21.63-4.55-29.55,0
					c-4.98,2.86-10.38,5.99-14.85,8.55c-7.17,4.14-21.63,4.47-29.43,0c-8.02-4.63-21.04-4.88-29.43,0L-169.49,710.92z"/>
			</g>
		</g>
	</g>
	<g>
		<g>
			<g>
				<defs>
					<rect id="SVGID_4_" width="390" height="710.94"/>
				</defs>
				<clipPath id="SVGID_5_">
					<use xlink:href="#SVGID_4_"  style="overflow:visible;"/>
				</clipPath>
				
					<linearGradient id="SVGID_6_" gradientUnits="userSpaceOnUse" x1="143.7227" y1="-2900.9751" x2="143.7227" y2="-2190.1125" gradientTransform="matrix(1 0 0 1 0 2901.0127)">
					<stop  offset="0.6675" style="stop-color:#20205B"/>
					<stop  offset="1" style="stop-color:#2F2F79"/>
				</linearGradient>
				<path class="st1" d="M165.81,687.54c7.78-4.49-6.68-13.14-14.71-8.51c-7.17,4.14-23.1,13.33-29.43,17.04
					c-7.9,4.63,6.8,13,14.71,8.51C144.28,700.07,158.03,692.07,165.81,687.54z"/>
			</g>
		</g>
	</g>
	<g>
		<g>
			<g>
				<defs>
					<rect id="SVGID_7_" width="390" height="710.94"/>
				</defs>
				<clipPath id="SVGID_8_">
					<use xlink:href="#SVGID_7_"  style="overflow:visible;"/>
				</clipPath>
				
					<linearGradient id="SVGID_9_" gradientUnits="userSpaceOnUse" x1="283.6143" y1="-2900.9751" x2="283.6143" y2="-2190.1125" gradientTransform="matrix(1 0 0 1 0 2901.0127)">
					<stop  offset="0.6675" style="stop-color:#20205B"/>
					<stop  offset="1" style="stop-color:#2F2F79"/>
				</linearGradient>
				<path class="st2" d="M269.08,696.07c-8.39,4.88-24.21-3.03-14.71-8.51c8.51-4.88,7.05-21.04,14.71-25.53
					c7.66-4.49,21.15,4.88,29.55,0c8.41-4.88,22.99,3.76,14.71,8.51C305.07,675.27,277.47,691.19,269.08,696.07z"/>
			</g>
		</g>
	</g>
	<g>
		<g>
			<g>
				<defs>
					<rect id="SVGID_10_" width="390" height="710.94"/>
				</defs>
				<clipPath id="SVGID_11_">
					<use xlink:href="#SVGID_10_"  style="overflow:visible;"/>
				</clipPath>
				
					<linearGradient id="SVGID_12_" gradientUnits="userSpaceOnUse" x1="357.5151" y1="-2900.9751" x2="357.5151" y2="-2190.1125" gradientTransform="matrix(1 0 0 1 0 2901.0127)">
					<stop  offset="0.6675" style="stop-color:#20205B"/>
					<stop  offset="1" style="stop-color:#2F2F79"/>
				</linearGradient>
				<path class="st3" d="M342.9,602.41c-7.66,4.49,6.68,13.14,14.71,8.51c2.36-1.38,8.55-5.02,14.6-8.51
					c7.54-4.39-7.05-12.9-14.6-8.51C350.05,598.26,350.53,597.92,342.9,602.41z"/>
			</g>
		</g>
	</g>
	<g>
		<g>
			<g>
				<defs>
					<rect id="SVGID_13_" width="390" height="710.94"/>
				</defs>
				<clipPath id="SVGID_14_">
					<use xlink:href="#SVGID_13_"  style="overflow:visible;"/>
				</clipPath>
				
					<linearGradient id="SVGID_15_" gradientUnits="userSpaceOnUse" x1="43.5775" y1="-2876.0884" x2="43.5775" y2="-2530.823" gradientTransform="matrix(1 0 0 1 0 2901.0127)">
					<stop  offset="0" style="stop-color:#048AEB"/>
					<stop  offset="1" style="stop-color:#20BAFF"/>
				</linearGradient>
				<path class="st4" d="M28.09,366.52c-8.71,5.12,6.8,13.98,15.52,8.96c8.71-5.02,6.8-3.98,15.52-8.96
					c8.71-5.02-7.45-13.73-15.52-8.96C37.13,361.32,30.55,365.12,28.09,366.52z"/>
			</g>
		</g>
	</g>
	<g>
		<g>
			<g>
				<defs>
					<rect id="SVGID_16_" width="390" height="710.94"/>
				</defs>
				<clipPath id="SVGID_17_">
					<use xlink:href="#SVGID_16_"  style="overflow:visible;"/>
				</clipPath>
				
					<linearGradient id="SVGID_18_" gradientUnits="userSpaceOnUse" x1="385.8719" y1="-2876.0884" x2="385.8719" y2="-2530.823" gradientTransform="matrix(1 0 0 1 0 2901.0127)">
					<stop  offset="0" style="stop-color:#048AEB"/>
					<stop  offset="1" style="stop-color:#20BAFF"/>
				</linearGradient>
				<path class="st5" d="M386.04,249.84c8.35-4.88,23.38,4.49,15.52,8.96c-7.82,4.49-7.7,4.37-15.66,8.96s-23.99-4.12-15.52-8.96
					C377.16,254.9,383.66,251.2,386.04,249.84z"/>
			</g>
		</g>
	</g>
	<g>
		<g>
			<g>
				<defs>
					<rect id="SVGID_19_" width="390" height="710.94"/>
				</defs>
				<clipPath id="SVGID_20_">
					<use xlink:href="#SVGID_19_"  style="overflow:visible;"/>
				</clipPath>
				
					<linearGradient id="SVGID_21_" gradientUnits="userSpaceOnUse" x1="393.9711" y1="-2876.0884" x2="393.9711" y2="-2530.823" gradientTransform="matrix(1 0 0 1 0 2901.0127)">
					<stop  offset="0" style="stop-color:#048AEB"/>
					<stop  offset="1" style="stop-color:#20BAFF"/>
				</linearGradient>
				<path class="st6" d="M370.4,187.02c7.48-4.31,24.21-13.95,31.2-17.96c8.71-5.02,23.99,4.08,15.52,8.96s-22.59,13.08-31.06,17.96
					C377.57,200.85,362.94,191.28,370.4,187.02z"/>
			</g>
		</g>
	</g>
	<g>
		<g>
			<g>
				<defs>
					<rect id="SVGID_22_" width="390" height="710.94"/>
				</defs>
				<clipPath id="SVGID_23_">
					<use xlink:href="#SVGID_22_"  style="overflow:visible;"/>
				</clipPath>
				
					<linearGradient id="SVGID_24_" gradientUnits="userSpaceOnUse" x1="330.2155" y1="-2887.7202" x2="330.2155" y2="-2703.3752" gradientTransform="matrix(1 0 0 1 0 2901.0127)">
					<stop  offset="0" style="stop-color:#20205B"/>
					<stop  offset="1" style="stop-color:#2F2F79"/>
				</linearGradient>
				<path class="st7" d="M330.26,47.13c4.73-2.74,12.61,2.25,8.29,4.79c-4.31,2.54-4.39,2.54-8.29,4.79s-12.94-2.11-8.37-4.79
					C325.57,49.79,328.98,47.84,330.26,47.13z"/>
			</g>
		</g>
	</g>
	<g>
		<g>
			<g>
				<defs>
					<rect id="SVGID_25_" width="390" height="710.94"/>
				</defs>
				<clipPath id="SVGID_26_">
					<use xlink:href="#SVGID_25_"  style="overflow:visible;"/>
				</clipPath>
				
					<linearGradient id="SVGID_27_" gradientUnits="userSpaceOnUse" x1="194.99" y1="-2876.3088" x2="194.99" y2="-2530.7256" gradientTransform="matrix(1 0 0 1 0 2901.0127)">
					<stop  offset="0" style="stop-color:#048AEB"/>
					<stop  offset="1" style="stop-color:#20BAFF"/>
				</linearGradient>
				<path class="st8" d="M-170.22,409.09c0,0,190.29-109.61,198.49-114.34c8.23-4.73,24.03,4.08,15.54,9l-31.1,17.96
					c-7.82,4.53,7.98,13.35,15.54,9c7.56-4.37,38.78-22.34,46.78-26.95c7.98-4.63,23.5,4.33,15.54,9
					c-7.96,4.63-23.64,13.59-31.22,17.96c-7.58,4.39,7.33,13.83,15.68,9s21.06-12.19,31.12-17.96c0,0,11.27-6.56,15.52-6.56
					s11.44,4.23,15.68,4.23s15.54-6.66,15.54-6.66s37.78-21.92,46.64-26.95c8.86-5.04-21.45-23.56-31.1-17.96
					c-9.65,5.61-8.23,4.73-15.54,9c-7.31,4.23-22.75-4.88-15.54-9s0.51-0.3,15.54-9c9.02-5.2,7.45-5.12,7.45-13.73
					c0-8.59,8.15-13.22,8.15-13.22s8.53-4.63,23.07-4.63c14.52,0,14.54,0.83,23.58-4.37c15.11-8.69,69.81-40.16,78.02-44.93
					c8.23-4.73,24.03,4.08,15.54,9c-8.47,4.9-39.06,22.65-46.64,26.95c-7.58,4.31,7.96,13.35,15.54,9
					c7.58-4.39,100.59-58.07,108.96-62.89c8.35-4.81-6.56-14.2-15.54-9c-9,5.2-7.9,4.49-15.68,9c-7.78,4.49-23.26-4.53-15.54-9
					c7.72-4.45,53.56-30.87,62.32-35.93c8.75-5.04-6.68-14.12-15.54-9c-8.86,5.12-39.06,22.51-46.78,26.95s-22.89-4.73-15.54-9
					c7.33-4.22,101.1-58.32,109.1-62.91c7.96-4.61,14.79-4.61,23.26-4.61s15.82,0,23.42-4.37c7.62-4.37,80.17-52.14,80.17-52.14
					h-730.44L-170.22,409.09L-170.22,409.09z"/>
			</g>
		</g>
	</g>
</g>
</svg>
